M48
; DRILL file {KiCad 7.0.10} date Fri Aug  2 12:55:57 2024
; FORMAT={-:-/ absolute / metric / decimal}
; #@! TF.CreationDate,2024-08-02T12:55:57+01:00
; #@! TF.GenerationSoftware,Kicad,Pcbnew,7.0.10
; #@! TF.FileFunction,Plated,1,2,PTH
FMAT,2
METRIC
; #@! TA.AperFunction,Plated,PTH,ViaDrill
T1C0.400
; #@! TA.AperFunction,Plated,PTH,ComponentDrill
T2C1.000
%
G90
G05
T1
X15.05Y5.9
X19.65Y20.227
X19.65Y14.15
X32.9Y19.3
X33.2Y21.7
X34.9Y5.1
X40.9Y11.1
X43.4Y5.2
T2
X4.4Y22.42
X4.4Y19.88
X4.4Y17.34
X4.4Y14.8
X4.4Y12.26
X4.4Y9.72
X4.4Y7.18
X6.94Y22.42
X6.94Y19.88
X6.94Y17.34
X6.94Y14.8
X6.94Y12.26
X6.94Y9.72
X6.94Y7.18
X46.5Y20.075
X46.5Y17.535
X46.5Y14.995
X46.5Y12.455
X46.5Y9.915
M30
