%TF.GenerationSoftware,KiCad,Pcbnew,7.0.10*%
%TF.CreationDate,2024-08-02T12:55:58+01:00*%
%TF.ProjectId,RL78I1C_PMOD_PROG_ADAPTOR_ISO,524c3738-4931-4435-9f50-4d4f445f5052,0*%
%TF.SameCoordinates,PX5b8d800PY7997ee0*%
%TF.FileFunction,Legend,Top*%
%TF.FilePolarity,Positive*%
%FSLAX46Y46*%
G04 Gerber Fmt 4.6, Leading zero omitted, Abs format (unit mm)*
G04 Created by KiCad (PCBNEW 7.0.10) date 2024-08-02 12:55:58*
%MOMM*%
%LPD*%
G01*
G04 APERTURE LIST*
%ADD10C,0.150000*%
%ADD11C,0.100000*%
%ADD12C,0.120000*%
G04 APERTURE END LIST*
D10*
X57915160Y18021800D02*
X58058017Y17974181D01*
X58058017Y17974181D02*
X58296112Y17974181D01*
X58296112Y17974181D02*
X58391350Y18021800D01*
X58391350Y18021800D02*
X58438969Y18069420D01*
X58438969Y18069420D02*
X58486588Y18164658D01*
X58486588Y18164658D02*
X58486588Y18259896D01*
X58486588Y18259896D02*
X58438969Y18355134D01*
X58438969Y18355134D02*
X58391350Y18402753D01*
X58391350Y18402753D02*
X58296112Y18450372D01*
X58296112Y18450372D02*
X58105636Y18497991D01*
X58105636Y18497991D02*
X58010398Y18545610D01*
X58010398Y18545610D02*
X57962779Y18593229D01*
X57962779Y18593229D02*
X57915160Y18688467D01*
X57915160Y18688467D02*
X57915160Y18783705D01*
X57915160Y18783705D02*
X57962779Y18878943D01*
X57962779Y18878943D02*
X58010398Y18926562D01*
X58010398Y18926562D02*
X58105636Y18974181D01*
X58105636Y18974181D02*
X58343731Y18974181D01*
X58343731Y18974181D02*
X58486588Y18926562D01*
X58915160Y17974181D02*
X58915160Y18640848D01*
X58915160Y18974181D02*
X58867541Y18926562D01*
X58867541Y18926562D02*
X58915160Y18878943D01*
X58915160Y18878943D02*
X58962779Y18926562D01*
X58962779Y18926562D02*
X58915160Y18974181D01*
X58915160Y18974181D02*
X58915160Y18878943D01*
X59534207Y17974181D02*
X59438969Y18021800D01*
X59438969Y18021800D02*
X59391350Y18117039D01*
X59391350Y18117039D02*
X59391350Y18974181D01*
X59915160Y17974181D02*
X59915160Y18974181D01*
X60010398Y18355134D02*
X60296112Y17974181D01*
X60296112Y18640848D02*
X59915160Y18259896D01*
X60677065Y18021800D02*
X60772303Y17974181D01*
X60772303Y17974181D02*
X60962779Y17974181D01*
X60962779Y17974181D02*
X61058017Y18021800D01*
X61058017Y18021800D02*
X61105636Y18117039D01*
X61105636Y18117039D02*
X61105636Y18164658D01*
X61105636Y18164658D02*
X61058017Y18259896D01*
X61058017Y18259896D02*
X60962779Y18307515D01*
X60962779Y18307515D02*
X60819922Y18307515D01*
X60819922Y18307515D02*
X60724684Y18355134D01*
X60724684Y18355134D02*
X60677065Y18450372D01*
X60677065Y18450372D02*
X60677065Y18497991D01*
X60677065Y18497991D02*
X60724684Y18593229D01*
X60724684Y18593229D02*
X60819922Y18640848D01*
X60819922Y18640848D02*
X60962779Y18640848D01*
X60962779Y18640848D02*
X61058017Y18593229D01*
X61962779Y18021800D02*
X61867541Y17974181D01*
X61867541Y17974181D02*
X61677065Y17974181D01*
X61677065Y17974181D02*
X61581827Y18021800D01*
X61581827Y18021800D02*
X61534208Y18069420D01*
X61534208Y18069420D02*
X61486589Y18164658D01*
X61486589Y18164658D02*
X61486589Y18450372D01*
X61486589Y18450372D02*
X61534208Y18545610D01*
X61534208Y18545610D02*
X61581827Y18593229D01*
X61581827Y18593229D02*
X61677065Y18640848D01*
X61677065Y18640848D02*
X61867541Y18640848D01*
X61867541Y18640848D02*
X61962779Y18593229D01*
X62391351Y17974181D02*
X62391351Y18640848D01*
X62391351Y18450372D02*
X62438970Y18545610D01*
X62438970Y18545610D02*
X62486589Y18593229D01*
X62486589Y18593229D02*
X62581827Y18640848D01*
X62581827Y18640848D02*
X62677065Y18640848D01*
X63391351Y18021800D02*
X63296113Y17974181D01*
X63296113Y17974181D02*
X63105637Y17974181D01*
X63105637Y17974181D02*
X63010399Y18021800D01*
X63010399Y18021800D02*
X62962780Y18117039D01*
X62962780Y18117039D02*
X62962780Y18497991D01*
X62962780Y18497991D02*
X63010399Y18593229D01*
X63010399Y18593229D02*
X63105637Y18640848D01*
X63105637Y18640848D02*
X63296113Y18640848D01*
X63296113Y18640848D02*
X63391351Y18593229D01*
X63391351Y18593229D02*
X63438970Y18497991D01*
X63438970Y18497991D02*
X63438970Y18402753D01*
X63438970Y18402753D02*
X62962780Y18307515D01*
X64248494Y18021800D02*
X64153256Y17974181D01*
X64153256Y17974181D02*
X63962780Y17974181D01*
X63962780Y17974181D02*
X63867542Y18021800D01*
X63867542Y18021800D02*
X63819923Y18117039D01*
X63819923Y18117039D02*
X63819923Y18497991D01*
X63819923Y18497991D02*
X63867542Y18593229D01*
X63867542Y18593229D02*
X63962780Y18640848D01*
X63962780Y18640848D02*
X64153256Y18640848D01*
X64153256Y18640848D02*
X64248494Y18593229D01*
X64248494Y18593229D02*
X64296113Y18497991D01*
X64296113Y18497991D02*
X64296113Y18402753D01*
X64296113Y18402753D02*
X63819923Y18307515D01*
X64724685Y18640848D02*
X64724685Y17974181D01*
X64724685Y18545610D02*
X64772304Y18593229D01*
X64772304Y18593229D02*
X64867542Y18640848D01*
X64867542Y18640848D02*
X65010399Y18640848D01*
X65010399Y18640848D02*
X65105637Y18593229D01*
X65105637Y18593229D02*
X65153256Y18497991D01*
X65153256Y18497991D02*
X65153256Y17974181D01*
X41500057Y9254762D02*
X41452438Y9159524D01*
X41452438Y9159524D02*
X41357200Y9064286D01*
X41357200Y9064286D02*
X41214342Y8921429D01*
X41214342Y8921429D02*
X41166723Y8826191D01*
X41166723Y8826191D02*
X41166723Y8730953D01*
X41404819Y8778572D02*
X41357200Y8683334D01*
X41357200Y8683334D02*
X41261961Y8588096D01*
X41261961Y8588096D02*
X41071485Y8540477D01*
X41071485Y8540477D02*
X40738152Y8540477D01*
X40738152Y8540477D02*
X40547676Y8588096D01*
X40547676Y8588096D02*
X40452438Y8683334D01*
X40452438Y8683334D02*
X40404819Y8778572D01*
X40404819Y8778572D02*
X40404819Y8969048D01*
X40404819Y8969048D02*
X40452438Y9064286D01*
X40452438Y9064286D02*
X40547676Y9159524D01*
X40547676Y9159524D02*
X40738152Y9207143D01*
X40738152Y9207143D02*
X41071485Y9207143D01*
X41071485Y9207143D02*
X41261961Y9159524D01*
X41261961Y9159524D02*
X41357200Y9064286D01*
X41357200Y9064286D02*
X41404819Y8969048D01*
X41404819Y8969048D02*
X41404819Y8778572D01*
X40404819Y10111905D02*
X40404819Y9635715D01*
X40404819Y9635715D02*
X40881009Y9588096D01*
X40881009Y9588096D02*
X40833390Y9635715D01*
X40833390Y9635715D02*
X40785771Y9730953D01*
X40785771Y9730953D02*
X40785771Y9969048D01*
X40785771Y9969048D02*
X40833390Y10064286D01*
X40833390Y10064286D02*
X40881009Y10111905D01*
X40881009Y10111905D02*
X40976247Y10159524D01*
X40976247Y10159524D02*
X41214342Y10159524D01*
X41214342Y10159524D02*
X41309580Y10111905D01*
X41309580Y10111905D02*
X41357200Y10064286D01*
X41357200Y10064286D02*
X41404819Y9969048D01*
X41404819Y9969048D02*
X41404819Y9730953D01*
X41404819Y9730953D02*
X41357200Y9635715D01*
X41357200Y9635715D02*
X41309580Y9588096D01*
X35900057Y6954762D02*
X35852438Y6859524D01*
X35852438Y6859524D02*
X35757200Y6764286D01*
X35757200Y6764286D02*
X35614342Y6621429D01*
X35614342Y6621429D02*
X35566723Y6526191D01*
X35566723Y6526191D02*
X35566723Y6430953D01*
X35804819Y6478572D02*
X35757200Y6383334D01*
X35757200Y6383334D02*
X35661961Y6288096D01*
X35661961Y6288096D02*
X35471485Y6240477D01*
X35471485Y6240477D02*
X35138152Y6240477D01*
X35138152Y6240477D02*
X34947676Y6288096D01*
X34947676Y6288096D02*
X34852438Y6383334D01*
X34852438Y6383334D02*
X34804819Y6478572D01*
X34804819Y6478572D02*
X34804819Y6669048D01*
X34804819Y6669048D02*
X34852438Y6764286D01*
X34852438Y6764286D02*
X34947676Y6859524D01*
X34947676Y6859524D02*
X35138152Y6907143D01*
X35138152Y6907143D02*
X35471485Y6907143D01*
X35471485Y6907143D02*
X35661961Y6859524D01*
X35661961Y6859524D02*
X35757200Y6764286D01*
X35757200Y6764286D02*
X35804819Y6669048D01*
X35804819Y6669048D02*
X35804819Y6478572D01*
X35138152Y7764286D02*
X35804819Y7764286D01*
X34757200Y7526191D02*
X35471485Y7288096D01*
X35471485Y7288096D02*
X35471485Y7907143D01*
X12400057Y6704762D02*
X12352438Y6609524D01*
X12352438Y6609524D02*
X12257200Y6514286D01*
X12257200Y6514286D02*
X12114342Y6371429D01*
X12114342Y6371429D02*
X12066723Y6276191D01*
X12066723Y6276191D02*
X12066723Y6180953D01*
X12304819Y6228572D02*
X12257200Y6133334D01*
X12257200Y6133334D02*
X12161961Y6038096D01*
X12161961Y6038096D02*
X11971485Y5990477D01*
X11971485Y5990477D02*
X11638152Y5990477D01*
X11638152Y5990477D02*
X11447676Y6038096D01*
X11447676Y6038096D02*
X11352438Y6133334D01*
X11352438Y6133334D02*
X11304819Y6228572D01*
X11304819Y6228572D02*
X11304819Y6419048D01*
X11304819Y6419048D02*
X11352438Y6514286D01*
X11352438Y6514286D02*
X11447676Y6609524D01*
X11447676Y6609524D02*
X11638152Y6657143D01*
X11638152Y6657143D02*
X11971485Y6657143D01*
X11971485Y6657143D02*
X12161961Y6609524D01*
X12161961Y6609524D02*
X12257200Y6514286D01*
X12257200Y6514286D02*
X12304819Y6419048D01*
X12304819Y6419048D02*
X12304819Y6228572D01*
X11304819Y6990477D02*
X11304819Y7609524D01*
X11304819Y7609524D02*
X11685771Y7276191D01*
X11685771Y7276191D02*
X11685771Y7419048D01*
X11685771Y7419048D02*
X11733390Y7514286D01*
X11733390Y7514286D02*
X11781009Y7561905D01*
X11781009Y7561905D02*
X11876247Y7609524D01*
X11876247Y7609524D02*
X12114342Y7609524D01*
X12114342Y7609524D02*
X12209580Y7561905D01*
X12209580Y7561905D02*
X12257200Y7514286D01*
X12257200Y7514286D02*
X12304819Y7419048D01*
X12304819Y7419048D02*
X12304819Y7133334D01*
X12304819Y7133334D02*
X12257200Y7038096D01*
X12257200Y7038096D02*
X12209580Y6990477D01*
X12350057Y10654762D02*
X12302438Y10559524D01*
X12302438Y10559524D02*
X12207200Y10464286D01*
X12207200Y10464286D02*
X12064342Y10321429D01*
X12064342Y10321429D02*
X12016723Y10226191D01*
X12016723Y10226191D02*
X12016723Y10130953D01*
X12254819Y10178572D02*
X12207200Y10083334D01*
X12207200Y10083334D02*
X12111961Y9988096D01*
X12111961Y9988096D02*
X11921485Y9940477D01*
X11921485Y9940477D02*
X11588152Y9940477D01*
X11588152Y9940477D02*
X11397676Y9988096D01*
X11397676Y9988096D02*
X11302438Y10083334D01*
X11302438Y10083334D02*
X11254819Y10178572D01*
X11254819Y10178572D02*
X11254819Y10369048D01*
X11254819Y10369048D02*
X11302438Y10464286D01*
X11302438Y10464286D02*
X11397676Y10559524D01*
X11397676Y10559524D02*
X11588152Y10607143D01*
X11588152Y10607143D02*
X11921485Y10607143D01*
X11921485Y10607143D02*
X12111961Y10559524D01*
X12111961Y10559524D02*
X12207200Y10464286D01*
X12207200Y10464286D02*
X12254819Y10369048D01*
X12254819Y10369048D02*
X12254819Y10178572D01*
X11350057Y10988096D02*
X11302438Y11035715D01*
X11302438Y11035715D02*
X11254819Y11130953D01*
X11254819Y11130953D02*
X11254819Y11369048D01*
X11254819Y11369048D02*
X11302438Y11464286D01*
X11302438Y11464286D02*
X11350057Y11511905D01*
X11350057Y11511905D02*
X11445295Y11559524D01*
X11445295Y11559524D02*
X11540533Y11559524D01*
X11540533Y11559524D02*
X11683390Y11511905D01*
X11683390Y11511905D02*
X12254819Y10940477D01*
X12254819Y10940477D02*
X12254819Y11559524D01*
X43450057Y21154762D02*
X43402438Y21059524D01*
X43402438Y21059524D02*
X43307200Y20964286D01*
X43307200Y20964286D02*
X43164342Y20821429D01*
X43164342Y20821429D02*
X43116723Y20726191D01*
X43116723Y20726191D02*
X43116723Y20630953D01*
X43354819Y20678572D02*
X43307200Y20583334D01*
X43307200Y20583334D02*
X43211961Y20488096D01*
X43211961Y20488096D02*
X43021485Y20440477D01*
X43021485Y20440477D02*
X42688152Y20440477D01*
X42688152Y20440477D02*
X42497676Y20488096D01*
X42497676Y20488096D02*
X42402438Y20583334D01*
X42402438Y20583334D02*
X42354819Y20678572D01*
X42354819Y20678572D02*
X42354819Y20869048D01*
X42354819Y20869048D02*
X42402438Y20964286D01*
X42402438Y20964286D02*
X42497676Y21059524D01*
X42497676Y21059524D02*
X42688152Y21107143D01*
X42688152Y21107143D02*
X43021485Y21107143D01*
X43021485Y21107143D02*
X43211961Y21059524D01*
X43211961Y21059524D02*
X43307200Y20964286D01*
X43307200Y20964286D02*
X43354819Y20869048D01*
X43354819Y20869048D02*
X43354819Y20678572D01*
X43354819Y22059524D02*
X43354819Y21488096D01*
X43354819Y21773810D02*
X42354819Y21773810D01*
X42354819Y21773810D02*
X42497676Y21678572D01*
X42497676Y21678572D02*
X42592914Y21583334D01*
X42592914Y21583334D02*
X42640533Y21488096D01*
X20059580Y15083334D02*
X20107200Y15035715D01*
X20107200Y15035715D02*
X20154819Y14892858D01*
X20154819Y14892858D02*
X20154819Y14797620D01*
X20154819Y14797620D02*
X20107200Y14654763D01*
X20107200Y14654763D02*
X20011961Y14559525D01*
X20011961Y14559525D02*
X19916723Y14511906D01*
X19916723Y14511906D02*
X19726247Y14464287D01*
X19726247Y14464287D02*
X19583390Y14464287D01*
X19583390Y14464287D02*
X19392914Y14511906D01*
X19392914Y14511906D02*
X19297676Y14559525D01*
X19297676Y14559525D02*
X19202438Y14654763D01*
X19202438Y14654763D02*
X19154819Y14797620D01*
X19154819Y14797620D02*
X19154819Y14892858D01*
X19154819Y14892858D02*
X19202438Y15035715D01*
X19202438Y15035715D02*
X19250057Y15083334D01*
X19250057Y15464287D02*
X19202438Y15511906D01*
X19202438Y15511906D02*
X19154819Y15607144D01*
X19154819Y15607144D02*
X19154819Y15845239D01*
X19154819Y15845239D02*
X19202438Y15940477D01*
X19202438Y15940477D02*
X19250057Y15988096D01*
X19250057Y15988096D02*
X19345295Y16035715D01*
X19345295Y16035715D02*
X19440533Y16035715D01*
X19440533Y16035715D02*
X19583390Y15988096D01*
X19583390Y15988096D02*
X20154819Y15416668D01*
X20154819Y15416668D02*
X20154819Y16035715D01*
D11*
X22438095Y27260781D02*
X22438095Y26451258D01*
X22438095Y26451258D02*
X22485714Y26356020D01*
X22485714Y26356020D02*
X22533333Y26308400D01*
X22533333Y26308400D02*
X22628571Y26260781D01*
X22628571Y26260781D02*
X22819047Y26260781D01*
X22819047Y26260781D02*
X22914285Y26308400D01*
X22914285Y26308400D02*
X22961904Y26356020D01*
X22961904Y26356020D02*
X23009523Y26451258D01*
X23009523Y26451258D02*
X23009523Y27260781D01*
X24009523Y26260781D02*
X23438095Y26260781D01*
X23723809Y26260781D02*
X23723809Y27260781D01*
X23723809Y27260781D02*
X23628571Y27117924D01*
X23628571Y27117924D02*
X23533333Y27022686D01*
X23533333Y27022686D02*
X23438095Y26975067D01*
D10*
X18204819Y9183334D02*
X17728628Y8850001D01*
X18204819Y8611906D02*
X17204819Y8611906D01*
X17204819Y8611906D02*
X17204819Y8992858D01*
X17204819Y8992858D02*
X17252438Y9088096D01*
X17252438Y9088096D02*
X17300057Y9135715D01*
X17300057Y9135715D02*
X17395295Y9183334D01*
X17395295Y9183334D02*
X17538152Y9183334D01*
X17538152Y9183334D02*
X17633390Y9135715D01*
X17633390Y9135715D02*
X17681009Y9088096D01*
X17681009Y9088096D02*
X17728628Y8992858D01*
X17728628Y8992858D02*
X17728628Y8611906D01*
X17204819Y9516668D02*
X17204819Y10183334D01*
X17204819Y10183334D02*
X18204819Y9754763D01*
X36054819Y25661906D02*
X35054819Y25661906D01*
X35054819Y25661906D02*
X35054819Y25900001D01*
X35054819Y25900001D02*
X35102438Y26042858D01*
X35102438Y26042858D02*
X35197676Y26138096D01*
X35197676Y26138096D02*
X35292914Y26185715D01*
X35292914Y26185715D02*
X35483390Y26233334D01*
X35483390Y26233334D02*
X35626247Y26233334D01*
X35626247Y26233334D02*
X35816723Y26185715D01*
X35816723Y26185715D02*
X35911961Y26138096D01*
X35911961Y26138096D02*
X36007200Y26042858D01*
X36007200Y26042858D02*
X36054819Y25900001D01*
X36054819Y25900001D02*
X36054819Y25661906D01*
X36054819Y27185715D02*
X36054819Y26614287D01*
X36054819Y26900001D02*
X35054819Y26900001D01*
X35054819Y26900001D02*
X35197676Y26804763D01*
X35197676Y26804763D02*
X35292914Y26709525D01*
X35292914Y26709525D02*
X35340533Y26614287D01*
D11*
X22438095Y21217581D02*
X22438095Y20408058D01*
X22438095Y20408058D02*
X22485714Y20312820D01*
X22485714Y20312820D02*
X22533333Y20265200D01*
X22533333Y20265200D02*
X22628571Y20217581D01*
X22628571Y20217581D02*
X22819047Y20217581D01*
X22819047Y20217581D02*
X22914285Y20265200D01*
X22914285Y20265200D02*
X22961904Y20312820D01*
X22961904Y20312820D02*
X23009523Y20408058D01*
X23009523Y20408058D02*
X23009523Y21217581D01*
X23438095Y21122343D02*
X23485714Y21169962D01*
X23485714Y21169962D02*
X23580952Y21217581D01*
X23580952Y21217581D02*
X23819047Y21217581D01*
X23819047Y21217581D02*
X23914285Y21169962D01*
X23914285Y21169962D02*
X23961904Y21122343D01*
X23961904Y21122343D02*
X24009523Y21027105D01*
X24009523Y21027105D02*
X24009523Y20931867D01*
X24009523Y20931867D02*
X23961904Y20789010D01*
X23961904Y20789010D02*
X23390476Y20217581D01*
X23390476Y20217581D02*
X24009523Y20217581D01*
D10*
X38404819Y20933334D02*
X37928628Y20600001D01*
X38404819Y20361906D02*
X37404819Y20361906D01*
X37404819Y20361906D02*
X37404819Y20742858D01*
X37404819Y20742858D02*
X37452438Y20838096D01*
X37452438Y20838096D02*
X37500057Y20885715D01*
X37500057Y20885715D02*
X37595295Y20933334D01*
X37595295Y20933334D02*
X37738152Y20933334D01*
X37738152Y20933334D02*
X37833390Y20885715D01*
X37833390Y20885715D02*
X37881009Y20838096D01*
X37881009Y20838096D02*
X37928628Y20742858D01*
X37928628Y20742858D02*
X37928628Y20361906D01*
X37738152Y21790477D02*
X38404819Y21790477D01*
X37357200Y21552382D02*
X38071485Y21314287D01*
X38071485Y21314287D02*
X38071485Y21933334D01*
X42304819Y2157143D02*
X41828628Y1823810D01*
X42304819Y1585715D02*
X41304819Y1585715D01*
X41304819Y1585715D02*
X41304819Y1966667D01*
X41304819Y1966667D02*
X41352438Y2061905D01*
X41352438Y2061905D02*
X41400057Y2109524D01*
X41400057Y2109524D02*
X41495295Y2157143D01*
X41495295Y2157143D02*
X41638152Y2157143D01*
X41638152Y2157143D02*
X41733390Y2109524D01*
X41733390Y2109524D02*
X41781009Y2061905D01*
X41781009Y2061905D02*
X41828628Y1966667D01*
X41828628Y1966667D02*
X41828628Y1585715D01*
X42304819Y3109524D02*
X42304819Y2538096D01*
X42304819Y2823810D02*
X41304819Y2823810D01*
X41304819Y2823810D02*
X41447676Y2728572D01*
X41447676Y2728572D02*
X41542914Y2633334D01*
X41542914Y2633334D02*
X41590533Y2538096D01*
X41304819Y3728572D02*
X41304819Y3823810D01*
X41304819Y3823810D02*
X41352438Y3919048D01*
X41352438Y3919048D02*
X41400057Y3966667D01*
X41400057Y3966667D02*
X41495295Y4014286D01*
X41495295Y4014286D02*
X41685771Y4061905D01*
X41685771Y4061905D02*
X41923866Y4061905D01*
X41923866Y4061905D02*
X42114342Y4014286D01*
X42114342Y4014286D02*
X42209580Y3966667D01*
X42209580Y3966667D02*
X42257200Y3919048D01*
X42257200Y3919048D02*
X42304819Y3823810D01*
X42304819Y3823810D02*
X42304819Y3728572D01*
X42304819Y3728572D02*
X42257200Y3633334D01*
X42257200Y3633334D02*
X42209580Y3585715D01*
X42209580Y3585715D02*
X42114342Y3538096D01*
X42114342Y3538096D02*
X41923866Y3490477D01*
X41923866Y3490477D02*
X41685771Y3490477D01*
X41685771Y3490477D02*
X41495295Y3538096D01*
X41495295Y3538096D02*
X41400057Y3585715D01*
X41400057Y3585715D02*
X41352438Y3633334D01*
X41352438Y3633334D02*
X41304819Y3728572D01*
X10054819Y2466667D02*
X10769104Y2466667D01*
X10769104Y2466667D02*
X10911961Y2419048D01*
X10911961Y2419048D02*
X11007200Y2323810D01*
X11007200Y2323810D02*
X11054819Y2180953D01*
X11054819Y2180953D02*
X11054819Y2085715D01*
X11054819Y3466667D02*
X11054819Y2895239D01*
X11054819Y3180953D02*
X10054819Y3180953D01*
X10054819Y3180953D02*
X10197676Y3085715D01*
X10197676Y3085715D02*
X10292914Y2990477D01*
X10292914Y2990477D02*
X10340533Y2895239D01*
X39604819Y13233334D02*
X39128628Y12900001D01*
X39604819Y12661906D02*
X38604819Y12661906D01*
X38604819Y12661906D02*
X38604819Y13042858D01*
X38604819Y13042858D02*
X38652438Y13138096D01*
X38652438Y13138096D02*
X38700057Y13185715D01*
X38700057Y13185715D02*
X38795295Y13233334D01*
X38795295Y13233334D02*
X38938152Y13233334D01*
X38938152Y13233334D02*
X39033390Y13185715D01*
X39033390Y13185715D02*
X39081009Y13138096D01*
X39081009Y13138096D02*
X39128628Y13042858D01*
X39128628Y13042858D02*
X39128628Y12661906D01*
X38604819Y14090477D02*
X38604819Y13900001D01*
X38604819Y13900001D02*
X38652438Y13804763D01*
X38652438Y13804763D02*
X38700057Y13757144D01*
X38700057Y13757144D02*
X38842914Y13661906D01*
X38842914Y13661906D02*
X39033390Y13614287D01*
X39033390Y13614287D02*
X39414342Y13614287D01*
X39414342Y13614287D02*
X39509580Y13661906D01*
X39509580Y13661906D02*
X39557200Y13709525D01*
X39557200Y13709525D02*
X39604819Y13804763D01*
X39604819Y13804763D02*
X39604819Y13995239D01*
X39604819Y13995239D02*
X39557200Y14090477D01*
X39557200Y14090477D02*
X39509580Y14138096D01*
X39509580Y14138096D02*
X39414342Y14185715D01*
X39414342Y14185715D02*
X39176247Y14185715D01*
X39176247Y14185715D02*
X39081009Y14138096D01*
X39081009Y14138096D02*
X39033390Y14090477D01*
X39033390Y14090477D02*
X38985771Y13995239D01*
X38985771Y13995239D02*
X38985771Y13804763D01*
X38985771Y13804763D02*
X39033390Y13709525D01*
X39033390Y13709525D02*
X39081009Y13661906D01*
X39081009Y13661906D02*
X39176247Y13614287D01*
X18354819Y15020834D02*
X17878628Y14687501D01*
X18354819Y14449406D02*
X17354819Y14449406D01*
X17354819Y14449406D02*
X17354819Y14830358D01*
X17354819Y14830358D02*
X17402438Y14925596D01*
X17402438Y14925596D02*
X17450057Y14973215D01*
X17450057Y14973215D02*
X17545295Y15020834D01*
X17545295Y15020834D02*
X17688152Y15020834D01*
X17688152Y15020834D02*
X17783390Y14973215D01*
X17783390Y14973215D02*
X17831009Y14925596D01*
X17831009Y14925596D02*
X17878628Y14830358D01*
X17878628Y14830358D02*
X17878628Y14449406D01*
X18354819Y15497025D02*
X18354819Y15687501D01*
X18354819Y15687501D02*
X18307200Y15782739D01*
X18307200Y15782739D02*
X18259580Y15830358D01*
X18259580Y15830358D02*
X18116723Y15925596D01*
X18116723Y15925596D02*
X17926247Y15973215D01*
X17926247Y15973215D02*
X17545295Y15973215D01*
X17545295Y15973215D02*
X17450057Y15925596D01*
X17450057Y15925596D02*
X17402438Y15877977D01*
X17402438Y15877977D02*
X17354819Y15782739D01*
X17354819Y15782739D02*
X17354819Y15592263D01*
X17354819Y15592263D02*
X17402438Y15497025D01*
X17402438Y15497025D02*
X17450057Y15449406D01*
X17450057Y15449406D02*
X17545295Y15401787D01*
X17545295Y15401787D02*
X17783390Y15401787D01*
X17783390Y15401787D02*
X17878628Y15449406D01*
X17878628Y15449406D02*
X17926247Y15497025D01*
X17926247Y15497025D02*
X17973866Y15592263D01*
X17973866Y15592263D02*
X17973866Y15782739D01*
X17973866Y15782739D02*
X17926247Y15877977D01*
X17926247Y15877977D02*
X17878628Y15925596D01*
X17878628Y15925596D02*
X17783390Y15973215D01*
X36704819Y20933334D02*
X36228628Y20600001D01*
X36704819Y20361906D02*
X35704819Y20361906D01*
X35704819Y20361906D02*
X35704819Y20742858D01*
X35704819Y20742858D02*
X35752438Y20838096D01*
X35752438Y20838096D02*
X35800057Y20885715D01*
X35800057Y20885715D02*
X35895295Y20933334D01*
X35895295Y20933334D02*
X36038152Y20933334D01*
X36038152Y20933334D02*
X36133390Y20885715D01*
X36133390Y20885715D02*
X36181009Y20838096D01*
X36181009Y20838096D02*
X36228628Y20742858D01*
X36228628Y20742858D02*
X36228628Y20361906D01*
X35704819Y21266668D02*
X35704819Y21885715D01*
X35704819Y21885715D02*
X36085771Y21552382D01*
X36085771Y21552382D02*
X36085771Y21695239D01*
X36085771Y21695239D02*
X36133390Y21790477D01*
X36133390Y21790477D02*
X36181009Y21838096D01*
X36181009Y21838096D02*
X36276247Y21885715D01*
X36276247Y21885715D02*
X36514342Y21885715D01*
X36514342Y21885715D02*
X36609580Y21838096D01*
X36609580Y21838096D02*
X36657200Y21790477D01*
X36657200Y21790477D02*
X36704819Y21695239D01*
X36704819Y21695239D02*
X36704819Y21409525D01*
X36704819Y21409525D02*
X36657200Y21314287D01*
X36657200Y21314287D02*
X36609580Y21266668D01*
X33559580Y26533334D02*
X33607200Y26485715D01*
X33607200Y26485715D02*
X33654819Y26342858D01*
X33654819Y26342858D02*
X33654819Y26247620D01*
X33654819Y26247620D02*
X33607200Y26104763D01*
X33607200Y26104763D02*
X33511961Y26009525D01*
X33511961Y26009525D02*
X33416723Y25961906D01*
X33416723Y25961906D02*
X33226247Y25914287D01*
X33226247Y25914287D02*
X33083390Y25914287D01*
X33083390Y25914287D02*
X32892914Y25961906D01*
X32892914Y25961906D02*
X32797676Y26009525D01*
X32797676Y26009525D02*
X32702438Y26104763D01*
X32702438Y26104763D02*
X32654819Y26247620D01*
X32654819Y26247620D02*
X32654819Y26342858D01*
X32654819Y26342858D02*
X32702438Y26485715D01*
X32702438Y26485715D02*
X32750057Y26533334D01*
X33654819Y27485715D02*
X33654819Y26914287D01*
X33654819Y27200001D02*
X32654819Y27200001D01*
X32654819Y27200001D02*
X32797676Y27104763D01*
X32797676Y27104763D02*
X32892914Y27009525D01*
X32892914Y27009525D02*
X32940533Y26914287D01*
X34854819Y14561906D02*
X33854819Y14561906D01*
X33854819Y14561906D02*
X33854819Y14800001D01*
X33854819Y14800001D02*
X33902438Y14942858D01*
X33902438Y14942858D02*
X33997676Y15038096D01*
X33997676Y15038096D02*
X34092914Y15085715D01*
X34092914Y15085715D02*
X34283390Y15133334D01*
X34283390Y15133334D02*
X34426247Y15133334D01*
X34426247Y15133334D02*
X34616723Y15085715D01*
X34616723Y15085715D02*
X34711961Y15038096D01*
X34711961Y15038096D02*
X34807200Y14942858D01*
X34807200Y14942858D02*
X34854819Y14800001D01*
X34854819Y14800001D02*
X34854819Y14561906D01*
X33950057Y15514287D02*
X33902438Y15561906D01*
X33902438Y15561906D02*
X33854819Y15657144D01*
X33854819Y15657144D02*
X33854819Y15895239D01*
X33854819Y15895239D02*
X33902438Y15990477D01*
X33902438Y15990477D02*
X33950057Y16038096D01*
X33950057Y16038096D02*
X34045295Y16085715D01*
X34045295Y16085715D02*
X34140533Y16085715D01*
X34140533Y16085715D02*
X34283390Y16038096D01*
X34283390Y16038096D02*
X34854819Y15466668D01*
X34854819Y15466668D02*
X34854819Y16085715D01*
D11*
X22438095Y9260781D02*
X22438095Y8451258D01*
X22438095Y8451258D02*
X22485714Y8356020D01*
X22485714Y8356020D02*
X22533333Y8308400D01*
X22533333Y8308400D02*
X22628571Y8260781D01*
X22628571Y8260781D02*
X22819047Y8260781D01*
X22819047Y8260781D02*
X22914285Y8308400D01*
X22914285Y8308400D02*
X22961904Y8356020D01*
X22961904Y8356020D02*
X23009523Y8451258D01*
X23009523Y8451258D02*
X23009523Y9260781D01*
X23914285Y8927448D02*
X23914285Y8260781D01*
X23676190Y9308400D02*
X23438095Y8594115D01*
X23438095Y8594115D02*
X24057142Y8594115D01*
D10*
X38154819Y13233334D02*
X37678628Y12900001D01*
X38154819Y12661906D02*
X37154819Y12661906D01*
X37154819Y12661906D02*
X37154819Y13042858D01*
X37154819Y13042858D02*
X37202438Y13138096D01*
X37202438Y13138096D02*
X37250057Y13185715D01*
X37250057Y13185715D02*
X37345295Y13233334D01*
X37345295Y13233334D02*
X37488152Y13233334D01*
X37488152Y13233334D02*
X37583390Y13185715D01*
X37583390Y13185715D02*
X37631009Y13138096D01*
X37631009Y13138096D02*
X37678628Y13042858D01*
X37678628Y13042858D02*
X37678628Y12661906D01*
X37154819Y14138096D02*
X37154819Y13661906D01*
X37154819Y13661906D02*
X37631009Y13614287D01*
X37631009Y13614287D02*
X37583390Y13661906D01*
X37583390Y13661906D02*
X37535771Y13757144D01*
X37535771Y13757144D02*
X37535771Y13995239D01*
X37535771Y13995239D02*
X37583390Y14090477D01*
X37583390Y14090477D02*
X37631009Y14138096D01*
X37631009Y14138096D02*
X37726247Y14185715D01*
X37726247Y14185715D02*
X37964342Y14185715D01*
X37964342Y14185715D02*
X38059580Y14138096D01*
X38059580Y14138096D02*
X38107200Y14090477D01*
X38107200Y14090477D02*
X38154819Y13995239D01*
X38154819Y13995239D02*
X38154819Y13757144D01*
X38154819Y13757144D02*
X38107200Y13661906D01*
X38107200Y13661906D02*
X38059580Y13614287D01*
X13166819Y21161334D02*
X12690628Y20828001D01*
X13166819Y20589906D02*
X12166819Y20589906D01*
X12166819Y20589906D02*
X12166819Y20970858D01*
X12166819Y20970858D02*
X12214438Y21066096D01*
X12214438Y21066096D02*
X12262057Y21113715D01*
X12262057Y21113715D02*
X12357295Y21161334D01*
X12357295Y21161334D02*
X12500152Y21161334D01*
X12500152Y21161334D02*
X12595390Y21113715D01*
X12595390Y21113715D02*
X12643009Y21066096D01*
X12643009Y21066096D02*
X12690628Y20970858D01*
X12690628Y20970858D02*
X12690628Y20589906D01*
X13166819Y22113715D02*
X13166819Y21542287D01*
X13166819Y21828001D02*
X12166819Y21828001D01*
X12166819Y21828001D02*
X12309676Y21732763D01*
X12309676Y21732763D02*
X12404914Y21637525D01*
X12404914Y21637525D02*
X12452533Y21542287D01*
X33659580Y3033334D02*
X33707200Y2985715D01*
X33707200Y2985715D02*
X33754819Y2842858D01*
X33754819Y2842858D02*
X33754819Y2747620D01*
X33754819Y2747620D02*
X33707200Y2604763D01*
X33707200Y2604763D02*
X33611961Y2509525D01*
X33611961Y2509525D02*
X33516723Y2461906D01*
X33516723Y2461906D02*
X33326247Y2414287D01*
X33326247Y2414287D02*
X33183390Y2414287D01*
X33183390Y2414287D02*
X32992914Y2461906D01*
X32992914Y2461906D02*
X32897676Y2509525D01*
X32897676Y2509525D02*
X32802438Y2604763D01*
X32802438Y2604763D02*
X32754819Y2747620D01*
X32754819Y2747620D02*
X32754819Y2842858D01*
X32754819Y2842858D02*
X32802438Y2985715D01*
X32802438Y2985715D02*
X32850057Y3033334D01*
X33088152Y3890477D02*
X33754819Y3890477D01*
X32707200Y3652382D02*
X33421485Y3414287D01*
X33421485Y3414287D02*
X33421485Y4033334D01*
X16554819Y14970834D02*
X16078628Y14637501D01*
X16554819Y14399406D02*
X15554819Y14399406D01*
X15554819Y14399406D02*
X15554819Y14780358D01*
X15554819Y14780358D02*
X15602438Y14875596D01*
X15602438Y14875596D02*
X15650057Y14923215D01*
X15650057Y14923215D02*
X15745295Y14970834D01*
X15745295Y14970834D02*
X15888152Y14970834D01*
X15888152Y14970834D02*
X15983390Y14923215D01*
X15983390Y14923215D02*
X16031009Y14875596D01*
X16031009Y14875596D02*
X16078628Y14780358D01*
X16078628Y14780358D02*
X16078628Y14399406D01*
X15983390Y15542263D02*
X15935771Y15447025D01*
X15935771Y15447025D02*
X15888152Y15399406D01*
X15888152Y15399406D02*
X15792914Y15351787D01*
X15792914Y15351787D02*
X15745295Y15351787D01*
X15745295Y15351787D02*
X15650057Y15399406D01*
X15650057Y15399406D02*
X15602438Y15447025D01*
X15602438Y15447025D02*
X15554819Y15542263D01*
X15554819Y15542263D02*
X15554819Y15732739D01*
X15554819Y15732739D02*
X15602438Y15827977D01*
X15602438Y15827977D02*
X15650057Y15875596D01*
X15650057Y15875596D02*
X15745295Y15923215D01*
X15745295Y15923215D02*
X15792914Y15923215D01*
X15792914Y15923215D02*
X15888152Y15875596D01*
X15888152Y15875596D02*
X15935771Y15827977D01*
X15935771Y15827977D02*
X15983390Y15732739D01*
X15983390Y15732739D02*
X15983390Y15542263D01*
X15983390Y15542263D02*
X16031009Y15447025D01*
X16031009Y15447025D02*
X16078628Y15399406D01*
X16078628Y15399406D02*
X16173866Y15351787D01*
X16173866Y15351787D02*
X16364342Y15351787D01*
X16364342Y15351787D02*
X16459580Y15399406D01*
X16459580Y15399406D02*
X16507200Y15447025D01*
X16507200Y15447025D02*
X16554819Y15542263D01*
X16554819Y15542263D02*
X16554819Y15732739D01*
X16554819Y15732739D02*
X16507200Y15827977D01*
X16507200Y15827977D02*
X16459580Y15875596D01*
X16459580Y15875596D02*
X16364342Y15923215D01*
X16364342Y15923215D02*
X16173866Y15923215D01*
X16173866Y15923215D02*
X16078628Y15875596D01*
X16078628Y15875596D02*
X16031009Y15827977D01*
X16031009Y15827977D02*
X15983390Y15732739D01*
X18954819Y1761906D02*
X17954819Y1761906D01*
X17954819Y1761906D02*
X17954819Y2000001D01*
X17954819Y2000001D02*
X18002438Y2142858D01*
X18002438Y2142858D02*
X18097676Y2238096D01*
X18097676Y2238096D02*
X18192914Y2285715D01*
X18192914Y2285715D02*
X18383390Y2333334D01*
X18383390Y2333334D02*
X18526247Y2333334D01*
X18526247Y2333334D02*
X18716723Y2285715D01*
X18716723Y2285715D02*
X18811961Y2238096D01*
X18811961Y2238096D02*
X18907200Y2142858D01*
X18907200Y2142858D02*
X18954819Y2000001D01*
X18954819Y2000001D02*
X18954819Y1761906D01*
X17954819Y2666668D02*
X17954819Y3285715D01*
X17954819Y3285715D02*
X18335771Y2952382D01*
X18335771Y2952382D02*
X18335771Y3095239D01*
X18335771Y3095239D02*
X18383390Y3190477D01*
X18383390Y3190477D02*
X18431009Y3238096D01*
X18431009Y3238096D02*
X18526247Y3285715D01*
X18526247Y3285715D02*
X18764342Y3285715D01*
X18764342Y3285715D02*
X18859580Y3238096D01*
X18859580Y3238096D02*
X18907200Y3190477D01*
X18907200Y3190477D02*
X18954819Y3095239D01*
X18954819Y3095239D02*
X18954819Y2809525D01*
X18954819Y2809525D02*
X18907200Y2714287D01*
X18907200Y2714287D02*
X18859580Y2666668D01*
D11*
X22438095Y15317581D02*
X22438095Y14508058D01*
X22438095Y14508058D02*
X22485714Y14412820D01*
X22485714Y14412820D02*
X22533333Y14365200D01*
X22533333Y14365200D02*
X22628571Y14317581D01*
X22628571Y14317581D02*
X22819047Y14317581D01*
X22819047Y14317581D02*
X22914285Y14365200D01*
X22914285Y14365200D02*
X22961904Y14412820D01*
X22961904Y14412820D02*
X23009523Y14508058D01*
X23009523Y14508058D02*
X23009523Y15317581D01*
X23390476Y15317581D02*
X24009523Y15317581D01*
X24009523Y15317581D02*
X23676190Y14936629D01*
X23676190Y14936629D02*
X23819047Y14936629D01*
X23819047Y14936629D02*
X23914285Y14889010D01*
X23914285Y14889010D02*
X23961904Y14841391D01*
X23961904Y14841391D02*
X24009523Y14746153D01*
X24009523Y14746153D02*
X24009523Y14508058D01*
X24009523Y14508058D02*
X23961904Y14412820D01*
X23961904Y14412820D02*
X23914285Y14365200D01*
X23914285Y14365200D02*
X23819047Y14317581D01*
X23819047Y14317581D02*
X23533333Y14317581D01*
X23533333Y14317581D02*
X23438095Y14365200D01*
X23438095Y14365200D02*
X23390476Y14412820D01*
D10*
X14690819Y21161334D02*
X14214628Y20828001D01*
X14690819Y20589906D02*
X13690819Y20589906D01*
X13690819Y20589906D02*
X13690819Y20970858D01*
X13690819Y20970858D02*
X13738438Y21066096D01*
X13738438Y21066096D02*
X13786057Y21113715D01*
X13786057Y21113715D02*
X13881295Y21161334D01*
X13881295Y21161334D02*
X14024152Y21161334D01*
X14024152Y21161334D02*
X14119390Y21113715D01*
X14119390Y21113715D02*
X14167009Y21066096D01*
X14167009Y21066096D02*
X14214628Y20970858D01*
X14214628Y20970858D02*
X14214628Y20589906D01*
X13786057Y21542287D02*
X13738438Y21589906D01*
X13738438Y21589906D02*
X13690819Y21685144D01*
X13690819Y21685144D02*
X13690819Y21923239D01*
X13690819Y21923239D02*
X13738438Y22018477D01*
X13738438Y22018477D02*
X13786057Y22066096D01*
X13786057Y22066096D02*
X13881295Y22113715D01*
X13881295Y22113715D02*
X13976533Y22113715D01*
X13976533Y22113715D02*
X14119390Y22066096D01*
X14119390Y22066096D02*
X14690819Y21494668D01*
X14690819Y21494668D02*
X14690819Y22113715D01*
X20059580Y9233334D02*
X20107200Y9185715D01*
X20107200Y9185715D02*
X20154819Y9042858D01*
X20154819Y9042858D02*
X20154819Y8947620D01*
X20154819Y8947620D02*
X20107200Y8804763D01*
X20107200Y8804763D02*
X20011961Y8709525D01*
X20011961Y8709525D02*
X19916723Y8661906D01*
X19916723Y8661906D02*
X19726247Y8614287D01*
X19726247Y8614287D02*
X19583390Y8614287D01*
X19583390Y8614287D02*
X19392914Y8661906D01*
X19392914Y8661906D02*
X19297676Y8709525D01*
X19297676Y8709525D02*
X19202438Y8804763D01*
X19202438Y8804763D02*
X19154819Y8947620D01*
X19154819Y8947620D02*
X19154819Y9042858D01*
X19154819Y9042858D02*
X19202438Y9185715D01*
X19202438Y9185715D02*
X19250057Y9233334D01*
X19154819Y9566668D02*
X19154819Y10185715D01*
X19154819Y10185715D02*
X19535771Y9852382D01*
X19535771Y9852382D02*
X19535771Y9995239D01*
X19535771Y9995239D02*
X19583390Y10090477D01*
X19583390Y10090477D02*
X19631009Y10138096D01*
X19631009Y10138096D02*
X19726247Y10185715D01*
X19726247Y10185715D02*
X19964342Y10185715D01*
X19964342Y10185715D02*
X20059580Y10138096D01*
X20059580Y10138096D02*
X20107200Y10090477D01*
X20107200Y10090477D02*
X20154819Y9995239D01*
X20154819Y9995239D02*
X20154819Y9709525D01*
X20154819Y9709525D02*
X20107200Y9614287D01*
X20107200Y9614287D02*
X20059580Y9566668D01*
D12*
%TO.C,Q5*%
X38200000Y8640000D02*
X39875000Y8640000D01*
X38200000Y8640000D02*
X37550000Y8640000D01*
X38200000Y11760000D02*
X38850000Y11760000D01*
X38200000Y11760000D02*
X37550000Y11760000D01*
%TO.C,Q4*%
X38200000Y7760000D02*
X36525000Y7760000D01*
X38200000Y7760000D02*
X38850000Y7760000D01*
X38200000Y4640000D02*
X37550000Y4640000D01*
X38200000Y4640000D02*
X38850000Y4640000D01*
%TO.C,Q3*%
X14537500Y9210000D02*
X12862500Y9210000D01*
X14537500Y9210000D02*
X15187500Y9210000D01*
X14537500Y6090000D02*
X13887500Y6090000D01*
X14537500Y6090000D02*
X15187500Y6090000D01*
%TO.C,Q2*%
X14500000Y13160000D02*
X12825000Y13160000D01*
X14500000Y13160000D02*
X15150000Y13160000D01*
X14500000Y10040000D02*
X13850000Y10040000D01*
X14500000Y10040000D02*
X15150000Y10040000D01*
%TO.C,Q1*%
X41500000Y16840000D02*
X43175000Y16840000D01*
X41500000Y16840000D02*
X40850000Y16840000D01*
X41500000Y19960000D02*
X42150000Y19960000D01*
X41500000Y19960000D02*
X40850000Y19960000D01*
%TO.C,C2*%
X20172500Y17695276D02*
X20172500Y18204724D01*
X19127500Y17695276D02*
X19127500Y18204724D01*
D11*
%TO.C,U1*%
X22690000Y25905400D02*
X30310000Y25905400D01*
X22690000Y22095400D02*
X22690000Y25905400D01*
X30310000Y25905400D02*
X30310000Y22095400D01*
X30310000Y22095400D02*
X22690000Y22095400D01*
D12*
%TO.C,R7*%
X17177500Y11695276D02*
X17177500Y12204724D01*
X18222500Y11695276D02*
X18222500Y12204724D01*
%TO.C,D1*%
X34940000Y25000000D02*
X34940000Y23000000D01*
X34940000Y25000000D02*
X38950000Y25000000D01*
X34940000Y23000000D02*
X38950000Y23000000D01*
D11*
%TO.C,U2*%
X30310000Y16044600D02*
X22690000Y16044600D01*
X30310000Y19854600D02*
X30310000Y16044600D01*
X22690000Y16044600D02*
X22690000Y19854600D01*
X22690000Y19854600D02*
X30310000Y19854600D01*
D12*
%TO.C,R4*%
X38422500Y18654724D02*
X38422500Y18145276D01*
X37377500Y18654724D02*
X37377500Y18145276D01*
%TO.C,R10*%
X42422500Y6354724D02*
X42422500Y5845276D01*
X41377500Y6354724D02*
X41377500Y5845276D01*
D11*
%TO.C,J1*%
X9734000Y12768000D02*
X11004000Y12768000D01*
X11004000Y12768000D02*
X11004000Y16882800D01*
X11004000Y16882800D02*
X9734000Y16882800D01*
X9734000Y16882800D02*
X9734000Y12768000D01*
D12*
X1148800Y2252400D02*
X1148800Y27347600D01*
X9683200Y27347600D02*
X1190400Y27347600D01*
X9683200Y2252400D02*
X1190400Y2252400D01*
X9683200Y2252400D02*
X9683200Y27347600D01*
D11*
X9734000Y7180000D02*
X10851600Y8297600D01*
X9734000Y7180000D02*
X10851600Y6062400D01*
X10851600Y6062400D02*
X10851600Y8297600D01*
D12*
%TO.C,R6*%
X43022500Y14554724D02*
X43022500Y14045276D01*
X41977500Y14554724D02*
X41977500Y14045276D01*
%TO.C,R9*%
X17277500Y18242224D02*
X17277500Y17732776D01*
X18322500Y18242224D02*
X18322500Y17732776D01*
%TO.C,R3*%
X36622500Y18654724D02*
X36622500Y18145276D01*
X35577500Y18654724D02*
X35577500Y18145276D01*
%TO.C,C1*%
X33772500Y24204724D02*
X33772500Y23695276D01*
X32727500Y24204724D02*
X32727500Y23695276D01*
%TO.C,D2*%
X33400000Y9540000D02*
X35400000Y9540000D01*
X33400000Y9540000D02*
X33400000Y13550000D01*
X35400000Y9540000D02*
X35400000Y13550000D01*
D11*
%TO.C,U4*%
X22690000Y7905400D02*
X30310000Y7905400D01*
X22690000Y4095400D02*
X22690000Y7905400D01*
X30310000Y7905400D02*
X30310000Y4095400D01*
X30310000Y4095400D02*
X22690000Y4095400D01*
D12*
%TO.C,R5*%
X41122500Y14554724D02*
X41122500Y14045276D01*
X40077500Y14554724D02*
X40077500Y14045276D01*
%TO.C,R1*%
X16522500Y22304724D02*
X16522500Y21795276D01*
X15477500Y22304724D02*
X15477500Y21795276D01*
%TO.C,C4*%
X33872500Y6254724D02*
X33872500Y5745276D01*
X32827500Y6254724D02*
X32827500Y5745276D01*
%TO.C,R8*%
X15477500Y18242224D02*
X15477500Y17732776D01*
X16522500Y18242224D02*
X16522500Y17732776D01*
%TO.C,D3*%
X19500000Y8360000D02*
X17500000Y8360000D01*
X19500000Y8360000D02*
X19500000Y4350000D01*
X17500000Y8360000D02*
X17500000Y4350000D01*
D11*
%TO.C,U3*%
X30310000Y10044600D02*
X22690000Y10044600D01*
X30310000Y13854600D02*
X30310000Y10044600D01*
X22690000Y10044600D02*
X22690000Y13854600D01*
X22690000Y13854600D02*
X30310000Y13854600D01*
D12*
%TO.C,R2*%
X17277500Y21795276D02*
X17277500Y22304724D01*
X18322500Y21795276D02*
X18322500Y22304724D01*
%TO.C,C3*%
X19127500Y11695276D02*
X19127500Y12204724D01*
X20172500Y11695276D02*
X20172500Y12204724D01*
%TD*%
M02*
