%TF.GenerationSoftware,KiCad,Pcbnew,7.0.10*%
%TF.CreationDate,2024-10-22T16:13:00+01:00*%
%TF.ProjectId,RL78I1C_PMOD_PROG_ADAPTOR_ISO,524c3738-4931-4435-9f50-4d4f445f5052,0*%
%TF.SameCoordinates,PX58b5f60PY7997ee0*%
%TF.FileFunction,Legend,Top*%
%TF.FilePolarity,Positive*%
%FSLAX46Y46*%
G04 Gerber Fmt 4.6, Leading zero omitted, Abs format (unit mm)*
G04 Created by KiCad (PCBNEW 7.0.10) date 2024-10-22 16:13:00*
%MOMM*%
%LPD*%
G01*
G04 APERTURE LIST*
%ADD10C,0.150000*%
%ADD11C,0.100000*%
%ADD12C,0.120000*%
G04 APERTURE END LIST*
D10*
X60895160Y18021800D02*
X61038017Y17974181D01*
X61038017Y17974181D02*
X61276112Y17974181D01*
X61276112Y17974181D02*
X61371350Y18021800D01*
X61371350Y18021800D02*
X61418969Y18069420D01*
X61418969Y18069420D02*
X61466588Y18164658D01*
X61466588Y18164658D02*
X61466588Y18259896D01*
X61466588Y18259896D02*
X61418969Y18355134D01*
X61418969Y18355134D02*
X61371350Y18402753D01*
X61371350Y18402753D02*
X61276112Y18450372D01*
X61276112Y18450372D02*
X61085636Y18497991D01*
X61085636Y18497991D02*
X60990398Y18545610D01*
X60990398Y18545610D02*
X60942779Y18593229D01*
X60942779Y18593229D02*
X60895160Y18688467D01*
X60895160Y18688467D02*
X60895160Y18783705D01*
X60895160Y18783705D02*
X60942779Y18878943D01*
X60942779Y18878943D02*
X60990398Y18926562D01*
X60990398Y18926562D02*
X61085636Y18974181D01*
X61085636Y18974181D02*
X61323731Y18974181D01*
X61323731Y18974181D02*
X61466588Y18926562D01*
X61895160Y17974181D02*
X61895160Y18640848D01*
X61895160Y18974181D02*
X61847541Y18926562D01*
X61847541Y18926562D02*
X61895160Y18878943D01*
X61895160Y18878943D02*
X61942779Y18926562D01*
X61942779Y18926562D02*
X61895160Y18974181D01*
X61895160Y18974181D02*
X61895160Y18878943D01*
X62514207Y17974181D02*
X62418969Y18021800D01*
X62418969Y18021800D02*
X62371350Y18117039D01*
X62371350Y18117039D02*
X62371350Y18974181D01*
X62895160Y17974181D02*
X62895160Y18974181D01*
X62990398Y18355134D02*
X63276112Y17974181D01*
X63276112Y18640848D02*
X62895160Y18259896D01*
X63657065Y18021800D02*
X63752303Y17974181D01*
X63752303Y17974181D02*
X63942779Y17974181D01*
X63942779Y17974181D02*
X64038017Y18021800D01*
X64038017Y18021800D02*
X64085636Y18117039D01*
X64085636Y18117039D02*
X64085636Y18164658D01*
X64085636Y18164658D02*
X64038017Y18259896D01*
X64038017Y18259896D02*
X63942779Y18307515D01*
X63942779Y18307515D02*
X63799922Y18307515D01*
X63799922Y18307515D02*
X63704684Y18355134D01*
X63704684Y18355134D02*
X63657065Y18450372D01*
X63657065Y18450372D02*
X63657065Y18497991D01*
X63657065Y18497991D02*
X63704684Y18593229D01*
X63704684Y18593229D02*
X63799922Y18640848D01*
X63799922Y18640848D02*
X63942779Y18640848D01*
X63942779Y18640848D02*
X64038017Y18593229D01*
X64942779Y18021800D02*
X64847541Y17974181D01*
X64847541Y17974181D02*
X64657065Y17974181D01*
X64657065Y17974181D02*
X64561827Y18021800D01*
X64561827Y18021800D02*
X64514208Y18069420D01*
X64514208Y18069420D02*
X64466589Y18164658D01*
X64466589Y18164658D02*
X64466589Y18450372D01*
X64466589Y18450372D02*
X64514208Y18545610D01*
X64514208Y18545610D02*
X64561827Y18593229D01*
X64561827Y18593229D02*
X64657065Y18640848D01*
X64657065Y18640848D02*
X64847541Y18640848D01*
X64847541Y18640848D02*
X64942779Y18593229D01*
X65371351Y17974181D02*
X65371351Y18640848D01*
X65371351Y18450372D02*
X65418970Y18545610D01*
X65418970Y18545610D02*
X65466589Y18593229D01*
X65466589Y18593229D02*
X65561827Y18640848D01*
X65561827Y18640848D02*
X65657065Y18640848D01*
X66371351Y18021800D02*
X66276113Y17974181D01*
X66276113Y17974181D02*
X66085637Y17974181D01*
X66085637Y17974181D02*
X65990399Y18021800D01*
X65990399Y18021800D02*
X65942780Y18117039D01*
X65942780Y18117039D02*
X65942780Y18497991D01*
X65942780Y18497991D02*
X65990399Y18593229D01*
X65990399Y18593229D02*
X66085637Y18640848D01*
X66085637Y18640848D02*
X66276113Y18640848D01*
X66276113Y18640848D02*
X66371351Y18593229D01*
X66371351Y18593229D02*
X66418970Y18497991D01*
X66418970Y18497991D02*
X66418970Y18402753D01*
X66418970Y18402753D02*
X65942780Y18307515D01*
X67228494Y18021800D02*
X67133256Y17974181D01*
X67133256Y17974181D02*
X66942780Y17974181D01*
X66942780Y17974181D02*
X66847542Y18021800D01*
X66847542Y18021800D02*
X66799923Y18117039D01*
X66799923Y18117039D02*
X66799923Y18497991D01*
X66799923Y18497991D02*
X66847542Y18593229D01*
X66847542Y18593229D02*
X66942780Y18640848D01*
X66942780Y18640848D02*
X67133256Y18640848D01*
X67133256Y18640848D02*
X67228494Y18593229D01*
X67228494Y18593229D02*
X67276113Y18497991D01*
X67276113Y18497991D02*
X67276113Y18402753D01*
X67276113Y18402753D02*
X66799923Y18307515D01*
X67704685Y18640848D02*
X67704685Y17974181D01*
X67704685Y18545610D02*
X67752304Y18593229D01*
X67752304Y18593229D02*
X67847542Y18640848D01*
X67847542Y18640848D02*
X67990399Y18640848D01*
X67990399Y18640848D02*
X68085637Y18593229D01*
X68085637Y18593229D02*
X68133256Y18497991D01*
X68133256Y18497991D02*
X68133256Y17974181D01*
X11074819Y2346667D02*
X11789104Y2346667D01*
X11789104Y2346667D02*
X11931961Y2299048D01*
X11931961Y2299048D02*
X12027200Y2203810D01*
X12027200Y2203810D02*
X12074819Y2060953D01*
X12074819Y2060953D02*
X12074819Y1965715D01*
X12074819Y3346667D02*
X12074819Y2775239D01*
X12074819Y3060953D02*
X11074819Y3060953D01*
X11074819Y3060953D02*
X11217676Y2965715D01*
X11217676Y2965715D02*
X11312914Y2870477D01*
X11312914Y2870477D02*
X11360533Y2775239D01*
X47424819Y5987143D02*
X46948628Y5653810D01*
X47424819Y5415715D02*
X46424819Y5415715D01*
X46424819Y5415715D02*
X46424819Y5796667D01*
X46424819Y5796667D02*
X46472438Y5891905D01*
X46472438Y5891905D02*
X46520057Y5939524D01*
X46520057Y5939524D02*
X46615295Y5987143D01*
X46615295Y5987143D02*
X46758152Y5987143D01*
X46758152Y5987143D02*
X46853390Y5939524D01*
X46853390Y5939524D02*
X46901009Y5891905D01*
X46901009Y5891905D02*
X46948628Y5796667D01*
X46948628Y5796667D02*
X46948628Y5415715D01*
X47424819Y6939524D02*
X47424819Y6368096D01*
X47424819Y6653810D02*
X46424819Y6653810D01*
X46424819Y6653810D02*
X46567676Y6558572D01*
X46567676Y6558572D02*
X46662914Y6463334D01*
X46662914Y6463334D02*
X46710533Y6368096D01*
X47424819Y7891905D02*
X47424819Y7320477D01*
X47424819Y7606191D02*
X46424819Y7606191D01*
X46424819Y7606191D02*
X46567676Y7510953D01*
X46567676Y7510953D02*
X46662914Y7415715D01*
X46662914Y7415715D02*
X46710533Y7320477D01*
X20439580Y16793334D02*
X20487200Y16745715D01*
X20487200Y16745715D02*
X20534819Y16602858D01*
X20534819Y16602858D02*
X20534819Y16507620D01*
X20534819Y16507620D02*
X20487200Y16364763D01*
X20487200Y16364763D02*
X20391961Y16269525D01*
X20391961Y16269525D02*
X20296723Y16221906D01*
X20296723Y16221906D02*
X20106247Y16174287D01*
X20106247Y16174287D02*
X19963390Y16174287D01*
X19963390Y16174287D02*
X19772914Y16221906D01*
X19772914Y16221906D02*
X19677676Y16269525D01*
X19677676Y16269525D02*
X19582438Y16364763D01*
X19582438Y16364763D02*
X19534819Y16507620D01*
X19534819Y16507620D02*
X19534819Y16602858D01*
X19534819Y16602858D02*
X19582438Y16745715D01*
X19582438Y16745715D02*
X19630057Y16793334D01*
X19630057Y17174287D02*
X19582438Y17221906D01*
X19582438Y17221906D02*
X19534819Y17317144D01*
X19534819Y17317144D02*
X19534819Y17555239D01*
X19534819Y17555239D02*
X19582438Y17650477D01*
X19582438Y17650477D02*
X19630057Y17698096D01*
X19630057Y17698096D02*
X19725295Y17745715D01*
X19725295Y17745715D02*
X19820533Y17745715D01*
X19820533Y17745715D02*
X19963390Y17698096D01*
X19963390Y17698096D02*
X20534819Y17126668D01*
X20534819Y17126668D02*
X20534819Y17745715D01*
D11*
X26279345Y27103281D02*
X26279345Y26293758D01*
X26279345Y26293758D02*
X26326964Y26198520D01*
X26326964Y26198520D02*
X26374583Y26150900D01*
X26374583Y26150900D02*
X26469821Y26103281D01*
X26469821Y26103281D02*
X26660297Y26103281D01*
X26660297Y26103281D02*
X26755535Y26150900D01*
X26755535Y26150900D02*
X26803154Y26198520D01*
X26803154Y26198520D02*
X26850773Y26293758D01*
X26850773Y26293758D02*
X26850773Y27103281D01*
X27850773Y26103281D02*
X27279345Y26103281D01*
X27565059Y26103281D02*
X27565059Y27103281D01*
X27565059Y27103281D02*
X27469821Y26960424D01*
X27469821Y26960424D02*
X27374583Y26865186D01*
X27374583Y26865186D02*
X27279345Y26817567D01*
D10*
X43244819Y14883334D02*
X42768628Y14550001D01*
X43244819Y14311906D02*
X42244819Y14311906D01*
X42244819Y14311906D02*
X42244819Y14692858D01*
X42244819Y14692858D02*
X42292438Y14788096D01*
X42292438Y14788096D02*
X42340057Y14835715D01*
X42340057Y14835715D02*
X42435295Y14883334D01*
X42435295Y14883334D02*
X42578152Y14883334D01*
X42578152Y14883334D02*
X42673390Y14835715D01*
X42673390Y14835715D02*
X42721009Y14788096D01*
X42721009Y14788096D02*
X42768628Y14692858D01*
X42768628Y14692858D02*
X42768628Y14311906D01*
X42244819Y15216668D02*
X42244819Y15883334D01*
X42244819Y15883334D02*
X43244819Y15454763D01*
X38496069Y14404406D02*
X37496069Y14404406D01*
X37496069Y14404406D02*
X37496069Y14642501D01*
X37496069Y14642501D02*
X37543688Y14785358D01*
X37543688Y14785358D02*
X37638926Y14880596D01*
X37638926Y14880596D02*
X37734164Y14928215D01*
X37734164Y14928215D02*
X37924640Y14975834D01*
X37924640Y14975834D02*
X38067497Y14975834D01*
X38067497Y14975834D02*
X38257973Y14928215D01*
X38257973Y14928215D02*
X38353211Y14880596D01*
X38353211Y14880596D02*
X38448450Y14785358D01*
X38448450Y14785358D02*
X38496069Y14642501D01*
X38496069Y14642501D02*
X38496069Y14404406D01*
X38496069Y15928215D02*
X38496069Y15356787D01*
X38496069Y15642501D02*
X37496069Y15642501D01*
X37496069Y15642501D02*
X37638926Y15547263D01*
X37638926Y15547263D02*
X37734164Y15452025D01*
X37734164Y15452025D02*
X37781783Y15356787D01*
D11*
X26279345Y21060081D02*
X26279345Y20250558D01*
X26279345Y20250558D02*
X26326964Y20155320D01*
X26326964Y20155320D02*
X26374583Y20107700D01*
X26374583Y20107700D02*
X26469821Y20060081D01*
X26469821Y20060081D02*
X26660297Y20060081D01*
X26660297Y20060081D02*
X26755535Y20107700D01*
X26755535Y20107700D02*
X26803154Y20155320D01*
X26803154Y20155320D02*
X26850773Y20250558D01*
X26850773Y20250558D02*
X26850773Y21060081D01*
X27279345Y20964843D02*
X27326964Y21012462D01*
X27326964Y21012462D02*
X27422202Y21060081D01*
X27422202Y21060081D02*
X27660297Y21060081D01*
X27660297Y21060081D02*
X27755535Y21012462D01*
X27755535Y21012462D02*
X27803154Y20964843D01*
X27803154Y20964843D02*
X27850773Y20869605D01*
X27850773Y20869605D02*
X27850773Y20774367D01*
X27850773Y20774367D02*
X27803154Y20631510D01*
X27803154Y20631510D02*
X27231726Y20060081D01*
X27231726Y20060081D02*
X27850773Y20060081D01*
D10*
X20144761Y4319943D02*
X20049523Y4367562D01*
X20049523Y4367562D02*
X19954285Y4462800D01*
X19954285Y4462800D02*
X19811428Y4605658D01*
X19811428Y4605658D02*
X19716190Y4653277D01*
X19716190Y4653277D02*
X19620952Y4653277D01*
X19668571Y4415181D02*
X19573333Y4462800D01*
X19573333Y4462800D02*
X19478095Y4558039D01*
X19478095Y4558039D02*
X19430476Y4748515D01*
X19430476Y4748515D02*
X19430476Y5081848D01*
X19430476Y5081848D02*
X19478095Y5272324D01*
X19478095Y5272324D02*
X19573333Y5367562D01*
X19573333Y5367562D02*
X19668571Y5415181D01*
X19668571Y5415181D02*
X19859047Y5415181D01*
X19859047Y5415181D02*
X19954285Y5367562D01*
X19954285Y5367562D02*
X20049523Y5272324D01*
X20049523Y5272324D02*
X20097142Y5081848D01*
X20097142Y5081848D02*
X20097142Y4748515D01*
X20097142Y4748515D02*
X20049523Y4558039D01*
X20049523Y4558039D02*
X19954285Y4462800D01*
X19954285Y4462800D02*
X19859047Y4415181D01*
X19859047Y4415181D02*
X19668571Y4415181D01*
X20430476Y5415181D02*
X21049523Y5415181D01*
X21049523Y5415181D02*
X20716190Y5034229D01*
X20716190Y5034229D02*
X20859047Y5034229D01*
X20859047Y5034229D02*
X20954285Y4986610D01*
X20954285Y4986610D02*
X21001904Y4938991D01*
X21001904Y4938991D02*
X21049523Y4843753D01*
X21049523Y4843753D02*
X21049523Y4605658D01*
X21049523Y4605658D02*
X21001904Y4510420D01*
X21001904Y4510420D02*
X20954285Y4462800D01*
X20954285Y4462800D02*
X20859047Y4415181D01*
X20859047Y4415181D02*
X20573333Y4415181D01*
X20573333Y4415181D02*
X20478095Y4462800D01*
X20478095Y4462800D02*
X20430476Y4510420D01*
X46746069Y20775834D02*
X46269878Y20442501D01*
X46746069Y20204406D02*
X45746069Y20204406D01*
X45746069Y20204406D02*
X45746069Y20585358D01*
X45746069Y20585358D02*
X45793688Y20680596D01*
X45793688Y20680596D02*
X45841307Y20728215D01*
X45841307Y20728215D02*
X45936545Y20775834D01*
X45936545Y20775834D02*
X46079402Y20775834D01*
X46079402Y20775834D02*
X46174640Y20728215D01*
X46174640Y20728215D02*
X46222259Y20680596D01*
X46222259Y20680596D02*
X46269878Y20585358D01*
X46269878Y20585358D02*
X46269878Y20204406D01*
X46079402Y21632977D02*
X46746069Y21632977D01*
X45698450Y21394882D02*
X46412735Y21156787D01*
X46412735Y21156787D02*
X46412735Y21775834D01*
X15204819Y7307143D02*
X14728628Y6973810D01*
X15204819Y6735715D02*
X14204819Y6735715D01*
X14204819Y6735715D02*
X14204819Y7116667D01*
X14204819Y7116667D02*
X14252438Y7211905D01*
X14252438Y7211905D02*
X14300057Y7259524D01*
X14300057Y7259524D02*
X14395295Y7307143D01*
X14395295Y7307143D02*
X14538152Y7307143D01*
X14538152Y7307143D02*
X14633390Y7259524D01*
X14633390Y7259524D02*
X14681009Y7211905D01*
X14681009Y7211905D02*
X14728628Y7116667D01*
X14728628Y7116667D02*
X14728628Y6735715D01*
X15204819Y8259524D02*
X15204819Y7688096D01*
X15204819Y7973810D02*
X14204819Y7973810D01*
X14204819Y7973810D02*
X14347676Y7878572D01*
X14347676Y7878572D02*
X14442914Y7783334D01*
X14442914Y7783334D02*
X14490533Y7688096D01*
X14204819Y8878572D02*
X14204819Y8973810D01*
X14204819Y8973810D02*
X14252438Y9069048D01*
X14252438Y9069048D02*
X14300057Y9116667D01*
X14300057Y9116667D02*
X14395295Y9164286D01*
X14395295Y9164286D02*
X14585771Y9211905D01*
X14585771Y9211905D02*
X14823866Y9211905D01*
X14823866Y9211905D02*
X15014342Y9164286D01*
X15014342Y9164286D02*
X15109580Y9116667D01*
X15109580Y9116667D02*
X15157200Y9069048D01*
X15157200Y9069048D02*
X15204819Y8973810D01*
X15204819Y8973810D02*
X15204819Y8878572D01*
X15204819Y8878572D02*
X15157200Y8783334D01*
X15157200Y8783334D02*
X15109580Y8735715D01*
X15109580Y8735715D02*
X15014342Y8688096D01*
X15014342Y8688096D02*
X14823866Y8640477D01*
X14823866Y8640477D02*
X14585771Y8640477D01*
X14585771Y8640477D02*
X14395295Y8688096D01*
X14395295Y8688096D02*
X14300057Y8735715D01*
X14300057Y8735715D02*
X14252438Y8783334D01*
X14252438Y8783334D02*
X14204819Y8878572D01*
X39741307Y6797262D02*
X39693688Y6702024D01*
X39693688Y6702024D02*
X39598450Y6606786D01*
X39598450Y6606786D02*
X39455592Y6463929D01*
X39455592Y6463929D02*
X39407973Y6368691D01*
X39407973Y6368691D02*
X39407973Y6273453D01*
X39646069Y6321072D02*
X39598450Y6225834D01*
X39598450Y6225834D02*
X39503211Y6130596D01*
X39503211Y6130596D02*
X39312735Y6082977D01*
X39312735Y6082977D02*
X38979402Y6082977D01*
X38979402Y6082977D02*
X38788926Y6130596D01*
X38788926Y6130596D02*
X38693688Y6225834D01*
X38693688Y6225834D02*
X38646069Y6321072D01*
X38646069Y6321072D02*
X38646069Y6511548D01*
X38646069Y6511548D02*
X38693688Y6606786D01*
X38693688Y6606786D02*
X38788926Y6702024D01*
X38788926Y6702024D02*
X38979402Y6749643D01*
X38979402Y6749643D02*
X39312735Y6749643D01*
X39312735Y6749643D02*
X39503211Y6702024D01*
X39503211Y6702024D02*
X39598450Y6606786D01*
X39598450Y6606786D02*
X39646069Y6511548D01*
X39646069Y6511548D02*
X39646069Y6321072D01*
X38979402Y7606786D02*
X39646069Y7606786D01*
X38598450Y7368691D02*
X39312735Y7130596D01*
X39312735Y7130596D02*
X39312735Y7749643D01*
X47384819Y10613334D02*
X46908628Y10280001D01*
X47384819Y10041906D02*
X46384819Y10041906D01*
X46384819Y10041906D02*
X46384819Y10422858D01*
X46384819Y10422858D02*
X46432438Y10518096D01*
X46432438Y10518096D02*
X46480057Y10565715D01*
X46480057Y10565715D02*
X46575295Y10613334D01*
X46575295Y10613334D02*
X46718152Y10613334D01*
X46718152Y10613334D02*
X46813390Y10565715D01*
X46813390Y10565715D02*
X46861009Y10518096D01*
X46861009Y10518096D02*
X46908628Y10422858D01*
X46908628Y10422858D02*
X46908628Y10041906D01*
X46384819Y11470477D02*
X46384819Y11280001D01*
X46384819Y11280001D02*
X46432438Y11184763D01*
X46432438Y11184763D02*
X46480057Y11137144D01*
X46480057Y11137144D02*
X46622914Y11041906D01*
X46622914Y11041906D02*
X46813390Y10994287D01*
X46813390Y10994287D02*
X47194342Y10994287D01*
X47194342Y10994287D02*
X47289580Y11041906D01*
X47289580Y11041906D02*
X47337200Y11089525D01*
X47337200Y11089525D02*
X47384819Y11184763D01*
X47384819Y11184763D02*
X47384819Y11375239D01*
X47384819Y11375239D02*
X47337200Y11470477D01*
X47337200Y11470477D02*
X47289580Y11518096D01*
X47289580Y11518096D02*
X47194342Y11565715D01*
X47194342Y11565715D02*
X46956247Y11565715D01*
X46956247Y11565715D02*
X46861009Y11518096D01*
X46861009Y11518096D02*
X46813390Y11470477D01*
X46813390Y11470477D02*
X46765771Y11375239D01*
X46765771Y11375239D02*
X46765771Y11184763D01*
X46765771Y11184763D02*
X46813390Y11089525D01*
X46813390Y11089525D02*
X46861009Y11041906D01*
X46861009Y11041906D02*
X46956247Y10994287D01*
X40874761Y12049943D02*
X40779523Y12097562D01*
X40779523Y12097562D02*
X40684285Y12192800D01*
X40684285Y12192800D02*
X40541428Y12335658D01*
X40541428Y12335658D02*
X40446190Y12383277D01*
X40446190Y12383277D02*
X40350952Y12383277D01*
X40398571Y12145181D02*
X40303333Y12192800D01*
X40303333Y12192800D02*
X40208095Y12288039D01*
X40208095Y12288039D02*
X40160476Y12478515D01*
X40160476Y12478515D02*
X40160476Y12811848D01*
X40160476Y12811848D02*
X40208095Y13002324D01*
X40208095Y13002324D02*
X40303333Y13097562D01*
X40303333Y13097562D02*
X40398571Y13145181D01*
X40398571Y13145181D02*
X40589047Y13145181D01*
X40589047Y13145181D02*
X40684285Y13097562D01*
X40684285Y13097562D02*
X40779523Y13002324D01*
X40779523Y13002324D02*
X40827142Y12811848D01*
X40827142Y12811848D02*
X40827142Y12478515D01*
X40827142Y12478515D02*
X40779523Y12288039D01*
X40779523Y12288039D02*
X40684285Y12192800D01*
X40684285Y12192800D02*
X40589047Y12145181D01*
X40589047Y12145181D02*
X40398571Y12145181D01*
X41731904Y13145181D02*
X41255714Y13145181D01*
X41255714Y13145181D02*
X41208095Y12668991D01*
X41208095Y12668991D02*
X41255714Y12716610D01*
X41255714Y12716610D02*
X41350952Y12764229D01*
X41350952Y12764229D02*
X41589047Y12764229D01*
X41589047Y12764229D02*
X41684285Y12716610D01*
X41684285Y12716610D02*
X41731904Y12668991D01*
X41731904Y12668991D02*
X41779523Y12573753D01*
X41779523Y12573753D02*
X41779523Y12335658D01*
X41779523Y12335658D02*
X41731904Y12240420D01*
X41731904Y12240420D02*
X41684285Y12192800D01*
X41684285Y12192800D02*
X41589047Y12145181D01*
X41589047Y12145181D02*
X41350952Y12145181D01*
X41350952Y12145181D02*
X41255714Y12192800D01*
X41255714Y12192800D02*
X41208095Y12240420D01*
X18994819Y16793334D02*
X18518628Y16460001D01*
X18994819Y16221906D02*
X17994819Y16221906D01*
X17994819Y16221906D02*
X17994819Y16602858D01*
X17994819Y16602858D02*
X18042438Y16698096D01*
X18042438Y16698096D02*
X18090057Y16745715D01*
X18090057Y16745715D02*
X18185295Y16793334D01*
X18185295Y16793334D02*
X18328152Y16793334D01*
X18328152Y16793334D02*
X18423390Y16745715D01*
X18423390Y16745715D02*
X18471009Y16698096D01*
X18471009Y16698096D02*
X18518628Y16602858D01*
X18518628Y16602858D02*
X18518628Y16221906D01*
X18994819Y17269525D02*
X18994819Y17460001D01*
X18994819Y17460001D02*
X18947200Y17555239D01*
X18947200Y17555239D02*
X18899580Y17602858D01*
X18899580Y17602858D02*
X18756723Y17698096D01*
X18756723Y17698096D02*
X18566247Y17745715D01*
X18566247Y17745715D02*
X18185295Y17745715D01*
X18185295Y17745715D02*
X18090057Y17698096D01*
X18090057Y17698096D02*
X18042438Y17650477D01*
X18042438Y17650477D02*
X17994819Y17555239D01*
X17994819Y17555239D02*
X17994819Y17364763D01*
X17994819Y17364763D02*
X18042438Y17269525D01*
X18042438Y17269525D02*
X18090057Y17221906D01*
X18090057Y17221906D02*
X18185295Y17174287D01*
X18185295Y17174287D02*
X18423390Y17174287D01*
X18423390Y17174287D02*
X18518628Y17221906D01*
X18518628Y17221906D02*
X18566247Y17269525D01*
X18566247Y17269525D02*
X18613866Y17364763D01*
X18613866Y17364763D02*
X18613866Y17555239D01*
X18613866Y17555239D02*
X18566247Y17650477D01*
X18566247Y17650477D02*
X18518628Y17698096D01*
X18518628Y17698096D02*
X18423390Y17745715D01*
X40546069Y20775834D02*
X40069878Y20442501D01*
X40546069Y20204406D02*
X39546069Y20204406D01*
X39546069Y20204406D02*
X39546069Y20585358D01*
X39546069Y20585358D02*
X39593688Y20680596D01*
X39593688Y20680596D02*
X39641307Y20728215D01*
X39641307Y20728215D02*
X39736545Y20775834D01*
X39736545Y20775834D02*
X39879402Y20775834D01*
X39879402Y20775834D02*
X39974640Y20728215D01*
X39974640Y20728215D02*
X40022259Y20680596D01*
X40022259Y20680596D02*
X40069878Y20585358D01*
X40069878Y20585358D02*
X40069878Y20204406D01*
X39546069Y21109168D02*
X39546069Y21728215D01*
X39546069Y21728215D02*
X39927021Y21394882D01*
X39927021Y21394882D02*
X39927021Y21537739D01*
X39927021Y21537739D02*
X39974640Y21632977D01*
X39974640Y21632977D02*
X40022259Y21680596D01*
X40022259Y21680596D02*
X40117497Y21728215D01*
X40117497Y21728215D02*
X40355592Y21728215D01*
X40355592Y21728215D02*
X40450830Y21680596D01*
X40450830Y21680596D02*
X40498450Y21632977D01*
X40498450Y21632977D02*
X40546069Y21537739D01*
X40546069Y21537739D02*
X40546069Y21252025D01*
X40546069Y21252025D02*
X40498450Y21156787D01*
X40498450Y21156787D02*
X40450830Y21109168D01*
X37400830Y26375834D02*
X37448450Y26328215D01*
X37448450Y26328215D02*
X37496069Y26185358D01*
X37496069Y26185358D02*
X37496069Y26090120D01*
X37496069Y26090120D02*
X37448450Y25947263D01*
X37448450Y25947263D02*
X37353211Y25852025D01*
X37353211Y25852025D02*
X37257973Y25804406D01*
X37257973Y25804406D02*
X37067497Y25756787D01*
X37067497Y25756787D02*
X36924640Y25756787D01*
X36924640Y25756787D02*
X36734164Y25804406D01*
X36734164Y25804406D02*
X36638926Y25852025D01*
X36638926Y25852025D02*
X36543688Y25947263D01*
X36543688Y25947263D02*
X36496069Y26090120D01*
X36496069Y26090120D02*
X36496069Y26185358D01*
X36496069Y26185358D02*
X36543688Y26328215D01*
X36543688Y26328215D02*
X36591307Y26375834D01*
X37496069Y27328215D02*
X37496069Y26756787D01*
X37496069Y27042501D02*
X36496069Y27042501D01*
X36496069Y27042501D02*
X36638926Y26947263D01*
X36638926Y26947263D02*
X36734164Y26852025D01*
X36734164Y26852025D02*
X36781783Y26756787D01*
X23396069Y1704406D02*
X22396069Y1704406D01*
X22396069Y1704406D02*
X22396069Y1942501D01*
X22396069Y1942501D02*
X22443688Y2085358D01*
X22443688Y2085358D02*
X22538926Y2180596D01*
X22538926Y2180596D02*
X22634164Y2228215D01*
X22634164Y2228215D02*
X22824640Y2275834D01*
X22824640Y2275834D02*
X22967497Y2275834D01*
X22967497Y2275834D02*
X23157973Y2228215D01*
X23157973Y2228215D02*
X23253211Y2180596D01*
X23253211Y2180596D02*
X23348450Y2085358D01*
X23348450Y2085358D02*
X23396069Y1942501D01*
X23396069Y1942501D02*
X23396069Y1704406D01*
X22491307Y2656787D02*
X22443688Y2704406D01*
X22443688Y2704406D02*
X22396069Y2799644D01*
X22396069Y2799644D02*
X22396069Y3037739D01*
X22396069Y3037739D02*
X22443688Y3132977D01*
X22443688Y3132977D02*
X22491307Y3180596D01*
X22491307Y3180596D02*
X22586545Y3228215D01*
X22586545Y3228215D02*
X22681783Y3228215D01*
X22681783Y3228215D02*
X22824640Y3180596D01*
X22824640Y3180596D02*
X23396069Y2609168D01*
X23396069Y2609168D02*
X23396069Y3228215D01*
D11*
X26279345Y9103281D02*
X26279345Y8293758D01*
X26279345Y8293758D02*
X26326964Y8198520D01*
X26326964Y8198520D02*
X26374583Y8150900D01*
X26374583Y8150900D02*
X26469821Y8103281D01*
X26469821Y8103281D02*
X26660297Y8103281D01*
X26660297Y8103281D02*
X26755535Y8150900D01*
X26755535Y8150900D02*
X26803154Y8198520D01*
X26803154Y8198520D02*
X26850773Y8293758D01*
X26850773Y8293758D02*
X26850773Y9103281D01*
X27755535Y8769948D02*
X27755535Y8103281D01*
X27517440Y9150900D02*
X27279345Y8436615D01*
X27279345Y8436615D02*
X27898392Y8436615D01*
D10*
X17474583Y1787681D02*
X17141250Y2263872D01*
X16903155Y1787681D02*
X16903155Y2787681D01*
X16903155Y2787681D02*
X17284107Y2787681D01*
X17284107Y2787681D02*
X17379345Y2740062D01*
X17379345Y2740062D02*
X17426964Y2692443D01*
X17426964Y2692443D02*
X17474583Y2597205D01*
X17474583Y2597205D02*
X17474583Y2454348D01*
X17474583Y2454348D02*
X17426964Y2359110D01*
X17426964Y2359110D02*
X17379345Y2311491D01*
X17379345Y2311491D02*
X17284107Y2263872D01*
X17284107Y2263872D02*
X16903155Y2263872D01*
X18379345Y2787681D02*
X17903155Y2787681D01*
X17903155Y2787681D02*
X17855536Y2311491D01*
X17855536Y2311491D02*
X17903155Y2359110D01*
X17903155Y2359110D02*
X17998393Y2406729D01*
X17998393Y2406729D02*
X18236488Y2406729D01*
X18236488Y2406729D02*
X18331726Y2359110D01*
X18331726Y2359110D02*
X18379345Y2311491D01*
X18379345Y2311491D02*
X18426964Y2216253D01*
X18426964Y2216253D02*
X18426964Y1978158D01*
X18426964Y1978158D02*
X18379345Y1882920D01*
X18379345Y1882920D02*
X18331726Y1835300D01*
X18331726Y1835300D02*
X18236488Y1787681D01*
X18236488Y1787681D02*
X17998393Y1787681D01*
X17998393Y1787681D02*
X17903155Y1835300D01*
X17903155Y1835300D02*
X17855536Y1882920D01*
X17008069Y21003834D02*
X16531878Y20670501D01*
X17008069Y20432406D02*
X16008069Y20432406D01*
X16008069Y20432406D02*
X16008069Y20813358D01*
X16008069Y20813358D02*
X16055688Y20908596D01*
X16055688Y20908596D02*
X16103307Y20956215D01*
X16103307Y20956215D02*
X16198545Y21003834D01*
X16198545Y21003834D02*
X16341402Y21003834D01*
X16341402Y21003834D02*
X16436640Y20956215D01*
X16436640Y20956215D02*
X16484259Y20908596D01*
X16484259Y20908596D02*
X16531878Y20813358D01*
X16531878Y20813358D02*
X16531878Y20432406D01*
X17008069Y21956215D02*
X17008069Y21384787D01*
X17008069Y21670501D02*
X16008069Y21670501D01*
X16008069Y21670501D02*
X16150926Y21575263D01*
X16150926Y21575263D02*
X16246164Y21480025D01*
X16246164Y21480025D02*
X16293783Y21384787D01*
X45028807Y20997262D02*
X44981188Y20902024D01*
X44981188Y20902024D02*
X44885950Y20806786D01*
X44885950Y20806786D02*
X44743092Y20663929D01*
X44743092Y20663929D02*
X44695473Y20568691D01*
X44695473Y20568691D02*
X44695473Y20473453D01*
X44933569Y20521072D02*
X44885950Y20425834D01*
X44885950Y20425834D02*
X44790711Y20330596D01*
X44790711Y20330596D02*
X44600235Y20282977D01*
X44600235Y20282977D02*
X44266902Y20282977D01*
X44266902Y20282977D02*
X44076426Y20330596D01*
X44076426Y20330596D02*
X43981188Y20425834D01*
X43981188Y20425834D02*
X43933569Y20521072D01*
X43933569Y20521072D02*
X43933569Y20711548D01*
X43933569Y20711548D02*
X43981188Y20806786D01*
X43981188Y20806786D02*
X44076426Y20902024D01*
X44076426Y20902024D02*
X44266902Y20949643D01*
X44266902Y20949643D02*
X44600235Y20949643D01*
X44600235Y20949643D02*
X44790711Y20902024D01*
X44790711Y20902024D02*
X44885950Y20806786D01*
X44885950Y20806786D02*
X44933569Y20711548D01*
X44933569Y20711548D02*
X44933569Y20521072D01*
X44933569Y21902024D02*
X44933569Y21330596D01*
X44933569Y21616310D02*
X43933569Y21616310D01*
X43933569Y21616310D02*
X44076426Y21521072D01*
X44076426Y21521072D02*
X44171664Y21425834D01*
X44171664Y21425834D02*
X44219283Y21330596D01*
X37500830Y2875834D02*
X37548450Y2828215D01*
X37548450Y2828215D02*
X37596069Y2685358D01*
X37596069Y2685358D02*
X37596069Y2590120D01*
X37596069Y2590120D02*
X37548450Y2447263D01*
X37548450Y2447263D02*
X37453211Y2352025D01*
X37453211Y2352025D02*
X37357973Y2304406D01*
X37357973Y2304406D02*
X37167497Y2256787D01*
X37167497Y2256787D02*
X37024640Y2256787D01*
X37024640Y2256787D02*
X36834164Y2304406D01*
X36834164Y2304406D02*
X36738926Y2352025D01*
X36738926Y2352025D02*
X36643688Y2447263D01*
X36643688Y2447263D02*
X36596069Y2590120D01*
X36596069Y2590120D02*
X36596069Y2685358D01*
X36596069Y2685358D02*
X36643688Y2828215D01*
X36643688Y2828215D02*
X36691307Y2875834D01*
X36929402Y3732977D02*
X37596069Y3732977D01*
X36548450Y3494882D02*
X37262735Y3256787D01*
X37262735Y3256787D02*
X37262735Y3875834D01*
X15114819Y12543334D02*
X14638628Y12210001D01*
X15114819Y11971906D02*
X14114819Y11971906D01*
X14114819Y11971906D02*
X14114819Y12352858D01*
X14114819Y12352858D02*
X14162438Y12448096D01*
X14162438Y12448096D02*
X14210057Y12495715D01*
X14210057Y12495715D02*
X14305295Y12543334D01*
X14305295Y12543334D02*
X14448152Y12543334D01*
X14448152Y12543334D02*
X14543390Y12495715D01*
X14543390Y12495715D02*
X14591009Y12448096D01*
X14591009Y12448096D02*
X14638628Y12352858D01*
X14638628Y12352858D02*
X14638628Y11971906D01*
X14543390Y13114763D02*
X14495771Y13019525D01*
X14495771Y13019525D02*
X14448152Y12971906D01*
X14448152Y12971906D02*
X14352914Y12924287D01*
X14352914Y12924287D02*
X14305295Y12924287D01*
X14305295Y12924287D02*
X14210057Y12971906D01*
X14210057Y12971906D02*
X14162438Y13019525D01*
X14162438Y13019525D02*
X14114819Y13114763D01*
X14114819Y13114763D02*
X14114819Y13305239D01*
X14114819Y13305239D02*
X14162438Y13400477D01*
X14162438Y13400477D02*
X14210057Y13448096D01*
X14210057Y13448096D02*
X14305295Y13495715D01*
X14305295Y13495715D02*
X14352914Y13495715D01*
X14352914Y13495715D02*
X14448152Y13448096D01*
X14448152Y13448096D02*
X14495771Y13400477D01*
X14495771Y13400477D02*
X14543390Y13305239D01*
X14543390Y13305239D02*
X14543390Y13114763D01*
X14543390Y13114763D02*
X14591009Y13019525D01*
X14591009Y13019525D02*
X14638628Y12971906D01*
X14638628Y12971906D02*
X14733866Y12924287D01*
X14733866Y12924287D02*
X14924342Y12924287D01*
X14924342Y12924287D02*
X15019580Y12971906D01*
X15019580Y12971906D02*
X15067200Y13019525D01*
X15067200Y13019525D02*
X15114819Y13114763D01*
X15114819Y13114763D02*
X15114819Y13305239D01*
X15114819Y13305239D02*
X15067200Y13400477D01*
X15067200Y13400477D02*
X15019580Y13448096D01*
X15019580Y13448096D02*
X14924342Y13495715D01*
X14924342Y13495715D02*
X14733866Y13495715D01*
X14733866Y13495715D02*
X14638628Y13448096D01*
X14638628Y13448096D02*
X14591009Y13400477D01*
X14591009Y13400477D02*
X14543390Y13305239D01*
D11*
X26279345Y15160081D02*
X26279345Y14350558D01*
X26279345Y14350558D02*
X26326964Y14255320D01*
X26326964Y14255320D02*
X26374583Y14207700D01*
X26374583Y14207700D02*
X26469821Y14160081D01*
X26469821Y14160081D02*
X26660297Y14160081D01*
X26660297Y14160081D02*
X26755535Y14207700D01*
X26755535Y14207700D02*
X26803154Y14255320D01*
X26803154Y14255320D02*
X26850773Y14350558D01*
X26850773Y14350558D02*
X26850773Y15160081D01*
X27231726Y15160081D02*
X27850773Y15160081D01*
X27850773Y15160081D02*
X27517440Y14779129D01*
X27517440Y14779129D02*
X27660297Y14779129D01*
X27660297Y14779129D02*
X27755535Y14731510D01*
X27755535Y14731510D02*
X27803154Y14683891D01*
X27803154Y14683891D02*
X27850773Y14588653D01*
X27850773Y14588653D02*
X27850773Y14350558D01*
X27850773Y14350558D02*
X27803154Y14255320D01*
X27803154Y14255320D02*
X27755535Y14207700D01*
X27755535Y14207700D02*
X27660297Y14160081D01*
X27660297Y14160081D02*
X27374583Y14160081D01*
X27374583Y14160081D02*
X27279345Y14207700D01*
X27279345Y14207700D02*
X27231726Y14255320D01*
D10*
X18046011Y13692443D02*
X17950773Y13740062D01*
X17950773Y13740062D02*
X17855535Y13835300D01*
X17855535Y13835300D02*
X17712678Y13978158D01*
X17712678Y13978158D02*
X17617440Y14025777D01*
X17617440Y14025777D02*
X17522202Y14025777D01*
X17569821Y13787681D02*
X17474583Y13835300D01*
X17474583Y13835300D02*
X17379345Y13930539D01*
X17379345Y13930539D02*
X17331726Y14121015D01*
X17331726Y14121015D02*
X17331726Y14454348D01*
X17331726Y14454348D02*
X17379345Y14644824D01*
X17379345Y14644824D02*
X17474583Y14740062D01*
X17474583Y14740062D02*
X17569821Y14787681D01*
X17569821Y14787681D02*
X17760297Y14787681D01*
X17760297Y14787681D02*
X17855535Y14740062D01*
X17855535Y14740062D02*
X17950773Y14644824D01*
X17950773Y14644824D02*
X17998392Y14454348D01*
X17998392Y14454348D02*
X17998392Y14121015D01*
X17998392Y14121015D02*
X17950773Y13930539D01*
X17950773Y13930539D02*
X17855535Y13835300D01*
X17855535Y13835300D02*
X17760297Y13787681D01*
X17760297Y13787681D02*
X17569821Y13787681D01*
X18379345Y14692443D02*
X18426964Y14740062D01*
X18426964Y14740062D02*
X18522202Y14787681D01*
X18522202Y14787681D02*
X18760297Y14787681D01*
X18760297Y14787681D02*
X18855535Y14740062D01*
X18855535Y14740062D02*
X18903154Y14692443D01*
X18903154Y14692443D02*
X18950773Y14597205D01*
X18950773Y14597205D02*
X18950773Y14501967D01*
X18950773Y14501967D02*
X18903154Y14359110D01*
X18903154Y14359110D02*
X18331726Y13787681D01*
X18331726Y13787681D02*
X18950773Y13787681D01*
X18532069Y21003834D02*
X18055878Y20670501D01*
X18532069Y20432406D02*
X17532069Y20432406D01*
X17532069Y20432406D02*
X17532069Y20813358D01*
X17532069Y20813358D02*
X17579688Y20908596D01*
X17579688Y20908596D02*
X17627307Y20956215D01*
X17627307Y20956215D02*
X17722545Y21003834D01*
X17722545Y21003834D02*
X17865402Y21003834D01*
X17865402Y21003834D02*
X17960640Y20956215D01*
X17960640Y20956215D02*
X18008259Y20908596D01*
X18008259Y20908596D02*
X18055878Y20813358D01*
X18055878Y20813358D02*
X18055878Y20432406D01*
X17627307Y21384787D02*
X17579688Y21432406D01*
X17579688Y21432406D02*
X17532069Y21527644D01*
X17532069Y21527644D02*
X17532069Y21765739D01*
X17532069Y21765739D02*
X17579688Y21860977D01*
X17579688Y21860977D02*
X17627307Y21908596D01*
X17627307Y21908596D02*
X17722545Y21956215D01*
X17722545Y21956215D02*
X17817783Y21956215D01*
X17817783Y21956215D02*
X17960640Y21908596D01*
X17960640Y21908596D02*
X18532069Y21337168D01*
X18532069Y21337168D02*
X18532069Y21956215D01*
X22400830Y10675834D02*
X22448450Y10628215D01*
X22448450Y10628215D02*
X22496069Y10485358D01*
X22496069Y10485358D02*
X22496069Y10390120D01*
X22496069Y10390120D02*
X22448450Y10247263D01*
X22448450Y10247263D02*
X22353211Y10152025D01*
X22353211Y10152025D02*
X22257973Y10104406D01*
X22257973Y10104406D02*
X22067497Y10056787D01*
X22067497Y10056787D02*
X21924640Y10056787D01*
X21924640Y10056787D02*
X21734164Y10104406D01*
X21734164Y10104406D02*
X21638926Y10152025D01*
X21638926Y10152025D02*
X21543688Y10247263D01*
X21543688Y10247263D02*
X21496069Y10390120D01*
X21496069Y10390120D02*
X21496069Y10485358D01*
X21496069Y10485358D02*
X21543688Y10628215D01*
X21543688Y10628215D02*
X21591307Y10675834D01*
X21496069Y11009168D02*
X21496069Y11628215D01*
X21496069Y11628215D02*
X21877021Y11294882D01*
X21877021Y11294882D02*
X21877021Y11437739D01*
X21877021Y11437739D02*
X21924640Y11532977D01*
X21924640Y11532977D02*
X21972259Y11580596D01*
X21972259Y11580596D02*
X22067497Y11628215D01*
X22067497Y11628215D02*
X22305592Y11628215D01*
X22305592Y11628215D02*
X22400830Y11580596D01*
X22400830Y11580596D02*
X22448450Y11532977D01*
X22448450Y11532977D02*
X22496069Y11437739D01*
X22496069Y11437739D02*
X22496069Y11152025D01*
X22496069Y11152025D02*
X22448450Y11056787D01*
X22448450Y11056787D02*
X22400830Y11009168D01*
D11*
%TO.C,J1*%
X11871600Y5942400D02*
X11871600Y8177600D01*
X10754000Y7060000D02*
X11871600Y5942400D01*
X10754000Y7060000D02*
X11871600Y8177600D01*
D12*
X10703200Y2132400D02*
X10703200Y27227600D01*
X10703200Y2132400D02*
X2210400Y2132400D01*
X10703200Y27227600D02*
X2210400Y27227600D01*
X2168800Y2132400D02*
X2168800Y27227600D01*
D11*
X10754000Y12648000D02*
X12024000Y12648000D01*
X12024000Y12648000D02*
X12024000Y16762800D01*
X12024000Y16762800D02*
X10754000Y16762800D01*
X10754000Y16762800D02*
X10754000Y12648000D01*
D12*
%TO.C,R11*%
X45963750Y6297224D02*
X45963750Y5787776D01*
X44918750Y6297224D02*
X44918750Y5787776D01*
%TO.C,C2*%
X22968750Y17537776D02*
X22968750Y18047224D01*
X24013750Y17537776D02*
X24013750Y18047224D01*
D11*
%TO.C,U1*%
X26531250Y25747900D02*
X34151250Y25747900D01*
X26531250Y21937900D02*
X26531250Y25747900D01*
X34151250Y25747900D02*
X34151250Y21937900D01*
X34151250Y21937900D02*
X26531250Y21937900D01*
D12*
%TO.C,R7*%
X44963750Y14397224D02*
X44963750Y13887776D01*
X43918750Y14397224D02*
X43918750Y13887776D01*
%TO.C,D1*%
X37041250Y9382500D02*
X39041250Y9382500D01*
X37041250Y9382500D02*
X37041250Y13392500D01*
X39041250Y9382500D02*
X39041250Y13392500D01*
D11*
%TO.C,U2*%
X34151250Y15887100D02*
X26531250Y15887100D01*
X34151250Y19697100D02*
X34151250Y15887100D01*
X26531250Y15887100D02*
X26531250Y19697100D01*
X26531250Y19697100D02*
X34151250Y19697100D01*
D12*
%TO.C,Q3*%
X19203750Y9102500D02*
X17528750Y9102500D01*
X19203750Y9102500D02*
X19853750Y9102500D01*
X19203750Y5982500D02*
X18553750Y5982500D01*
X19203750Y5982500D02*
X19853750Y5982500D01*
%TO.C,R4*%
X46763750Y18497224D02*
X46763750Y17987776D01*
X45718750Y18497224D02*
X45718750Y17987776D01*
%TO.C,R10*%
X16712500Y7824724D02*
X16712500Y7315276D01*
X15667500Y7824724D02*
X15667500Y7315276D01*
%TO.C,Q4*%
X42041250Y7602500D02*
X40366250Y7602500D01*
X42041250Y7602500D02*
X42691250Y7602500D01*
X42041250Y4482500D02*
X41391250Y4482500D01*
X42041250Y4482500D02*
X42691250Y4482500D01*
%TO.C,R6*%
X45972500Y10204724D02*
X45972500Y9695276D01*
X44927500Y10204724D02*
X44927500Y9695276D01*
%TO.C,Q5*%
X42041250Y8482500D02*
X43716250Y8482500D01*
X42041250Y8482500D02*
X41391250Y8482500D01*
X42041250Y11602500D02*
X42691250Y11602500D01*
X42041250Y11602500D02*
X41391250Y11602500D01*
%TO.C,R9*%
X22212500Y18044724D02*
X22212500Y17535276D01*
X21167500Y18044724D02*
X21167500Y17535276D01*
%TO.C,R3*%
X40463750Y18497224D02*
X40463750Y17987776D01*
X39418750Y18497224D02*
X39418750Y17987776D01*
%TO.C,C1*%
X37613750Y24047224D02*
X37613750Y23537776D01*
X36568750Y24047224D02*
X36568750Y23537776D01*
%TO.C,D2*%
X23941250Y8202500D02*
X21941250Y8202500D01*
X23941250Y8202500D02*
X23941250Y4192500D01*
X21941250Y8202500D02*
X21941250Y4192500D01*
D11*
%TO.C,U4*%
X26531250Y7747900D02*
X34151250Y7747900D01*
X26531250Y3937900D02*
X26531250Y7747900D01*
X34151250Y7747900D02*
X34151250Y3937900D01*
X34151250Y3937900D02*
X26531250Y3937900D01*
D12*
%TO.C,R5*%
X16486526Y4365000D02*
X16995974Y4365000D01*
X16486526Y3320000D02*
X16995974Y3320000D01*
%TO.C,R1*%
X20363750Y22147224D02*
X20363750Y21637776D01*
X19318750Y22147224D02*
X19318750Y21637776D01*
%TO.C,Q1*%
X43078750Y16682500D02*
X44753750Y16682500D01*
X43078750Y16682500D02*
X42428750Y16682500D01*
X43078750Y19802500D02*
X43728750Y19802500D01*
X43078750Y19802500D02*
X42428750Y19802500D01*
%TO.C,C4*%
X37713750Y6097224D02*
X37713750Y5587776D01*
X36668750Y6097224D02*
X36668750Y5587776D01*
%TO.C,R8*%
X15718750Y11587776D02*
X15718750Y12097224D01*
X16763750Y11587776D02*
X16763750Y12097224D01*
D11*
%TO.C,U3*%
X34151250Y9887100D02*
X26531250Y9887100D01*
X34151250Y13697100D02*
X34151250Y9887100D01*
X26531250Y9887100D02*
X26531250Y13697100D01*
X26531250Y13697100D02*
X34151250Y13697100D01*
D12*
%TO.C,Q2*%
X19203750Y10232500D02*
X20878750Y10232500D01*
X19203750Y10232500D02*
X18553750Y10232500D01*
X19203750Y13352500D02*
X19853750Y13352500D01*
X19203750Y13352500D02*
X18553750Y13352500D01*
%TO.C,R2*%
X21118750Y21637776D02*
X21118750Y22147224D01*
X22163750Y21637776D02*
X22163750Y22147224D01*
%TO.C,C3*%
X22968750Y11537776D02*
X22968750Y12047224D01*
X24013750Y11537776D02*
X24013750Y12047224D01*
%TD*%
M02*
