%TF.GenerationSoftware,KiCad,Pcbnew,7.0.10*%
%TF.CreationDate,2024-08-02T12:55:58+01:00*%
%TF.ProjectId,RL78I1C_PMOD_PROG_ADAPTOR_ISO,524c3738-4931-4435-9f50-4d4f445f5052,0*%
%TF.SameCoordinates,PX5b8d800PY7997ee0*%
%TF.FileFunction,Legend,Bot*%
%TF.FilePolarity,Positive*%
%FSLAX46Y46*%
G04 Gerber Fmt 4.6, Leading zero omitted, Abs format (unit mm)*
G04 Created by KiCad (PCBNEW 7.0.10) date 2024-08-02 12:55:58*
%MOMM*%
%LPD*%
G01*
G04 APERTURE LIST*
%ADD10C,0.150000*%
%ADD11C,0.500000*%
%ADD12C,0.120000*%
G04 APERTURE END LIST*
D10*
X58015160Y8321800D02*
X58158017Y8274181D01*
X58158017Y8274181D02*
X58396112Y8274181D01*
X58396112Y8274181D02*
X58491350Y8321800D01*
X58491350Y8321800D02*
X58538969Y8369420D01*
X58538969Y8369420D02*
X58586588Y8464658D01*
X58586588Y8464658D02*
X58586588Y8559896D01*
X58586588Y8559896D02*
X58538969Y8655134D01*
X58538969Y8655134D02*
X58491350Y8702753D01*
X58491350Y8702753D02*
X58396112Y8750372D01*
X58396112Y8750372D02*
X58205636Y8797991D01*
X58205636Y8797991D02*
X58110398Y8845610D01*
X58110398Y8845610D02*
X58062779Y8893229D01*
X58062779Y8893229D02*
X58015160Y8988467D01*
X58015160Y8988467D02*
X58015160Y9083705D01*
X58015160Y9083705D02*
X58062779Y9178943D01*
X58062779Y9178943D02*
X58110398Y9226562D01*
X58110398Y9226562D02*
X58205636Y9274181D01*
X58205636Y9274181D02*
X58443731Y9274181D01*
X58443731Y9274181D02*
X58586588Y9226562D01*
X59015160Y8274181D02*
X59015160Y8940848D01*
X59015160Y9274181D02*
X58967541Y9226562D01*
X58967541Y9226562D02*
X59015160Y9178943D01*
X59015160Y9178943D02*
X59062779Y9226562D01*
X59062779Y9226562D02*
X59015160Y9274181D01*
X59015160Y9274181D02*
X59015160Y9178943D01*
X59634207Y8274181D02*
X59538969Y8321800D01*
X59538969Y8321800D02*
X59491350Y8417039D01*
X59491350Y8417039D02*
X59491350Y9274181D01*
X60015160Y8274181D02*
X60015160Y9274181D01*
X60110398Y8655134D02*
X60396112Y8274181D01*
X60396112Y8940848D02*
X60015160Y8559896D01*
X60777065Y8321800D02*
X60872303Y8274181D01*
X60872303Y8274181D02*
X61062779Y8274181D01*
X61062779Y8274181D02*
X61158017Y8321800D01*
X61158017Y8321800D02*
X61205636Y8417039D01*
X61205636Y8417039D02*
X61205636Y8464658D01*
X61205636Y8464658D02*
X61158017Y8559896D01*
X61158017Y8559896D02*
X61062779Y8607515D01*
X61062779Y8607515D02*
X60919922Y8607515D01*
X60919922Y8607515D02*
X60824684Y8655134D01*
X60824684Y8655134D02*
X60777065Y8750372D01*
X60777065Y8750372D02*
X60777065Y8797991D01*
X60777065Y8797991D02*
X60824684Y8893229D01*
X60824684Y8893229D02*
X60919922Y8940848D01*
X60919922Y8940848D02*
X61062779Y8940848D01*
X61062779Y8940848D02*
X61158017Y8893229D01*
X62062779Y8321800D02*
X61967541Y8274181D01*
X61967541Y8274181D02*
X61777065Y8274181D01*
X61777065Y8274181D02*
X61681827Y8321800D01*
X61681827Y8321800D02*
X61634208Y8369420D01*
X61634208Y8369420D02*
X61586589Y8464658D01*
X61586589Y8464658D02*
X61586589Y8750372D01*
X61586589Y8750372D02*
X61634208Y8845610D01*
X61634208Y8845610D02*
X61681827Y8893229D01*
X61681827Y8893229D02*
X61777065Y8940848D01*
X61777065Y8940848D02*
X61967541Y8940848D01*
X61967541Y8940848D02*
X62062779Y8893229D01*
X62491351Y8274181D02*
X62491351Y8940848D01*
X62491351Y8750372D02*
X62538970Y8845610D01*
X62538970Y8845610D02*
X62586589Y8893229D01*
X62586589Y8893229D02*
X62681827Y8940848D01*
X62681827Y8940848D02*
X62777065Y8940848D01*
X63491351Y8321800D02*
X63396113Y8274181D01*
X63396113Y8274181D02*
X63205637Y8274181D01*
X63205637Y8274181D02*
X63110399Y8321800D01*
X63110399Y8321800D02*
X63062780Y8417039D01*
X63062780Y8417039D02*
X63062780Y8797991D01*
X63062780Y8797991D02*
X63110399Y8893229D01*
X63110399Y8893229D02*
X63205637Y8940848D01*
X63205637Y8940848D02*
X63396113Y8940848D01*
X63396113Y8940848D02*
X63491351Y8893229D01*
X63491351Y8893229D02*
X63538970Y8797991D01*
X63538970Y8797991D02*
X63538970Y8702753D01*
X63538970Y8702753D02*
X63062780Y8607515D01*
X64348494Y8321800D02*
X64253256Y8274181D01*
X64253256Y8274181D02*
X64062780Y8274181D01*
X64062780Y8274181D02*
X63967542Y8321800D01*
X63967542Y8321800D02*
X63919923Y8417039D01*
X63919923Y8417039D02*
X63919923Y8797991D01*
X63919923Y8797991D02*
X63967542Y8893229D01*
X63967542Y8893229D02*
X64062780Y8940848D01*
X64062780Y8940848D02*
X64253256Y8940848D01*
X64253256Y8940848D02*
X64348494Y8893229D01*
X64348494Y8893229D02*
X64396113Y8797991D01*
X64396113Y8797991D02*
X64396113Y8702753D01*
X64396113Y8702753D02*
X63919923Y8607515D01*
X64824685Y8940848D02*
X64824685Y8274181D01*
X64824685Y8845610D02*
X64872304Y8893229D01*
X64872304Y8893229D02*
X64967542Y8940848D01*
X64967542Y8940848D02*
X65110399Y8940848D01*
X65110399Y8940848D02*
X65205637Y8893229D01*
X65205637Y8893229D02*
X65253256Y8797991D01*
X65253256Y8797991D02*
X65253256Y8274181D01*
D11*
X42006005Y13986762D02*
X42672672Y14939143D01*
X43148862Y13986762D02*
X43148862Y15986762D01*
X43148862Y15986762D02*
X42386957Y15986762D01*
X42386957Y15986762D02*
X42196481Y15891524D01*
X42196481Y15891524D02*
X42101243Y15796286D01*
X42101243Y15796286D02*
X42006005Y15605810D01*
X42006005Y15605810D02*
X42006005Y15320096D01*
X42006005Y15320096D02*
X42101243Y15129620D01*
X42101243Y15129620D02*
X42196481Y15034381D01*
X42196481Y15034381D02*
X42386957Y14939143D01*
X42386957Y14939143D02*
X43148862Y14939143D01*
X40196481Y13986762D02*
X41148862Y13986762D01*
X41148862Y13986762D02*
X41148862Y15986762D01*
X39720290Y15986762D02*
X38386957Y15986762D01*
X38386957Y15986762D02*
X39244100Y13986762D01*
X37339338Y15129620D02*
X37529814Y15224858D01*
X37529814Y15224858D02*
X37625052Y15320096D01*
X37625052Y15320096D02*
X37720290Y15510572D01*
X37720290Y15510572D02*
X37720290Y15605810D01*
X37720290Y15605810D02*
X37625052Y15796286D01*
X37625052Y15796286D02*
X37529814Y15891524D01*
X37529814Y15891524D02*
X37339338Y15986762D01*
X37339338Y15986762D02*
X36958385Y15986762D01*
X36958385Y15986762D02*
X36767909Y15891524D01*
X36767909Y15891524D02*
X36672671Y15796286D01*
X36672671Y15796286D02*
X36577433Y15605810D01*
X36577433Y15605810D02*
X36577433Y15510572D01*
X36577433Y15510572D02*
X36672671Y15320096D01*
X36672671Y15320096D02*
X36767909Y15224858D01*
X36767909Y15224858D02*
X36958385Y15129620D01*
X36958385Y15129620D02*
X37339338Y15129620D01*
X37339338Y15129620D02*
X37529814Y15034381D01*
X37529814Y15034381D02*
X37625052Y14939143D01*
X37625052Y14939143D02*
X37720290Y14748667D01*
X37720290Y14748667D02*
X37720290Y14367715D01*
X37720290Y14367715D02*
X37625052Y14177239D01*
X37625052Y14177239D02*
X37529814Y14082000D01*
X37529814Y14082000D02*
X37339338Y13986762D01*
X37339338Y13986762D02*
X36958385Y13986762D01*
X36958385Y13986762D02*
X36767909Y14082000D01*
X36767909Y14082000D02*
X36672671Y14177239D01*
X36672671Y14177239D02*
X36577433Y14367715D01*
X36577433Y14367715D02*
X36577433Y14748667D01*
X36577433Y14748667D02*
X36672671Y14939143D01*
X36672671Y14939143D02*
X36767909Y15034381D01*
X36767909Y15034381D02*
X36958385Y15129620D01*
X34291719Y16082000D02*
X36006004Y13510572D01*
X33625052Y13986762D02*
X33625052Y15986762D01*
X31625052Y13986762D02*
X32767909Y13986762D01*
X32196481Y13986762D02*
X32196481Y15986762D01*
X32196481Y15986762D02*
X32386957Y15701048D01*
X32386957Y15701048D02*
X32577433Y15510572D01*
X32577433Y15510572D02*
X32767909Y15415334D01*
X29625052Y14177239D02*
X29720290Y14082000D01*
X29720290Y14082000D02*
X30006004Y13986762D01*
X30006004Y13986762D02*
X30196480Y13986762D01*
X30196480Y13986762D02*
X30482195Y14082000D01*
X30482195Y14082000D02*
X30672671Y14272477D01*
X30672671Y14272477D02*
X30767909Y14462953D01*
X30767909Y14462953D02*
X30863147Y14843905D01*
X30863147Y14843905D02*
X30863147Y15129620D01*
X30863147Y15129620D02*
X30767909Y15510572D01*
X30767909Y15510572D02*
X30672671Y15701048D01*
X30672671Y15701048D02*
X30482195Y15891524D01*
X30482195Y15891524D02*
X30196480Y15986762D01*
X30196480Y15986762D02*
X30006004Y15986762D01*
X30006004Y15986762D02*
X29720290Y15891524D01*
X29720290Y15891524D02*
X29625052Y15796286D01*
X27244099Y13986762D02*
X27244099Y15986762D01*
X27244099Y15986762D02*
X26482194Y15986762D01*
X26482194Y15986762D02*
X26291718Y15891524D01*
X26291718Y15891524D02*
X26196480Y15796286D01*
X26196480Y15796286D02*
X26101242Y15605810D01*
X26101242Y15605810D02*
X26101242Y15320096D01*
X26101242Y15320096D02*
X26196480Y15129620D01*
X26196480Y15129620D02*
X26291718Y15034381D01*
X26291718Y15034381D02*
X26482194Y14939143D01*
X26482194Y14939143D02*
X27244099Y14939143D01*
X25244099Y13986762D02*
X25244099Y15986762D01*
X25244099Y15986762D02*
X24577432Y14558191D01*
X24577432Y14558191D02*
X23910766Y15986762D01*
X23910766Y15986762D02*
X23910766Y13986762D01*
X22577433Y15986762D02*
X22196480Y15986762D01*
X22196480Y15986762D02*
X22006004Y15891524D01*
X22006004Y15891524D02*
X21815528Y15701048D01*
X21815528Y15701048D02*
X21720290Y15320096D01*
X21720290Y15320096D02*
X21720290Y14653429D01*
X21720290Y14653429D02*
X21815528Y14272477D01*
X21815528Y14272477D02*
X22006004Y14082000D01*
X22006004Y14082000D02*
X22196480Y13986762D01*
X22196480Y13986762D02*
X22577433Y13986762D01*
X22577433Y13986762D02*
X22767909Y14082000D01*
X22767909Y14082000D02*
X22958385Y14272477D01*
X22958385Y14272477D02*
X23053623Y14653429D01*
X23053623Y14653429D02*
X23053623Y15320096D01*
X23053623Y15320096D02*
X22958385Y15701048D01*
X22958385Y15701048D02*
X22767909Y15891524D01*
X22767909Y15891524D02*
X22577433Y15986762D01*
X20863147Y13986762D02*
X20863147Y15986762D01*
X20863147Y15986762D02*
X20386957Y15986762D01*
X20386957Y15986762D02*
X20101242Y15891524D01*
X20101242Y15891524D02*
X19910766Y15701048D01*
X19910766Y15701048D02*
X19815528Y15510572D01*
X19815528Y15510572D02*
X19720290Y15129620D01*
X19720290Y15129620D02*
X19720290Y14843905D01*
X19720290Y14843905D02*
X19815528Y14462953D01*
X19815528Y14462953D02*
X19910766Y14272477D01*
X19910766Y14272477D02*
X20101242Y14082000D01*
X20101242Y14082000D02*
X20386957Y13986762D01*
X20386957Y13986762D02*
X20863147Y13986762D01*
X43148862Y10766762D02*
X43148862Y12766762D01*
X43148862Y12766762D02*
X42386957Y12766762D01*
X42386957Y12766762D02*
X42196481Y12671524D01*
X42196481Y12671524D02*
X42101243Y12576286D01*
X42101243Y12576286D02*
X42006005Y12385810D01*
X42006005Y12385810D02*
X42006005Y12100096D01*
X42006005Y12100096D02*
X42101243Y11909620D01*
X42101243Y11909620D02*
X42196481Y11814381D01*
X42196481Y11814381D02*
X42386957Y11719143D01*
X42386957Y11719143D02*
X43148862Y11719143D01*
X41148862Y10766762D02*
X41148862Y12100096D01*
X41148862Y11719143D02*
X41053624Y11909620D01*
X41053624Y11909620D02*
X40958386Y12004858D01*
X40958386Y12004858D02*
X40767910Y12100096D01*
X40767910Y12100096D02*
X40577433Y12100096D01*
X39625053Y10766762D02*
X39815529Y10862000D01*
X39815529Y10862000D02*
X39910767Y10957239D01*
X39910767Y10957239D02*
X40006005Y11147715D01*
X40006005Y11147715D02*
X40006005Y11719143D01*
X40006005Y11719143D02*
X39910767Y11909620D01*
X39910767Y11909620D02*
X39815529Y12004858D01*
X39815529Y12004858D02*
X39625053Y12100096D01*
X39625053Y12100096D02*
X39339338Y12100096D01*
X39339338Y12100096D02*
X39148862Y12004858D01*
X39148862Y12004858D02*
X39053624Y11909620D01*
X39053624Y11909620D02*
X38958386Y11719143D01*
X38958386Y11719143D02*
X38958386Y11147715D01*
X38958386Y11147715D02*
X39053624Y10957239D01*
X39053624Y10957239D02*
X39148862Y10862000D01*
X39148862Y10862000D02*
X39339338Y10766762D01*
X39339338Y10766762D02*
X39625053Y10766762D01*
X37244100Y12100096D02*
X37244100Y10481048D01*
X37244100Y10481048D02*
X37339338Y10290572D01*
X37339338Y10290572D02*
X37434576Y10195334D01*
X37434576Y10195334D02*
X37625053Y10100096D01*
X37625053Y10100096D02*
X37910767Y10100096D01*
X37910767Y10100096D02*
X38101243Y10195334D01*
X37244100Y10862000D02*
X37434576Y10766762D01*
X37434576Y10766762D02*
X37815529Y10766762D01*
X37815529Y10766762D02*
X38006005Y10862000D01*
X38006005Y10862000D02*
X38101243Y10957239D01*
X38101243Y10957239D02*
X38196481Y11147715D01*
X38196481Y11147715D02*
X38196481Y11719143D01*
X38196481Y11719143D02*
X38101243Y11909620D01*
X38101243Y11909620D02*
X38006005Y12004858D01*
X38006005Y12004858D02*
X37815529Y12100096D01*
X37815529Y12100096D02*
X37434576Y12100096D01*
X37434576Y12100096D02*
X37244100Y12004858D01*
X36291719Y10766762D02*
X36291719Y12100096D01*
X36291719Y11719143D02*
X36196481Y11909620D01*
X36196481Y11909620D02*
X36101243Y12004858D01*
X36101243Y12004858D02*
X35910767Y12100096D01*
X35910767Y12100096D02*
X35720290Y12100096D01*
X34196481Y10766762D02*
X34196481Y11814381D01*
X34196481Y11814381D02*
X34291719Y12004858D01*
X34291719Y12004858D02*
X34482195Y12100096D01*
X34482195Y12100096D02*
X34863148Y12100096D01*
X34863148Y12100096D02*
X35053624Y12004858D01*
X34196481Y10862000D02*
X34386957Y10766762D01*
X34386957Y10766762D02*
X34863148Y10766762D01*
X34863148Y10766762D02*
X35053624Y10862000D01*
X35053624Y10862000D02*
X35148862Y11052477D01*
X35148862Y11052477D02*
X35148862Y11242953D01*
X35148862Y11242953D02*
X35053624Y11433429D01*
X35053624Y11433429D02*
X34863148Y11528667D01*
X34863148Y11528667D02*
X34386957Y11528667D01*
X34386957Y11528667D02*
X34196481Y11623905D01*
X33244100Y10766762D02*
X33244100Y12100096D01*
X33244100Y11909620D02*
X33148862Y12004858D01*
X33148862Y12004858D02*
X32958386Y12100096D01*
X32958386Y12100096D02*
X32672671Y12100096D01*
X32672671Y12100096D02*
X32482195Y12004858D01*
X32482195Y12004858D02*
X32386957Y11814381D01*
X32386957Y11814381D02*
X32386957Y10766762D01*
X32386957Y11814381D02*
X32291719Y12004858D01*
X32291719Y12004858D02*
X32101243Y12100096D01*
X32101243Y12100096D02*
X31815529Y12100096D01*
X31815529Y12100096D02*
X31625052Y12004858D01*
X31625052Y12004858D02*
X31529814Y11814381D01*
X31529814Y11814381D02*
X31529814Y10766762D01*
X30577433Y10766762D02*
X30577433Y12100096D01*
X30577433Y11909620D02*
X30482195Y12004858D01*
X30482195Y12004858D02*
X30291719Y12100096D01*
X30291719Y12100096D02*
X30006004Y12100096D01*
X30006004Y12100096D02*
X29815528Y12004858D01*
X29815528Y12004858D02*
X29720290Y11814381D01*
X29720290Y11814381D02*
X29720290Y10766762D01*
X29720290Y11814381D02*
X29625052Y12004858D01*
X29625052Y12004858D02*
X29434576Y12100096D01*
X29434576Y12100096D02*
X29148862Y12100096D01*
X29148862Y12100096D02*
X28958385Y12004858D01*
X28958385Y12004858D02*
X28863147Y11814381D01*
X28863147Y11814381D02*
X28863147Y10766762D01*
X27910766Y10766762D02*
X27910766Y12100096D01*
X27910766Y12766762D02*
X28006004Y12671524D01*
X28006004Y12671524D02*
X27910766Y12576286D01*
X27910766Y12576286D02*
X27815528Y12671524D01*
X27815528Y12671524D02*
X27910766Y12766762D01*
X27910766Y12766762D02*
X27910766Y12576286D01*
X26958385Y12100096D02*
X26958385Y10766762D01*
X26958385Y11909620D02*
X26863147Y12004858D01*
X26863147Y12004858D02*
X26672671Y12100096D01*
X26672671Y12100096D02*
X26386956Y12100096D01*
X26386956Y12100096D02*
X26196480Y12004858D01*
X26196480Y12004858D02*
X26101242Y11814381D01*
X26101242Y11814381D02*
X26101242Y10766762D01*
X24291718Y12100096D02*
X24291718Y10481048D01*
X24291718Y10481048D02*
X24386956Y10290572D01*
X24386956Y10290572D02*
X24482194Y10195334D01*
X24482194Y10195334D02*
X24672671Y10100096D01*
X24672671Y10100096D02*
X24958385Y10100096D01*
X24958385Y10100096D02*
X25148861Y10195334D01*
X24291718Y10862000D02*
X24482194Y10766762D01*
X24482194Y10766762D02*
X24863147Y10766762D01*
X24863147Y10766762D02*
X25053623Y10862000D01*
X25053623Y10862000D02*
X25148861Y10957239D01*
X25148861Y10957239D02*
X25244099Y11147715D01*
X25244099Y11147715D02*
X25244099Y11719143D01*
X25244099Y11719143D02*
X25148861Y11909620D01*
X25148861Y11909620D02*
X25053623Y12004858D01*
X25053623Y12004858D02*
X24863147Y12100096D01*
X24863147Y12100096D02*
X24482194Y12100096D01*
X24482194Y12100096D02*
X24291718Y12004858D01*
X21910765Y11338191D02*
X20958384Y11338191D01*
X22101241Y10766762D02*
X21434575Y12766762D01*
X21434575Y12766762D02*
X20767908Y10766762D01*
X19244098Y10766762D02*
X19244098Y12766762D01*
X19244098Y10862000D02*
X19434574Y10766762D01*
X19434574Y10766762D02*
X19815527Y10766762D01*
X19815527Y10766762D02*
X20006003Y10862000D01*
X20006003Y10862000D02*
X20101241Y10957239D01*
X20101241Y10957239D02*
X20196479Y11147715D01*
X20196479Y11147715D02*
X20196479Y11719143D01*
X20196479Y11719143D02*
X20101241Y11909620D01*
X20101241Y11909620D02*
X20006003Y12004858D01*
X20006003Y12004858D02*
X19815527Y12100096D01*
X19815527Y12100096D02*
X19434574Y12100096D01*
X19434574Y12100096D02*
X19244098Y12004858D01*
X17434574Y10766762D02*
X17434574Y11814381D01*
X17434574Y11814381D02*
X17529812Y12004858D01*
X17529812Y12004858D02*
X17720288Y12100096D01*
X17720288Y12100096D02*
X18101241Y12100096D01*
X18101241Y12100096D02*
X18291717Y12004858D01*
X17434574Y10862000D02*
X17625050Y10766762D01*
X17625050Y10766762D02*
X18101241Y10766762D01*
X18101241Y10766762D02*
X18291717Y10862000D01*
X18291717Y10862000D02*
X18386955Y11052477D01*
X18386955Y11052477D02*
X18386955Y11242953D01*
X18386955Y11242953D02*
X18291717Y11433429D01*
X18291717Y11433429D02*
X18101241Y11528667D01*
X18101241Y11528667D02*
X17625050Y11528667D01*
X17625050Y11528667D02*
X17434574Y11623905D01*
X16482193Y12100096D02*
X16482193Y10100096D01*
X16482193Y12004858D02*
X16291717Y12100096D01*
X16291717Y12100096D02*
X15910764Y12100096D01*
X15910764Y12100096D02*
X15720288Y12004858D01*
X15720288Y12004858D02*
X15625050Y11909620D01*
X15625050Y11909620D02*
X15529812Y11719143D01*
X15529812Y11719143D02*
X15529812Y11147715D01*
X15529812Y11147715D02*
X15625050Y10957239D01*
X15625050Y10957239D02*
X15720288Y10862000D01*
X15720288Y10862000D02*
X15910764Y10766762D01*
X15910764Y10766762D02*
X16291717Y10766762D01*
X16291717Y10766762D02*
X16482193Y10862000D01*
X14958383Y12100096D02*
X14196479Y12100096D01*
X14672669Y12766762D02*
X14672669Y11052477D01*
X14672669Y11052477D02*
X14577431Y10862000D01*
X14577431Y10862000D02*
X14386955Y10766762D01*
X14386955Y10766762D02*
X14196479Y10766762D01*
X13244098Y10766762D02*
X13434574Y10862000D01*
X13434574Y10862000D02*
X13529812Y10957239D01*
X13529812Y10957239D02*
X13625050Y11147715D01*
X13625050Y11147715D02*
X13625050Y11719143D01*
X13625050Y11719143D02*
X13529812Y11909620D01*
X13529812Y11909620D02*
X13434574Y12004858D01*
X13434574Y12004858D02*
X13244098Y12100096D01*
X13244098Y12100096D02*
X12958383Y12100096D01*
X12958383Y12100096D02*
X12767907Y12004858D01*
X12767907Y12004858D02*
X12672669Y11909620D01*
X12672669Y11909620D02*
X12577431Y11719143D01*
X12577431Y11719143D02*
X12577431Y11147715D01*
X12577431Y11147715D02*
X12672669Y10957239D01*
X12672669Y10957239D02*
X12767907Y10862000D01*
X12767907Y10862000D02*
X12958383Y10766762D01*
X12958383Y10766762D02*
X13244098Y10766762D01*
X11720288Y10766762D02*
X11720288Y12100096D01*
X11720288Y11719143D02*
X11625050Y11909620D01*
X11625050Y11909620D02*
X11529812Y12004858D01*
X11529812Y12004858D02*
X11339336Y12100096D01*
X11339336Y12100096D02*
X11148859Y12100096D01*
X43434576Y9546762D02*
X42767910Y7546762D01*
X42767910Y7546762D02*
X42101243Y9546762D01*
X41529814Y9356286D02*
X41434576Y9451524D01*
X41434576Y9451524D02*
X41244100Y9546762D01*
X41244100Y9546762D02*
X40767909Y9546762D01*
X40767909Y9546762D02*
X40577433Y9451524D01*
X40577433Y9451524D02*
X40482195Y9356286D01*
X40482195Y9356286D02*
X40386957Y9165810D01*
X40386957Y9165810D02*
X40386957Y8975334D01*
X40386957Y8975334D02*
X40482195Y8689620D01*
X40482195Y8689620D02*
X41625052Y7546762D01*
X41625052Y7546762D02*
X40386957Y7546762D01*
X39529814Y7737239D02*
X39434576Y7642000D01*
X39434576Y7642000D02*
X39529814Y7546762D01*
X39529814Y7546762D02*
X39625052Y7642000D01*
X39625052Y7642000D02*
X39529814Y7737239D01*
X39529814Y7737239D02*
X39529814Y7546762D01*
X38196481Y9546762D02*
X38006004Y9546762D01*
X38006004Y9546762D02*
X37815528Y9451524D01*
X37815528Y9451524D02*
X37720290Y9356286D01*
X37720290Y9356286D02*
X37625052Y9165810D01*
X37625052Y9165810D02*
X37529814Y8784858D01*
X37529814Y8784858D02*
X37529814Y8308667D01*
X37529814Y8308667D02*
X37625052Y7927715D01*
X37625052Y7927715D02*
X37720290Y7737239D01*
X37720290Y7737239D02*
X37815528Y7642000D01*
X37815528Y7642000D02*
X38006004Y7546762D01*
X38006004Y7546762D02*
X38196481Y7546762D01*
X38196481Y7546762D02*
X38386957Y7642000D01*
X38386957Y7642000D02*
X38482195Y7737239D01*
X38482195Y7737239D02*
X38577433Y7927715D01*
X38577433Y7927715D02*
X38672671Y8308667D01*
X38672671Y8308667D02*
X38672671Y8784858D01*
X38672671Y8784858D02*
X38577433Y9165810D01*
X38577433Y9165810D02*
X38482195Y9356286D01*
X38482195Y9356286D02*
X38386957Y9451524D01*
X38386957Y9451524D02*
X38196481Y9546762D01*
X36291719Y9546762D02*
X36101242Y9546762D01*
X36101242Y9546762D02*
X35910766Y9451524D01*
X35910766Y9451524D02*
X35815528Y9356286D01*
X35815528Y9356286D02*
X35720290Y9165810D01*
X35720290Y9165810D02*
X35625052Y8784858D01*
X35625052Y8784858D02*
X35625052Y8308667D01*
X35625052Y8308667D02*
X35720290Y7927715D01*
X35720290Y7927715D02*
X35815528Y7737239D01*
X35815528Y7737239D02*
X35910766Y7642000D01*
X35910766Y7642000D02*
X36101242Y7546762D01*
X36101242Y7546762D02*
X36291719Y7546762D01*
X36291719Y7546762D02*
X36482195Y7642000D01*
X36482195Y7642000D02*
X36577433Y7737239D01*
X36577433Y7737239D02*
X36672671Y7927715D01*
X36672671Y7927715D02*
X36767909Y8308667D01*
X36767909Y8308667D02*
X36767909Y8784858D01*
X36767909Y8784858D02*
X36672671Y9165810D01*
X36672671Y9165810D02*
X36577433Y9356286D01*
X36577433Y9356286D02*
X36482195Y9451524D01*
X36482195Y9451524D02*
X36291719Y9546762D01*
X42196481Y6326762D02*
X43148862Y6326762D01*
X43148862Y6326762D02*
X43244100Y5374381D01*
X43244100Y5374381D02*
X43148862Y5469620D01*
X43148862Y5469620D02*
X42958386Y5564858D01*
X42958386Y5564858D02*
X42482195Y5564858D01*
X42482195Y5564858D02*
X42291719Y5469620D01*
X42291719Y5469620D02*
X42196481Y5374381D01*
X42196481Y5374381D02*
X42101243Y5183905D01*
X42101243Y5183905D02*
X42101243Y4707715D01*
X42101243Y4707715D02*
X42196481Y4517239D01*
X42196481Y4517239D02*
X42291719Y4422000D01*
X42291719Y4422000D02*
X42482195Y4326762D01*
X42482195Y4326762D02*
X42958386Y4326762D01*
X42958386Y4326762D02*
X43148862Y4422000D01*
X43148862Y4422000D02*
X43244100Y4517239D01*
X41244100Y4326762D02*
X41244100Y6326762D01*
X41053624Y5088667D02*
X40482195Y4326762D01*
X40482195Y5660096D02*
X41244100Y4898191D01*
X39815528Y5660096D02*
X39339338Y4326762D01*
X39339338Y4326762D02*
X38863147Y5660096D01*
X35529813Y4326762D02*
X36672670Y4326762D01*
X36101242Y4326762D02*
X36101242Y6326762D01*
X36101242Y6326762D02*
X36291718Y6041048D01*
X36291718Y6041048D02*
X36482194Y5850572D01*
X36482194Y5850572D02*
X36672670Y5755334D01*
X33720289Y6326762D02*
X34672670Y6326762D01*
X34672670Y6326762D02*
X34767908Y5374381D01*
X34767908Y5374381D02*
X34672670Y5469620D01*
X34672670Y5469620D02*
X34482194Y5564858D01*
X34482194Y5564858D02*
X34006003Y5564858D01*
X34006003Y5564858D02*
X33815527Y5469620D01*
X33815527Y5469620D02*
X33720289Y5374381D01*
X33720289Y5374381D02*
X33625051Y5183905D01*
X33625051Y5183905D02*
X33625051Y4707715D01*
X33625051Y4707715D02*
X33720289Y4517239D01*
X33720289Y4517239D02*
X33815527Y4422000D01*
X33815527Y4422000D02*
X34006003Y4326762D01*
X34006003Y4326762D02*
X34482194Y4326762D01*
X34482194Y4326762D02*
X34672670Y4422000D01*
X34672670Y4422000D02*
X34767908Y4517239D01*
X32767908Y4326762D02*
X32767908Y6326762D01*
X32767908Y6326762D02*
X32101241Y4898191D01*
X32101241Y4898191D02*
X31434575Y6326762D01*
X31434575Y6326762D02*
X31434575Y4326762D01*
X30482194Y4326762D02*
X30482194Y6326762D01*
X30482194Y5564858D02*
X30291718Y5660096D01*
X30291718Y5660096D02*
X29910765Y5660096D01*
X29910765Y5660096D02*
X29720289Y5564858D01*
X29720289Y5564858D02*
X29625051Y5469620D01*
X29625051Y5469620D02*
X29529813Y5279143D01*
X29529813Y5279143D02*
X29529813Y4707715D01*
X29529813Y4707715D02*
X29625051Y4517239D01*
X29625051Y4517239D02*
X29720289Y4422000D01*
X29720289Y4422000D02*
X29910765Y4326762D01*
X29910765Y4326762D02*
X30291718Y4326762D01*
X30291718Y4326762D02*
X30482194Y4422000D01*
X28672670Y5660096D02*
X28672670Y3660096D01*
X28672670Y5564858D02*
X28482194Y5660096D01*
X28482194Y5660096D02*
X28101241Y5660096D01*
X28101241Y5660096D02*
X27910765Y5564858D01*
X27910765Y5564858D02*
X27815527Y5469620D01*
X27815527Y5469620D02*
X27720289Y5279143D01*
X27720289Y5279143D02*
X27720289Y4707715D01*
X27720289Y4707715D02*
X27815527Y4517239D01*
X27815527Y4517239D02*
X27910765Y4422000D01*
X27910765Y4422000D02*
X28101241Y4326762D01*
X28101241Y4326762D02*
X28482194Y4326762D01*
X28482194Y4326762D02*
X28672670Y4422000D01*
X26958384Y4422000D02*
X26767908Y4326762D01*
X26767908Y4326762D02*
X26386956Y4326762D01*
X26386956Y4326762D02*
X26196479Y4422000D01*
X26196479Y4422000D02*
X26101241Y4612477D01*
X26101241Y4612477D02*
X26101241Y4707715D01*
X26101241Y4707715D02*
X26196479Y4898191D01*
X26196479Y4898191D02*
X26386956Y4993429D01*
X26386956Y4993429D02*
X26672670Y4993429D01*
X26672670Y4993429D02*
X26863146Y5088667D01*
X26863146Y5088667D02*
X26958384Y5279143D01*
X26958384Y5279143D02*
X26958384Y5374381D01*
X26958384Y5374381D02*
X26863146Y5564858D01*
X26863146Y5564858D02*
X26672670Y5660096D01*
X26672670Y5660096D02*
X26386956Y5660096D01*
X26386956Y5660096D02*
X26196479Y5564858D01*
X23720288Y4326762D02*
X23720288Y6326762D01*
X22863145Y4422000D02*
X22672669Y4326762D01*
X22672669Y4326762D02*
X22291717Y4326762D01*
X22291717Y4326762D02*
X22101240Y4422000D01*
X22101240Y4422000D02*
X22006002Y4612477D01*
X22006002Y4612477D02*
X22006002Y4707715D01*
X22006002Y4707715D02*
X22101240Y4898191D01*
X22101240Y4898191D02*
X22291717Y4993429D01*
X22291717Y4993429D02*
X22577431Y4993429D01*
X22577431Y4993429D02*
X22767907Y5088667D01*
X22767907Y5088667D02*
X22863145Y5279143D01*
X22863145Y5279143D02*
X22863145Y5374381D01*
X22863145Y5374381D02*
X22767907Y5564858D01*
X22767907Y5564858D02*
X22577431Y5660096D01*
X22577431Y5660096D02*
X22291717Y5660096D01*
X22291717Y5660096D02*
X22101240Y5564858D01*
X20863145Y4326762D02*
X21053621Y4422000D01*
X21053621Y4422000D02*
X21148859Y4517239D01*
X21148859Y4517239D02*
X21244097Y4707715D01*
X21244097Y4707715D02*
X21244097Y5279143D01*
X21244097Y5279143D02*
X21148859Y5469620D01*
X21148859Y5469620D02*
X21053621Y5564858D01*
X21053621Y5564858D02*
X20863145Y5660096D01*
X20863145Y5660096D02*
X20577430Y5660096D01*
X20577430Y5660096D02*
X20386954Y5564858D01*
X20386954Y5564858D02*
X20291716Y5469620D01*
X20291716Y5469620D02*
X20196478Y5279143D01*
X20196478Y5279143D02*
X20196478Y4707715D01*
X20196478Y4707715D02*
X20291716Y4517239D01*
X20291716Y4517239D02*
X20386954Y4422000D01*
X20386954Y4422000D02*
X20577430Y4326762D01*
X20577430Y4326762D02*
X20863145Y4326762D01*
X19053621Y4326762D02*
X19244097Y4422000D01*
X19244097Y4422000D02*
X19339335Y4612477D01*
X19339335Y4612477D02*
X19339335Y6326762D01*
X17434573Y4326762D02*
X17434573Y5374381D01*
X17434573Y5374381D02*
X17529811Y5564858D01*
X17529811Y5564858D02*
X17720287Y5660096D01*
X17720287Y5660096D02*
X18101240Y5660096D01*
X18101240Y5660096D02*
X18291716Y5564858D01*
X17434573Y4422000D02*
X17625049Y4326762D01*
X17625049Y4326762D02*
X18101240Y4326762D01*
X18101240Y4326762D02*
X18291716Y4422000D01*
X18291716Y4422000D02*
X18386954Y4612477D01*
X18386954Y4612477D02*
X18386954Y4802953D01*
X18386954Y4802953D02*
X18291716Y4993429D01*
X18291716Y4993429D02*
X18101240Y5088667D01*
X18101240Y5088667D02*
X17625049Y5088667D01*
X17625049Y5088667D02*
X17434573Y5183905D01*
X16767906Y5660096D02*
X16006002Y5660096D01*
X16482192Y6326762D02*
X16482192Y4612477D01*
X16482192Y4612477D02*
X16386954Y4422000D01*
X16386954Y4422000D02*
X16196478Y4326762D01*
X16196478Y4326762D02*
X16006002Y4326762D01*
X15339335Y4326762D02*
X15339335Y5660096D01*
X15339335Y6326762D02*
X15434573Y6231524D01*
X15434573Y6231524D02*
X15339335Y6136286D01*
X15339335Y6136286D02*
X15244097Y6231524D01*
X15244097Y6231524D02*
X15339335Y6326762D01*
X15339335Y6326762D02*
X15339335Y6136286D01*
X14101240Y4326762D02*
X14291716Y4422000D01*
X14291716Y4422000D02*
X14386954Y4517239D01*
X14386954Y4517239D02*
X14482192Y4707715D01*
X14482192Y4707715D02*
X14482192Y5279143D01*
X14482192Y5279143D02*
X14386954Y5469620D01*
X14386954Y5469620D02*
X14291716Y5564858D01*
X14291716Y5564858D02*
X14101240Y5660096D01*
X14101240Y5660096D02*
X13815525Y5660096D01*
X13815525Y5660096D02*
X13625049Y5564858D01*
X13625049Y5564858D02*
X13529811Y5469620D01*
X13529811Y5469620D02*
X13434573Y5279143D01*
X13434573Y5279143D02*
X13434573Y4707715D01*
X13434573Y4707715D02*
X13529811Y4517239D01*
X13529811Y4517239D02*
X13625049Y4422000D01*
X13625049Y4422000D02*
X13815525Y4326762D01*
X13815525Y4326762D02*
X14101240Y4326762D01*
X12577430Y5660096D02*
X12577430Y4326762D01*
X12577430Y5469620D02*
X12482192Y5564858D01*
X12482192Y5564858D02*
X12291716Y5660096D01*
X12291716Y5660096D02*
X12006001Y5660096D01*
X12006001Y5660096D02*
X11815525Y5564858D01*
X11815525Y5564858D02*
X11720287Y5374381D01*
X11720287Y5374381D02*
X11720287Y4326762D01*
D10*
X46843819Y22963334D02*
X47558104Y22963334D01*
X47558104Y22963334D02*
X47700961Y23010953D01*
X47700961Y23010953D02*
X47796200Y23106191D01*
X47796200Y23106191D02*
X47843819Y23249048D01*
X47843819Y23249048D02*
X47843819Y23344286D01*
X46939057Y22534762D02*
X46891438Y22487143D01*
X46891438Y22487143D02*
X46843819Y22391905D01*
X46843819Y22391905D02*
X46843819Y22153810D01*
X46843819Y22153810D02*
X46891438Y22058572D01*
X46891438Y22058572D02*
X46939057Y22010953D01*
X46939057Y22010953D02*
X47034295Y21963334D01*
X47034295Y21963334D02*
X47129533Y21963334D01*
X47129533Y21963334D02*
X47272390Y22010953D01*
X47272390Y22010953D02*
X47843819Y22582381D01*
X47843819Y22582381D02*
X47843819Y21963334D01*
D12*
%TO.C,J2*%
X47830000Y8585000D02*
X45170000Y8585000D01*
X47830000Y18805000D02*
X47830000Y8585000D01*
X47830000Y18805000D02*
X45170000Y18805000D01*
X47830000Y20075000D02*
X47830000Y21405000D01*
X47830000Y21405000D02*
X46500000Y21405000D01*
X45170000Y18805000D02*
X45170000Y8585000D01*
%TD*%
M02*
