%TF.GenerationSoftware,KiCad,Pcbnew,7.0.10*%
%TF.CreationDate,2024-07-25T14:24:15+01:00*%
%TF.ProjectId,RL78I1C_PMOD_PROG_ADAPTOR_ISO,524c3738-4931-4435-9f50-4d4f445f5052,0*%
%TF.SameCoordinates,PX5b8d800PY7997ee0*%
%TF.FileFunction,Legend,Top*%
%TF.FilePolarity,Positive*%
%FSLAX46Y46*%
G04 Gerber Fmt 4.6, Leading zero omitted, Abs format (unit mm)*
G04 Created by KiCad (PCBNEW 7.0.10) date 2024-07-25 14:24:15*
%MOMM*%
%LPD*%
G01*
G04 APERTURE LIST*
%ADD10C,0.150000*%
%ADD11C,0.100000*%
%ADD12C,0.120000*%
G04 APERTURE END LIST*
D10*
X57915160Y18021800D02*
X58058017Y17974181D01*
X58058017Y17974181D02*
X58296112Y17974181D01*
X58296112Y17974181D02*
X58391350Y18021800D01*
X58391350Y18021800D02*
X58438969Y18069420D01*
X58438969Y18069420D02*
X58486588Y18164658D01*
X58486588Y18164658D02*
X58486588Y18259896D01*
X58486588Y18259896D02*
X58438969Y18355134D01*
X58438969Y18355134D02*
X58391350Y18402753D01*
X58391350Y18402753D02*
X58296112Y18450372D01*
X58296112Y18450372D02*
X58105636Y18497991D01*
X58105636Y18497991D02*
X58010398Y18545610D01*
X58010398Y18545610D02*
X57962779Y18593229D01*
X57962779Y18593229D02*
X57915160Y18688467D01*
X57915160Y18688467D02*
X57915160Y18783705D01*
X57915160Y18783705D02*
X57962779Y18878943D01*
X57962779Y18878943D02*
X58010398Y18926562D01*
X58010398Y18926562D02*
X58105636Y18974181D01*
X58105636Y18974181D02*
X58343731Y18974181D01*
X58343731Y18974181D02*
X58486588Y18926562D01*
X58915160Y17974181D02*
X58915160Y18640848D01*
X58915160Y18974181D02*
X58867541Y18926562D01*
X58867541Y18926562D02*
X58915160Y18878943D01*
X58915160Y18878943D02*
X58962779Y18926562D01*
X58962779Y18926562D02*
X58915160Y18974181D01*
X58915160Y18974181D02*
X58915160Y18878943D01*
X59534207Y17974181D02*
X59438969Y18021800D01*
X59438969Y18021800D02*
X59391350Y18117039D01*
X59391350Y18117039D02*
X59391350Y18974181D01*
X59915160Y17974181D02*
X59915160Y18974181D01*
X60010398Y18355134D02*
X60296112Y17974181D01*
X60296112Y18640848D02*
X59915160Y18259896D01*
X60677065Y18021800D02*
X60772303Y17974181D01*
X60772303Y17974181D02*
X60962779Y17974181D01*
X60962779Y17974181D02*
X61058017Y18021800D01*
X61058017Y18021800D02*
X61105636Y18117039D01*
X61105636Y18117039D02*
X61105636Y18164658D01*
X61105636Y18164658D02*
X61058017Y18259896D01*
X61058017Y18259896D02*
X60962779Y18307515D01*
X60962779Y18307515D02*
X60819922Y18307515D01*
X60819922Y18307515D02*
X60724684Y18355134D01*
X60724684Y18355134D02*
X60677065Y18450372D01*
X60677065Y18450372D02*
X60677065Y18497991D01*
X60677065Y18497991D02*
X60724684Y18593229D01*
X60724684Y18593229D02*
X60819922Y18640848D01*
X60819922Y18640848D02*
X60962779Y18640848D01*
X60962779Y18640848D02*
X61058017Y18593229D01*
X61962779Y18021800D02*
X61867541Y17974181D01*
X61867541Y17974181D02*
X61677065Y17974181D01*
X61677065Y17974181D02*
X61581827Y18021800D01*
X61581827Y18021800D02*
X61534208Y18069420D01*
X61534208Y18069420D02*
X61486589Y18164658D01*
X61486589Y18164658D02*
X61486589Y18450372D01*
X61486589Y18450372D02*
X61534208Y18545610D01*
X61534208Y18545610D02*
X61581827Y18593229D01*
X61581827Y18593229D02*
X61677065Y18640848D01*
X61677065Y18640848D02*
X61867541Y18640848D01*
X61867541Y18640848D02*
X61962779Y18593229D01*
X62391351Y17974181D02*
X62391351Y18640848D01*
X62391351Y18450372D02*
X62438970Y18545610D01*
X62438970Y18545610D02*
X62486589Y18593229D01*
X62486589Y18593229D02*
X62581827Y18640848D01*
X62581827Y18640848D02*
X62677065Y18640848D01*
X63391351Y18021800D02*
X63296113Y17974181D01*
X63296113Y17974181D02*
X63105637Y17974181D01*
X63105637Y17974181D02*
X63010399Y18021800D01*
X63010399Y18021800D02*
X62962780Y18117039D01*
X62962780Y18117039D02*
X62962780Y18497991D01*
X62962780Y18497991D02*
X63010399Y18593229D01*
X63010399Y18593229D02*
X63105637Y18640848D01*
X63105637Y18640848D02*
X63296113Y18640848D01*
X63296113Y18640848D02*
X63391351Y18593229D01*
X63391351Y18593229D02*
X63438970Y18497991D01*
X63438970Y18497991D02*
X63438970Y18402753D01*
X63438970Y18402753D02*
X62962780Y18307515D01*
X64248494Y18021800D02*
X64153256Y17974181D01*
X64153256Y17974181D02*
X63962780Y17974181D01*
X63962780Y17974181D02*
X63867542Y18021800D01*
X63867542Y18021800D02*
X63819923Y18117039D01*
X63819923Y18117039D02*
X63819923Y18497991D01*
X63819923Y18497991D02*
X63867542Y18593229D01*
X63867542Y18593229D02*
X63962780Y18640848D01*
X63962780Y18640848D02*
X64153256Y18640848D01*
X64153256Y18640848D02*
X64248494Y18593229D01*
X64248494Y18593229D02*
X64296113Y18497991D01*
X64296113Y18497991D02*
X64296113Y18402753D01*
X64296113Y18402753D02*
X63819923Y18307515D01*
X64724685Y18640848D02*
X64724685Y17974181D01*
X64724685Y18545610D02*
X64772304Y18593229D01*
X64772304Y18593229D02*
X64867542Y18640848D01*
X64867542Y18640848D02*
X65010399Y18640848D01*
X65010399Y18640848D02*
X65105637Y18593229D01*
X65105637Y18593229D02*
X65153256Y18497991D01*
X65153256Y18497991D02*
X65153256Y17974181D01*
X16854819Y13938096D02*
X17664342Y13938096D01*
X17664342Y13938096D02*
X17759580Y13985715D01*
X17759580Y13985715D02*
X17807200Y14033334D01*
X17807200Y14033334D02*
X17854819Y14128572D01*
X17854819Y14128572D02*
X17854819Y14319048D01*
X17854819Y14319048D02*
X17807200Y14414286D01*
X17807200Y14414286D02*
X17759580Y14461905D01*
X17759580Y14461905D02*
X17664342Y14509524D01*
X17664342Y14509524D02*
X16854819Y14509524D01*
X16854819Y15414286D02*
X16854819Y15223810D01*
X16854819Y15223810D02*
X16902438Y15128572D01*
X16902438Y15128572D02*
X16950057Y15080953D01*
X16950057Y15080953D02*
X17092914Y14985715D01*
X17092914Y14985715D02*
X17283390Y14938096D01*
X17283390Y14938096D02*
X17664342Y14938096D01*
X17664342Y14938096D02*
X17759580Y14985715D01*
X17759580Y14985715D02*
X17807200Y15033334D01*
X17807200Y15033334D02*
X17854819Y15128572D01*
X17854819Y15128572D02*
X17854819Y15319048D01*
X17854819Y15319048D02*
X17807200Y15414286D01*
X17807200Y15414286D02*
X17759580Y15461905D01*
X17759580Y15461905D02*
X17664342Y15509524D01*
X17664342Y15509524D02*
X17426247Y15509524D01*
X17426247Y15509524D02*
X17331009Y15461905D01*
X17331009Y15461905D02*
X17283390Y15414286D01*
X17283390Y15414286D02*
X17235771Y15319048D01*
X17235771Y15319048D02*
X17235771Y15128572D01*
X17235771Y15128572D02*
X17283390Y15033334D01*
X17283390Y15033334D02*
X17331009Y14985715D01*
X17331009Y14985715D02*
X17426247Y14938096D01*
X42154819Y4238096D02*
X42964342Y4238096D01*
X42964342Y4238096D02*
X43059580Y4285715D01*
X43059580Y4285715D02*
X43107200Y4333334D01*
X43107200Y4333334D02*
X43154819Y4428572D01*
X43154819Y4428572D02*
X43154819Y4619048D01*
X43154819Y4619048D02*
X43107200Y4714286D01*
X43107200Y4714286D02*
X43059580Y4761905D01*
X43059580Y4761905D02*
X42964342Y4809524D01*
X42964342Y4809524D02*
X42154819Y4809524D01*
X42154819Y5761905D02*
X42154819Y5285715D01*
X42154819Y5285715D02*
X42631009Y5238096D01*
X42631009Y5238096D02*
X42583390Y5285715D01*
X42583390Y5285715D02*
X42535771Y5380953D01*
X42535771Y5380953D02*
X42535771Y5619048D01*
X42535771Y5619048D02*
X42583390Y5714286D01*
X42583390Y5714286D02*
X42631009Y5761905D01*
X42631009Y5761905D02*
X42726247Y5809524D01*
X42726247Y5809524D02*
X42964342Y5809524D01*
X42964342Y5809524D02*
X43059580Y5761905D01*
X43059580Y5761905D02*
X43107200Y5714286D01*
X43107200Y5714286D02*
X43154819Y5619048D01*
X43154819Y5619048D02*
X43154819Y5380953D01*
X43154819Y5380953D02*
X43107200Y5285715D01*
X43107200Y5285715D02*
X43059580Y5238096D01*
X18159580Y8920834D02*
X18207200Y8873215D01*
X18207200Y8873215D02*
X18254819Y8730358D01*
X18254819Y8730358D02*
X18254819Y8635120D01*
X18254819Y8635120D02*
X18207200Y8492263D01*
X18207200Y8492263D02*
X18111961Y8397025D01*
X18111961Y8397025D02*
X18016723Y8349406D01*
X18016723Y8349406D02*
X17826247Y8301787D01*
X17826247Y8301787D02*
X17683390Y8301787D01*
X17683390Y8301787D02*
X17492914Y8349406D01*
X17492914Y8349406D02*
X17397676Y8397025D01*
X17397676Y8397025D02*
X17302438Y8492263D01*
X17302438Y8492263D02*
X17254819Y8635120D01*
X17254819Y8635120D02*
X17254819Y8730358D01*
X17254819Y8730358D02*
X17302438Y8873215D01*
X17302438Y8873215D02*
X17350057Y8920834D01*
X17254819Y9777977D02*
X17254819Y9587501D01*
X17254819Y9587501D02*
X17302438Y9492263D01*
X17302438Y9492263D02*
X17350057Y9444644D01*
X17350057Y9444644D02*
X17492914Y9349406D01*
X17492914Y9349406D02*
X17683390Y9301787D01*
X17683390Y9301787D02*
X18064342Y9301787D01*
X18064342Y9301787D02*
X18159580Y9349406D01*
X18159580Y9349406D02*
X18207200Y9397025D01*
X18207200Y9397025D02*
X18254819Y9492263D01*
X18254819Y9492263D02*
X18254819Y9682739D01*
X18254819Y9682739D02*
X18207200Y9777977D01*
X18207200Y9777977D02*
X18159580Y9825596D01*
X18159580Y9825596D02*
X18064342Y9873215D01*
X18064342Y9873215D02*
X17826247Y9873215D01*
X17826247Y9873215D02*
X17731009Y9825596D01*
X17731009Y9825596D02*
X17683390Y9777977D01*
X17683390Y9777977D02*
X17635771Y9682739D01*
X17635771Y9682739D02*
X17635771Y9492263D01*
X17635771Y9492263D02*
X17683390Y9397025D01*
X17683390Y9397025D02*
X17731009Y9349406D01*
X17731009Y9349406D02*
X17826247Y9301787D01*
X36359580Y3033334D02*
X36407200Y2985715D01*
X36407200Y2985715D02*
X36454819Y2842858D01*
X36454819Y2842858D02*
X36454819Y2747620D01*
X36454819Y2747620D02*
X36407200Y2604763D01*
X36407200Y2604763D02*
X36311961Y2509525D01*
X36311961Y2509525D02*
X36216723Y2461906D01*
X36216723Y2461906D02*
X36026247Y2414287D01*
X36026247Y2414287D02*
X35883390Y2414287D01*
X35883390Y2414287D02*
X35692914Y2461906D01*
X35692914Y2461906D02*
X35597676Y2509525D01*
X35597676Y2509525D02*
X35502438Y2604763D01*
X35502438Y2604763D02*
X35454819Y2747620D01*
X35454819Y2747620D02*
X35454819Y2842858D01*
X35454819Y2842858D02*
X35502438Y2985715D01*
X35502438Y2985715D02*
X35550057Y3033334D01*
X35454819Y3938096D02*
X35454819Y3461906D01*
X35454819Y3461906D02*
X35931009Y3414287D01*
X35931009Y3414287D02*
X35883390Y3461906D01*
X35883390Y3461906D02*
X35835771Y3557144D01*
X35835771Y3557144D02*
X35835771Y3795239D01*
X35835771Y3795239D02*
X35883390Y3890477D01*
X35883390Y3890477D02*
X35931009Y3938096D01*
X35931009Y3938096D02*
X36026247Y3985715D01*
X36026247Y3985715D02*
X36264342Y3985715D01*
X36264342Y3985715D02*
X36359580Y3938096D01*
X36359580Y3938096D02*
X36407200Y3890477D01*
X36407200Y3890477D02*
X36454819Y3795239D01*
X36454819Y3795239D02*
X36454819Y3557144D01*
X36454819Y3557144D02*
X36407200Y3461906D01*
X36407200Y3461906D02*
X36359580Y3414287D01*
X20009580Y15116334D02*
X20057200Y15068715D01*
X20057200Y15068715D02*
X20104819Y14925858D01*
X20104819Y14925858D02*
X20104819Y14830620D01*
X20104819Y14830620D02*
X20057200Y14687763D01*
X20057200Y14687763D02*
X19961961Y14592525D01*
X19961961Y14592525D02*
X19866723Y14544906D01*
X19866723Y14544906D02*
X19676247Y14497287D01*
X19676247Y14497287D02*
X19533390Y14497287D01*
X19533390Y14497287D02*
X19342914Y14544906D01*
X19342914Y14544906D02*
X19247676Y14592525D01*
X19247676Y14592525D02*
X19152438Y14687763D01*
X19152438Y14687763D02*
X19104819Y14830620D01*
X19104819Y14830620D02*
X19104819Y14925858D01*
X19104819Y14925858D02*
X19152438Y15068715D01*
X19152438Y15068715D02*
X19200057Y15116334D01*
X19200057Y15497287D02*
X19152438Y15544906D01*
X19152438Y15544906D02*
X19104819Y15640144D01*
X19104819Y15640144D02*
X19104819Y15878239D01*
X19104819Y15878239D02*
X19152438Y15973477D01*
X19152438Y15973477D02*
X19200057Y16021096D01*
X19200057Y16021096D02*
X19295295Y16068715D01*
X19295295Y16068715D02*
X19390533Y16068715D01*
X19390533Y16068715D02*
X19533390Y16021096D01*
X19533390Y16021096D02*
X20104819Y15449668D01*
X20104819Y15449668D02*
X20104819Y16068715D01*
D11*
X22438095Y27260781D02*
X22438095Y26451258D01*
X22438095Y26451258D02*
X22485714Y26356020D01*
X22485714Y26356020D02*
X22533333Y26308400D01*
X22533333Y26308400D02*
X22628571Y26260781D01*
X22628571Y26260781D02*
X22819047Y26260781D01*
X22819047Y26260781D02*
X22914285Y26308400D01*
X22914285Y26308400D02*
X22961904Y26356020D01*
X22961904Y26356020D02*
X23009523Y26451258D01*
X23009523Y26451258D02*
X23009523Y27260781D01*
X24009523Y26260781D02*
X23438095Y26260781D01*
X23723809Y26260781D02*
X23723809Y27260781D01*
X23723809Y27260781D02*
X23628571Y27117924D01*
X23628571Y27117924D02*
X23533333Y27022686D01*
X23533333Y27022686D02*
X23438095Y26975067D01*
D10*
X13420819Y17097334D02*
X12944628Y16764001D01*
X13420819Y16525906D02*
X12420819Y16525906D01*
X12420819Y16525906D02*
X12420819Y16906858D01*
X12420819Y16906858D02*
X12468438Y17002096D01*
X12468438Y17002096D02*
X12516057Y17049715D01*
X12516057Y17049715D02*
X12611295Y17097334D01*
X12611295Y17097334D02*
X12754152Y17097334D01*
X12754152Y17097334D02*
X12849390Y17049715D01*
X12849390Y17049715D02*
X12897009Y17002096D01*
X12897009Y17002096D02*
X12944628Y16906858D01*
X12944628Y16906858D02*
X12944628Y16525906D01*
X12420819Y17430668D02*
X12420819Y18097334D01*
X12420819Y18097334D02*
X13420819Y17668763D01*
X41868819Y20589906D02*
X40868819Y20589906D01*
X40868819Y20589906D02*
X40868819Y20828001D01*
X40868819Y20828001D02*
X40916438Y20970858D01*
X40916438Y20970858D02*
X41011676Y21066096D01*
X41011676Y21066096D02*
X41106914Y21113715D01*
X41106914Y21113715D02*
X41297390Y21161334D01*
X41297390Y21161334D02*
X41440247Y21161334D01*
X41440247Y21161334D02*
X41630723Y21113715D01*
X41630723Y21113715D02*
X41725961Y21066096D01*
X41725961Y21066096D02*
X41821200Y20970858D01*
X41821200Y20970858D02*
X41868819Y20828001D01*
X41868819Y20828001D02*
X41868819Y20589906D01*
X41868819Y22113715D02*
X41868819Y21542287D01*
X41868819Y21828001D02*
X40868819Y21828001D01*
X40868819Y21828001D02*
X41011676Y21732763D01*
X41011676Y21732763D02*
X41106914Y21637525D01*
X41106914Y21637525D02*
X41154533Y21542287D01*
D11*
X22438095Y21217581D02*
X22438095Y20408058D01*
X22438095Y20408058D02*
X22485714Y20312820D01*
X22485714Y20312820D02*
X22533333Y20265200D01*
X22533333Y20265200D02*
X22628571Y20217581D01*
X22628571Y20217581D02*
X22819047Y20217581D01*
X22819047Y20217581D02*
X22914285Y20265200D01*
X22914285Y20265200D02*
X22961904Y20312820D01*
X22961904Y20312820D02*
X23009523Y20408058D01*
X23009523Y20408058D02*
X23009523Y21217581D01*
X23438095Y21122343D02*
X23485714Y21169962D01*
X23485714Y21169962D02*
X23580952Y21217581D01*
X23580952Y21217581D02*
X23819047Y21217581D01*
X23819047Y21217581D02*
X23914285Y21169962D01*
X23914285Y21169962D02*
X23961904Y21122343D01*
X23961904Y21122343D02*
X24009523Y21027105D01*
X24009523Y21027105D02*
X24009523Y20931867D01*
X24009523Y20931867D02*
X23961904Y20789010D01*
X23961904Y20789010D02*
X23390476Y20217581D01*
X23390476Y20217581D02*
X24009523Y20217581D01*
D10*
X38104819Y20653334D02*
X37628628Y20320001D01*
X38104819Y20081906D02*
X37104819Y20081906D01*
X37104819Y20081906D02*
X37104819Y20462858D01*
X37104819Y20462858D02*
X37152438Y20558096D01*
X37152438Y20558096D02*
X37200057Y20605715D01*
X37200057Y20605715D02*
X37295295Y20653334D01*
X37295295Y20653334D02*
X37438152Y20653334D01*
X37438152Y20653334D02*
X37533390Y20605715D01*
X37533390Y20605715D02*
X37581009Y20558096D01*
X37581009Y20558096D02*
X37628628Y20462858D01*
X37628628Y20462858D02*
X37628628Y20081906D01*
X37438152Y21510477D02*
X38104819Y21510477D01*
X37057200Y21272382D02*
X37771485Y21034287D01*
X37771485Y21034287D02*
X37771485Y21653334D01*
X10054819Y2466667D02*
X10769104Y2466667D01*
X10769104Y2466667D02*
X10911961Y2419048D01*
X10911961Y2419048D02*
X11007200Y2323810D01*
X11007200Y2323810D02*
X11054819Y2180953D01*
X11054819Y2180953D02*
X11054819Y2085715D01*
X11054819Y3466667D02*
X11054819Y2895239D01*
X11054819Y3180953D02*
X10054819Y3180953D01*
X10054819Y3180953D02*
X10197676Y3085715D01*
X10197676Y3085715D02*
X10292914Y2990477D01*
X10292914Y2990477D02*
X10340533Y2895239D01*
X42177819Y17064834D02*
X41701628Y16731501D01*
X42177819Y16493406D02*
X41177819Y16493406D01*
X41177819Y16493406D02*
X41177819Y16874358D01*
X41177819Y16874358D02*
X41225438Y16969596D01*
X41225438Y16969596D02*
X41273057Y17017215D01*
X41273057Y17017215D02*
X41368295Y17064834D01*
X41368295Y17064834D02*
X41511152Y17064834D01*
X41511152Y17064834D02*
X41606390Y17017215D01*
X41606390Y17017215D02*
X41654009Y16969596D01*
X41654009Y16969596D02*
X41701628Y16874358D01*
X41701628Y16874358D02*
X41701628Y16493406D01*
X41177819Y17921977D02*
X41177819Y17731501D01*
X41177819Y17731501D02*
X41225438Y17636263D01*
X41225438Y17636263D02*
X41273057Y17588644D01*
X41273057Y17588644D02*
X41415914Y17493406D01*
X41415914Y17493406D02*
X41606390Y17445787D01*
X41606390Y17445787D02*
X41987342Y17445787D01*
X41987342Y17445787D02*
X42082580Y17493406D01*
X42082580Y17493406D02*
X42130200Y17541025D01*
X42130200Y17541025D02*
X42177819Y17636263D01*
X42177819Y17636263D02*
X42177819Y17826739D01*
X42177819Y17826739D02*
X42130200Y17921977D01*
X42130200Y17921977D02*
X42082580Y17969596D01*
X42082580Y17969596D02*
X41987342Y18017215D01*
X41987342Y18017215D02*
X41749247Y18017215D01*
X41749247Y18017215D02*
X41654009Y17969596D01*
X41654009Y17969596D02*
X41606390Y17921977D01*
X41606390Y17921977D02*
X41558771Y17826739D01*
X41558771Y17826739D02*
X41558771Y17636263D01*
X41558771Y17636263D02*
X41606390Y17541025D01*
X41606390Y17541025D02*
X41654009Y17493406D01*
X41654009Y17493406D02*
X41749247Y17445787D01*
X36534819Y20653334D02*
X36058628Y20320001D01*
X36534819Y20081906D02*
X35534819Y20081906D01*
X35534819Y20081906D02*
X35534819Y20462858D01*
X35534819Y20462858D02*
X35582438Y20558096D01*
X35582438Y20558096D02*
X35630057Y20605715D01*
X35630057Y20605715D02*
X35725295Y20653334D01*
X35725295Y20653334D02*
X35868152Y20653334D01*
X35868152Y20653334D02*
X35963390Y20605715D01*
X35963390Y20605715D02*
X36011009Y20558096D01*
X36011009Y20558096D02*
X36058628Y20462858D01*
X36058628Y20462858D02*
X36058628Y20081906D01*
X35534819Y20986668D02*
X35534819Y21605715D01*
X35534819Y21605715D02*
X35915771Y21272382D01*
X35915771Y21272382D02*
X35915771Y21415239D01*
X35915771Y21415239D02*
X35963390Y21510477D01*
X35963390Y21510477D02*
X36011009Y21558096D01*
X36011009Y21558096D02*
X36106247Y21605715D01*
X36106247Y21605715D02*
X36344342Y21605715D01*
X36344342Y21605715D02*
X36439580Y21558096D01*
X36439580Y21558096D02*
X36487200Y21510477D01*
X36487200Y21510477D02*
X36534819Y21415239D01*
X36534819Y21415239D02*
X36534819Y21129525D01*
X36534819Y21129525D02*
X36487200Y21034287D01*
X36487200Y21034287D02*
X36439580Y20986668D01*
X33607580Y21161334D02*
X33655200Y21113715D01*
X33655200Y21113715D02*
X33702819Y20970858D01*
X33702819Y20970858D02*
X33702819Y20875620D01*
X33702819Y20875620D02*
X33655200Y20732763D01*
X33655200Y20732763D02*
X33559961Y20637525D01*
X33559961Y20637525D02*
X33464723Y20589906D01*
X33464723Y20589906D02*
X33274247Y20542287D01*
X33274247Y20542287D02*
X33131390Y20542287D01*
X33131390Y20542287D02*
X32940914Y20589906D01*
X32940914Y20589906D02*
X32845676Y20637525D01*
X32845676Y20637525D02*
X32750438Y20732763D01*
X32750438Y20732763D02*
X32702819Y20875620D01*
X32702819Y20875620D02*
X32702819Y20970858D01*
X32702819Y20970858D02*
X32750438Y21113715D01*
X32750438Y21113715D02*
X32798057Y21161334D01*
X33702819Y22113715D02*
X33702819Y21542287D01*
X33702819Y21828001D02*
X32702819Y21828001D01*
X32702819Y21828001D02*
X32845676Y21732763D01*
X32845676Y21732763D02*
X32940914Y21637525D01*
X32940914Y21637525D02*
X32988533Y21542287D01*
X43776819Y10175906D02*
X42776819Y10175906D01*
X42776819Y10175906D02*
X42776819Y10414001D01*
X42776819Y10414001D02*
X42824438Y10556858D01*
X42824438Y10556858D02*
X42919676Y10652096D01*
X42919676Y10652096D02*
X43014914Y10699715D01*
X43014914Y10699715D02*
X43205390Y10747334D01*
X43205390Y10747334D02*
X43348247Y10747334D01*
X43348247Y10747334D02*
X43538723Y10699715D01*
X43538723Y10699715D02*
X43633961Y10652096D01*
X43633961Y10652096D02*
X43729200Y10556858D01*
X43729200Y10556858D02*
X43776819Y10414001D01*
X43776819Y10414001D02*
X43776819Y10175906D01*
X42872057Y11128287D02*
X42824438Y11175906D01*
X42824438Y11175906D02*
X42776819Y11271144D01*
X42776819Y11271144D02*
X42776819Y11509239D01*
X42776819Y11509239D02*
X42824438Y11604477D01*
X42824438Y11604477D02*
X42872057Y11652096D01*
X42872057Y11652096D02*
X42967295Y11699715D01*
X42967295Y11699715D02*
X43062533Y11699715D01*
X43062533Y11699715D02*
X43205390Y11652096D01*
X43205390Y11652096D02*
X43776819Y11080668D01*
X43776819Y11080668D02*
X43776819Y11699715D01*
D11*
X22438095Y9260781D02*
X22438095Y8451258D01*
X22438095Y8451258D02*
X22485714Y8356020D01*
X22485714Y8356020D02*
X22533333Y8308400D01*
X22533333Y8308400D02*
X22628571Y8260781D01*
X22628571Y8260781D02*
X22819047Y8260781D01*
X22819047Y8260781D02*
X22914285Y8308400D01*
X22914285Y8308400D02*
X22961904Y8356020D01*
X22961904Y8356020D02*
X23009523Y8451258D01*
X23009523Y8451258D02*
X23009523Y9260781D01*
X23914285Y8927448D02*
X23914285Y8260781D01*
X23676190Y9308400D02*
X23438095Y8594115D01*
X23438095Y8594115D02*
X24057142Y8594115D01*
D10*
X43954819Y17041334D02*
X43478628Y16708001D01*
X43954819Y16469906D02*
X42954819Y16469906D01*
X42954819Y16469906D02*
X42954819Y16850858D01*
X42954819Y16850858D02*
X43002438Y16946096D01*
X43002438Y16946096D02*
X43050057Y16993715D01*
X43050057Y16993715D02*
X43145295Y17041334D01*
X43145295Y17041334D02*
X43288152Y17041334D01*
X43288152Y17041334D02*
X43383390Y16993715D01*
X43383390Y16993715D02*
X43431009Y16946096D01*
X43431009Y16946096D02*
X43478628Y16850858D01*
X43478628Y16850858D02*
X43478628Y16469906D01*
X42954819Y17946096D02*
X42954819Y17469906D01*
X42954819Y17469906D02*
X43431009Y17422287D01*
X43431009Y17422287D02*
X43383390Y17469906D01*
X43383390Y17469906D02*
X43335771Y17565144D01*
X43335771Y17565144D02*
X43335771Y17803239D01*
X43335771Y17803239D02*
X43383390Y17898477D01*
X43383390Y17898477D02*
X43431009Y17946096D01*
X43431009Y17946096D02*
X43526247Y17993715D01*
X43526247Y17993715D02*
X43764342Y17993715D01*
X43764342Y17993715D02*
X43859580Y17946096D01*
X43859580Y17946096D02*
X43907200Y17898477D01*
X43907200Y17898477D02*
X43954819Y17803239D01*
X43954819Y17803239D02*
X43954819Y17565144D01*
X43954819Y17565144D02*
X43907200Y17469906D01*
X43907200Y17469906D02*
X43859580Y17422287D01*
X13166819Y21161334D02*
X12690628Y20828001D01*
X13166819Y20589906D02*
X12166819Y20589906D01*
X12166819Y20589906D02*
X12166819Y20970858D01*
X12166819Y20970858D02*
X12214438Y21066096D01*
X12214438Y21066096D02*
X12262057Y21113715D01*
X12262057Y21113715D02*
X12357295Y21161334D01*
X12357295Y21161334D02*
X12500152Y21161334D01*
X12500152Y21161334D02*
X12595390Y21113715D01*
X12595390Y21113715D02*
X12643009Y21066096D01*
X12643009Y21066096D02*
X12690628Y20970858D01*
X12690628Y20970858D02*
X12690628Y20589906D01*
X13166819Y22113715D02*
X13166819Y21542287D01*
X13166819Y21828001D02*
X12166819Y21828001D01*
X12166819Y21828001D02*
X12309676Y21732763D01*
X12309676Y21732763D02*
X12404914Y21637525D01*
X12404914Y21637525D02*
X12452533Y21542287D01*
X34852057Y13358762D02*
X34804438Y13263524D01*
X34804438Y13263524D02*
X34709200Y13168286D01*
X34709200Y13168286D02*
X34566342Y13025429D01*
X34566342Y13025429D02*
X34518723Y12930191D01*
X34518723Y12930191D02*
X34518723Y12834953D01*
X34756819Y12882572D02*
X34709200Y12787334D01*
X34709200Y12787334D02*
X34613961Y12692096D01*
X34613961Y12692096D02*
X34423485Y12644477D01*
X34423485Y12644477D02*
X34090152Y12644477D01*
X34090152Y12644477D02*
X33899676Y12692096D01*
X33899676Y12692096D02*
X33804438Y12787334D01*
X33804438Y12787334D02*
X33756819Y12882572D01*
X33756819Y12882572D02*
X33756819Y13073048D01*
X33756819Y13073048D02*
X33804438Y13168286D01*
X33804438Y13168286D02*
X33899676Y13263524D01*
X33899676Y13263524D02*
X34090152Y13311143D01*
X34090152Y13311143D02*
X34423485Y13311143D01*
X34423485Y13311143D02*
X34613961Y13263524D01*
X34613961Y13263524D02*
X34709200Y13168286D01*
X34709200Y13168286D02*
X34756819Y13073048D01*
X34756819Y13073048D02*
X34756819Y12882572D01*
X34756819Y14263524D02*
X34756819Y13692096D01*
X34756819Y13977810D02*
X33756819Y13977810D01*
X33756819Y13977810D02*
X33899676Y13882572D01*
X33899676Y13882572D02*
X33994914Y13787334D01*
X33994914Y13787334D02*
X34042533Y13692096D01*
X33659580Y3033334D02*
X33707200Y2985715D01*
X33707200Y2985715D02*
X33754819Y2842858D01*
X33754819Y2842858D02*
X33754819Y2747620D01*
X33754819Y2747620D02*
X33707200Y2604763D01*
X33707200Y2604763D02*
X33611961Y2509525D01*
X33611961Y2509525D02*
X33516723Y2461906D01*
X33516723Y2461906D02*
X33326247Y2414287D01*
X33326247Y2414287D02*
X33183390Y2414287D01*
X33183390Y2414287D02*
X32992914Y2461906D01*
X32992914Y2461906D02*
X32897676Y2509525D01*
X32897676Y2509525D02*
X32802438Y2604763D01*
X32802438Y2604763D02*
X32754819Y2747620D01*
X32754819Y2747620D02*
X32754819Y2842858D01*
X32754819Y2842858D02*
X32802438Y2985715D01*
X32802438Y2985715D02*
X32850057Y3033334D01*
X33088152Y3890477D02*
X33754819Y3890477D01*
X32707200Y3652382D02*
X33421485Y3414287D01*
X33421485Y3414287D02*
X33421485Y4033334D01*
X14944819Y17097334D02*
X14468628Y16764001D01*
X14944819Y16525906D02*
X13944819Y16525906D01*
X13944819Y16525906D02*
X13944819Y16906858D01*
X13944819Y16906858D02*
X13992438Y17002096D01*
X13992438Y17002096D02*
X14040057Y17049715D01*
X14040057Y17049715D02*
X14135295Y17097334D01*
X14135295Y17097334D02*
X14278152Y17097334D01*
X14278152Y17097334D02*
X14373390Y17049715D01*
X14373390Y17049715D02*
X14421009Y17002096D01*
X14421009Y17002096D02*
X14468628Y16906858D01*
X14468628Y16906858D02*
X14468628Y16525906D01*
X14373390Y17668763D02*
X14325771Y17573525D01*
X14325771Y17573525D02*
X14278152Y17525906D01*
X14278152Y17525906D02*
X14182914Y17478287D01*
X14182914Y17478287D02*
X14135295Y17478287D01*
X14135295Y17478287D02*
X14040057Y17525906D01*
X14040057Y17525906D02*
X13992438Y17573525D01*
X13992438Y17573525D02*
X13944819Y17668763D01*
X13944819Y17668763D02*
X13944819Y17859239D01*
X13944819Y17859239D02*
X13992438Y17954477D01*
X13992438Y17954477D02*
X14040057Y18002096D01*
X14040057Y18002096D02*
X14135295Y18049715D01*
X14135295Y18049715D02*
X14182914Y18049715D01*
X14182914Y18049715D02*
X14278152Y18002096D01*
X14278152Y18002096D02*
X14325771Y17954477D01*
X14325771Y17954477D02*
X14373390Y17859239D01*
X14373390Y17859239D02*
X14373390Y17668763D01*
X14373390Y17668763D02*
X14421009Y17573525D01*
X14421009Y17573525D02*
X14468628Y17525906D01*
X14468628Y17525906D02*
X14563866Y17478287D01*
X14563866Y17478287D02*
X14754342Y17478287D01*
X14754342Y17478287D02*
X14849580Y17525906D01*
X14849580Y17525906D02*
X14897200Y17573525D01*
X14897200Y17573525D02*
X14944819Y17668763D01*
X14944819Y17668763D02*
X14944819Y17859239D01*
X14944819Y17859239D02*
X14897200Y17954477D01*
X14897200Y17954477D02*
X14849580Y18002096D01*
X14849580Y18002096D02*
X14754342Y18049715D01*
X14754342Y18049715D02*
X14563866Y18049715D01*
X14563866Y18049715D02*
X14468628Y18002096D01*
X14468628Y18002096D02*
X14421009Y17954477D01*
X14421009Y17954477D02*
X14373390Y17859239D01*
X15549905Y3609181D02*
X15549905Y4609181D01*
X15549905Y4609181D02*
X15788000Y4609181D01*
X15788000Y4609181D02*
X15930857Y4561562D01*
X15930857Y4561562D02*
X16026095Y4466324D01*
X16026095Y4466324D02*
X16073714Y4371086D01*
X16073714Y4371086D02*
X16121333Y4180610D01*
X16121333Y4180610D02*
X16121333Y4037753D01*
X16121333Y4037753D02*
X16073714Y3847277D01*
X16073714Y3847277D02*
X16026095Y3752039D01*
X16026095Y3752039D02*
X15930857Y3656800D01*
X15930857Y3656800D02*
X15788000Y3609181D01*
X15788000Y3609181D02*
X15549905Y3609181D01*
X16454667Y4609181D02*
X17073714Y4609181D01*
X17073714Y4609181D02*
X16740381Y4228229D01*
X16740381Y4228229D02*
X16883238Y4228229D01*
X16883238Y4228229D02*
X16978476Y4180610D01*
X16978476Y4180610D02*
X17026095Y4132991D01*
X17026095Y4132991D02*
X17073714Y4037753D01*
X17073714Y4037753D02*
X17073714Y3799658D01*
X17073714Y3799658D02*
X17026095Y3704420D01*
X17026095Y3704420D02*
X16978476Y3656800D01*
X16978476Y3656800D02*
X16883238Y3609181D01*
X16883238Y3609181D02*
X16597524Y3609181D01*
X16597524Y3609181D02*
X16502286Y3656800D01*
X16502286Y3656800D02*
X16454667Y3704420D01*
D11*
X22438095Y15317581D02*
X22438095Y14508058D01*
X22438095Y14508058D02*
X22485714Y14412820D01*
X22485714Y14412820D02*
X22533333Y14365200D01*
X22533333Y14365200D02*
X22628571Y14317581D01*
X22628571Y14317581D02*
X22819047Y14317581D01*
X22819047Y14317581D02*
X22914285Y14365200D01*
X22914285Y14365200D02*
X22961904Y14412820D01*
X22961904Y14412820D02*
X23009523Y14508058D01*
X23009523Y14508058D02*
X23009523Y15317581D01*
X23390476Y15317581D02*
X24009523Y15317581D01*
X24009523Y15317581D02*
X23676190Y14936629D01*
X23676190Y14936629D02*
X23819047Y14936629D01*
X23819047Y14936629D02*
X23914285Y14889010D01*
X23914285Y14889010D02*
X23961904Y14841391D01*
X23961904Y14841391D02*
X24009523Y14746153D01*
X24009523Y14746153D02*
X24009523Y14508058D01*
X24009523Y14508058D02*
X23961904Y14412820D01*
X23961904Y14412820D02*
X23914285Y14365200D01*
X23914285Y14365200D02*
X23819047Y14317581D01*
X23819047Y14317581D02*
X23533333Y14317581D01*
X23533333Y14317581D02*
X23438095Y14365200D01*
X23438095Y14365200D02*
X23390476Y14412820D01*
D10*
X14690819Y21161334D02*
X14214628Y20828001D01*
X14690819Y20589906D02*
X13690819Y20589906D01*
X13690819Y20589906D02*
X13690819Y20970858D01*
X13690819Y20970858D02*
X13738438Y21066096D01*
X13738438Y21066096D02*
X13786057Y21113715D01*
X13786057Y21113715D02*
X13881295Y21161334D01*
X13881295Y21161334D02*
X14024152Y21161334D01*
X14024152Y21161334D02*
X14119390Y21113715D01*
X14119390Y21113715D02*
X14167009Y21066096D01*
X14167009Y21066096D02*
X14214628Y20970858D01*
X14214628Y20970858D02*
X14214628Y20589906D01*
X13786057Y21542287D02*
X13738438Y21589906D01*
X13738438Y21589906D02*
X13690819Y21685144D01*
X13690819Y21685144D02*
X13690819Y21923239D01*
X13690819Y21923239D02*
X13738438Y22018477D01*
X13738438Y22018477D02*
X13786057Y22066096D01*
X13786057Y22066096D02*
X13881295Y22113715D01*
X13881295Y22113715D02*
X13976533Y22113715D01*
X13976533Y22113715D02*
X14119390Y22066096D01*
X14119390Y22066096D02*
X14690819Y21494668D01*
X14690819Y21494668D02*
X14690819Y22113715D01*
X20009580Y9056334D02*
X20057200Y9008715D01*
X20057200Y9008715D02*
X20104819Y8865858D01*
X20104819Y8865858D02*
X20104819Y8770620D01*
X20104819Y8770620D02*
X20057200Y8627763D01*
X20057200Y8627763D02*
X19961961Y8532525D01*
X19961961Y8532525D02*
X19866723Y8484906D01*
X19866723Y8484906D02*
X19676247Y8437287D01*
X19676247Y8437287D02*
X19533390Y8437287D01*
X19533390Y8437287D02*
X19342914Y8484906D01*
X19342914Y8484906D02*
X19247676Y8532525D01*
X19247676Y8532525D02*
X19152438Y8627763D01*
X19152438Y8627763D02*
X19104819Y8770620D01*
X19104819Y8770620D02*
X19104819Y8865858D01*
X19104819Y8865858D02*
X19152438Y9008715D01*
X19152438Y9008715D02*
X19200057Y9056334D01*
X19104819Y9389668D02*
X19104819Y10008715D01*
X19104819Y10008715D02*
X19485771Y9675382D01*
X19485771Y9675382D02*
X19485771Y9818239D01*
X19485771Y9818239D02*
X19533390Y9913477D01*
X19533390Y9913477D02*
X19581009Y9961096D01*
X19581009Y9961096D02*
X19676247Y10008715D01*
X19676247Y10008715D02*
X19914342Y10008715D01*
X19914342Y10008715D02*
X20009580Y9961096D01*
X20009580Y9961096D02*
X20057200Y9913477D01*
X20057200Y9913477D02*
X20104819Y9818239D01*
X20104819Y9818239D02*
X20104819Y9532525D01*
X20104819Y9532525D02*
X20057200Y9437287D01*
X20057200Y9437287D02*
X20009580Y9389668D01*
D12*
%TO.C,U6*%
X15100000Y15310000D02*
X13300000Y15310000D01*
X13300000Y12090000D02*
X15750000Y12090000D01*
%TO.C,U5*%
X38600000Y4390000D02*
X40400000Y4390000D01*
X40400000Y7610000D02*
X37950000Y7610000D01*
%TO.C,C6*%
X17277500Y11645276D02*
X17277500Y12154724D01*
X18322500Y11645276D02*
X18322500Y12154724D01*
%TO.C,C5*%
X36522500Y6254724D02*
X36522500Y5745276D01*
X35477500Y6254724D02*
X35477500Y5745276D01*
%TO.C,C2*%
X19127500Y17695276D02*
X19127500Y18204724D01*
X20172500Y17695276D02*
X20172500Y18204724D01*
D11*
%TO.C,U1*%
X22690000Y25905400D02*
X30310000Y25905400D01*
X22690000Y22095400D02*
X22690000Y25905400D01*
X30310000Y25905400D02*
X30310000Y22095400D01*
X30310000Y22095400D02*
X22690000Y22095400D01*
D12*
%TO.C,R7*%
X16522500Y18204724D02*
X16522500Y17695276D01*
X15477500Y18204724D02*
X15477500Y17695276D01*
%TO.C,D1*%
X35140000Y25650000D02*
X35140000Y22350000D01*
X35140000Y25650000D02*
X40650000Y25650000D01*
X35140000Y22350000D02*
X40650000Y22350000D01*
D11*
%TO.C,U2*%
X30310000Y16044600D02*
X22690000Y16044600D01*
X30310000Y19854600D02*
X30310000Y16044600D01*
X22690000Y16044600D02*
X22690000Y19854600D01*
X22690000Y19854600D02*
X30310000Y19854600D01*
D12*
%TO.C,R4*%
X38172500Y18304724D02*
X38172500Y17795276D01*
X37127500Y18304724D02*
X37127500Y17795276D01*
D11*
%TO.C,J1*%
X10851600Y6062400D02*
X10851600Y8297600D01*
X9734000Y7180000D02*
X10851600Y6062400D01*
X9734000Y7180000D02*
X10851600Y8297600D01*
D12*
X9683200Y2252400D02*
X9683200Y27347600D01*
X9683200Y2252400D02*
X1190400Y2252400D01*
X9683200Y27347600D02*
X1190400Y27347600D01*
X1148800Y2252400D02*
X1148800Y27347600D01*
D11*
X9734000Y12768000D02*
X11004000Y12768000D01*
X11004000Y12768000D02*
X11004000Y16882800D01*
X11004000Y16882800D02*
X9734000Y16882800D01*
X9734000Y16882800D02*
X9734000Y12768000D01*
D12*
%TO.C,R6*%
X42372500Y14692224D02*
X42372500Y14182776D01*
X41327500Y14692224D02*
X41327500Y14182776D01*
%TO.C,R3*%
X36522500Y18304724D02*
X36522500Y17795276D01*
X35477500Y18304724D02*
X35477500Y17795276D01*
%TO.C,C1*%
X33772500Y24204724D02*
X33772500Y23695276D01*
X32727500Y24204724D02*
X32727500Y23695276D01*
%TO.C,D2*%
X35240000Y11800000D02*
X35240000Y8500000D01*
X35240000Y11800000D02*
X40750000Y11800000D01*
X35240000Y8500000D02*
X40750000Y8500000D01*
D11*
%TO.C,U4*%
X22690000Y7905400D02*
X30310000Y7905400D01*
X22690000Y4095400D02*
X22690000Y7905400D01*
X30310000Y7905400D02*
X30310000Y4095400D01*
X30310000Y4095400D02*
X22690000Y4095400D01*
D12*
%TO.C,R5*%
X44022500Y14692224D02*
X44022500Y14182776D01*
X42977500Y14692224D02*
X42977500Y14182776D01*
%TO.C,R1*%
X16522500Y22304724D02*
X16522500Y21795276D01*
X15477500Y22304724D02*
X15477500Y21795276D01*
%TO.C,Q1*%
X38710000Y15930000D02*
X35550000Y15930000D01*
X38710000Y15930000D02*
X38710000Y15000000D01*
X38710000Y12770000D02*
X37250000Y12770000D01*
X38710000Y12770000D02*
X38710000Y13700000D01*
%TO.C,C4*%
X33872500Y6254724D02*
X33872500Y5745276D01*
X32827500Y6254724D02*
X32827500Y5745276D01*
%TO.C,R8*%
X18322500Y18204724D02*
X18322500Y17695276D01*
X17277500Y18204724D02*
X17277500Y17695276D01*
%TO.C,D3*%
X15150000Y10510000D02*
X11850000Y10510000D01*
X15150000Y10510000D02*
X15150000Y5000000D01*
X11850000Y10510000D02*
X11850000Y5000000D01*
D11*
%TO.C,U3*%
X30310000Y10044600D02*
X22690000Y10044600D01*
X30310000Y13854600D02*
X30310000Y10044600D01*
X22690000Y10044600D02*
X22690000Y13854600D01*
X22690000Y13854600D02*
X30310000Y13854600D01*
D12*
%TO.C,R2*%
X17277500Y21795276D02*
X17277500Y22304724D01*
X18322500Y21795276D02*
X18322500Y22304724D01*
%TO.C,C3*%
X19127500Y11695276D02*
X19127500Y12204724D01*
X20172500Y11695276D02*
X20172500Y12204724D01*
%TD*%
M02*
