%TF.GenerationSoftware,KiCad,Pcbnew,7.0.10*%
%TF.CreationDate,2024-07-25T14:24:15+01:00*%
%TF.ProjectId,RL78I1C_PMOD_PROG_ADAPTOR_ISO,524c3738-4931-4435-9f50-4d4f445f5052,0*%
%TF.SameCoordinates,PX5b8d800PY7997ee0*%
%TF.FileFunction,Copper,L1,Top*%
%TF.FilePolarity,Positive*%
%FSLAX46Y46*%
G04 Gerber Fmt 4.6, Leading zero omitted, Abs format (unit mm)*
G04 Created by KiCad (PCBNEW 7.0.10) date 2024-07-25 14:24:15*
%MOMM*%
%LPD*%
G01*
G04 APERTURE LIST*
G04 Aperture macros list*
%AMRoundRect*
0 Rectangle with rounded corners*
0 $1 Rounding radius*
0 $2 $3 $4 $5 $6 $7 $8 $9 X,Y pos of 4 corners*
0 Add a 4 corners polygon primitive as box body*
4,1,4,$2,$3,$4,$5,$6,$7,$8,$9,$2,$3,0*
0 Add four circle primitives for the rounded corners*
1,1,$1+$1,$2,$3*
1,1,$1+$1,$4,$5*
1,1,$1+$1,$6,$7*
1,1,$1+$1,$8,$9*
0 Add four rect primitives between the rounded corners*
20,1,$1+$1,$2,$3,$4,$5,0*
20,1,$1+$1,$4,$5,$6,$7,0*
20,1,$1+$1,$6,$7,$8,$9,0*
20,1,$1+$1,$8,$9,$2,$3,0*%
G04 Aperture macros list end*
%ADD10C,0.150000*%
%TA.AperFunction,NonConductor*%
%ADD11C,0.150000*%
%TD*%
%TA.AperFunction,SMDPad,CuDef*%
%ADD12R,1.560000X0.650000*%
%TD*%
%TA.AperFunction,SMDPad,CuDef*%
%ADD13RoundRect,0.237500X0.237500X-0.250000X0.237500X0.250000X-0.237500X0.250000X-0.237500X-0.250000X0*%
%TD*%
%TA.AperFunction,SMDPad,CuDef*%
%ADD14RoundRect,0.237500X-0.237500X0.250000X-0.237500X-0.250000X0.237500X-0.250000X0.237500X0.250000X0*%
%TD*%
%TA.AperFunction,SMDPad,CuDef*%
%ADD15RoundRect,0.200000X-0.450000X-0.200000X0.450000X-0.200000X0.450000X0.200000X-0.450000X0.200000X0*%
%TD*%
%TA.AperFunction,SMDPad,CuDef*%
%ADD16RoundRect,0.250000X-1.000000X-0.650000X1.000000X-0.650000X1.000000X0.650000X-1.000000X0.650000X0*%
%TD*%
%TA.AperFunction,SMDPad,CuDef*%
%ADD17RoundRect,0.200000X0.450000X0.200000X-0.450000X0.200000X-0.450000X-0.200000X0.450000X-0.200000X0*%
%TD*%
%TA.AperFunction,ComponentPad*%
%ADD18R,1.700000X1.700000*%
%TD*%
%TA.AperFunction,ComponentPad*%
%ADD19O,1.700000X1.700000*%
%TD*%
%TA.AperFunction,SMDPad,CuDef*%
%ADD20R,1.900000X0.800000*%
%TD*%
%TA.AperFunction,SMDPad,CuDef*%
%ADD21RoundRect,0.250000X-0.650000X1.000000X-0.650000X-1.000000X0.650000X-1.000000X0.650000X1.000000X0*%
%TD*%
%TA.AperFunction,ViaPad*%
%ADD22C,0.800000*%
%TD*%
%TA.AperFunction,Conductor*%
%ADD23C,0.254000*%
%TD*%
%TA.AperFunction,Conductor*%
%ADD24C,0.512000*%
%TD*%
G04 APERTURE END LIST*
D10*
D11*
X58534207Y21569420D02*
X58486588Y21521800D01*
X58486588Y21521800D02*
X58343731Y21474181D01*
X58343731Y21474181D02*
X58248493Y21474181D01*
X58248493Y21474181D02*
X58105636Y21521800D01*
X58105636Y21521800D02*
X58010398Y21617039D01*
X58010398Y21617039D02*
X57962779Y21712277D01*
X57962779Y21712277D02*
X57915160Y21902753D01*
X57915160Y21902753D02*
X57915160Y22045610D01*
X57915160Y22045610D02*
X57962779Y22236086D01*
X57962779Y22236086D02*
X58010398Y22331324D01*
X58010398Y22331324D02*
X58105636Y22426562D01*
X58105636Y22426562D02*
X58248493Y22474181D01*
X58248493Y22474181D02*
X58343731Y22474181D01*
X58343731Y22474181D02*
X58486588Y22426562D01*
X58486588Y22426562D02*
X58534207Y22378943D01*
X59105636Y21474181D02*
X59010398Y21521800D01*
X59010398Y21521800D02*
X58962779Y21569420D01*
X58962779Y21569420D02*
X58915160Y21664658D01*
X58915160Y21664658D02*
X58915160Y21950372D01*
X58915160Y21950372D02*
X58962779Y22045610D01*
X58962779Y22045610D02*
X59010398Y22093229D01*
X59010398Y22093229D02*
X59105636Y22140848D01*
X59105636Y22140848D02*
X59248493Y22140848D01*
X59248493Y22140848D02*
X59343731Y22093229D01*
X59343731Y22093229D02*
X59391350Y22045610D01*
X59391350Y22045610D02*
X59438969Y21950372D01*
X59438969Y21950372D02*
X59438969Y21664658D01*
X59438969Y21664658D02*
X59391350Y21569420D01*
X59391350Y21569420D02*
X59343731Y21521800D01*
X59343731Y21521800D02*
X59248493Y21474181D01*
X59248493Y21474181D02*
X59105636Y21474181D01*
X59867541Y22140848D02*
X59867541Y21140848D01*
X59867541Y22093229D02*
X59962779Y22140848D01*
X59962779Y22140848D02*
X60153255Y22140848D01*
X60153255Y22140848D02*
X60248493Y22093229D01*
X60248493Y22093229D02*
X60296112Y22045610D01*
X60296112Y22045610D02*
X60343731Y21950372D01*
X60343731Y21950372D02*
X60343731Y21664658D01*
X60343731Y21664658D02*
X60296112Y21569420D01*
X60296112Y21569420D02*
X60248493Y21521800D01*
X60248493Y21521800D02*
X60153255Y21474181D01*
X60153255Y21474181D02*
X59962779Y21474181D01*
X59962779Y21474181D02*
X59867541Y21521800D01*
X60772303Y22140848D02*
X60772303Y21140848D01*
X60772303Y22093229D02*
X60867541Y22140848D01*
X60867541Y22140848D02*
X61058017Y22140848D01*
X61058017Y22140848D02*
X61153255Y22093229D01*
X61153255Y22093229D02*
X61200874Y22045610D01*
X61200874Y22045610D02*
X61248493Y21950372D01*
X61248493Y21950372D02*
X61248493Y21664658D01*
X61248493Y21664658D02*
X61200874Y21569420D01*
X61200874Y21569420D02*
X61153255Y21521800D01*
X61153255Y21521800D02*
X61058017Y21474181D01*
X61058017Y21474181D02*
X60867541Y21474181D01*
X60867541Y21474181D02*
X60772303Y21521800D01*
X62058017Y21521800D02*
X61962779Y21474181D01*
X61962779Y21474181D02*
X61772303Y21474181D01*
X61772303Y21474181D02*
X61677065Y21521800D01*
X61677065Y21521800D02*
X61629446Y21617039D01*
X61629446Y21617039D02*
X61629446Y21997991D01*
X61629446Y21997991D02*
X61677065Y22093229D01*
X61677065Y22093229D02*
X61772303Y22140848D01*
X61772303Y22140848D02*
X61962779Y22140848D01*
X61962779Y22140848D02*
X62058017Y22093229D01*
X62058017Y22093229D02*
X62105636Y21997991D01*
X62105636Y21997991D02*
X62105636Y21902753D01*
X62105636Y21902753D02*
X61629446Y21807515D01*
X62534208Y21474181D02*
X62534208Y22140848D01*
X62534208Y21950372D02*
X62581827Y22045610D01*
X62581827Y22045610D02*
X62629446Y22093229D01*
X62629446Y22093229D02*
X62724684Y22140848D01*
X62724684Y22140848D02*
X62819922Y22140848D01*
D12*
%TO.P,U6,1,NC*%
%TO.N,unconnected-(U6-NC-Pad1)*%
X15550000Y12750000D03*
%TO.P,U6,2*%
%TO.N,Net-(U3-Vo)*%
X15550000Y13700000D03*
%TO.P,U6,3,GND*%
%TO.N,GND*%
X15550000Y14650000D03*
%TO.P,U6,4*%
%TO.N,Net-(D3-K)*%
X12850000Y14650000D03*
%TO.P,U6,5,VCC*%
%TO.N,VCC*%
X12850000Y12750000D03*
%TD*%
%TO.P,U5,1,NC*%
%TO.N,unconnected-(U5-NC-Pad1)*%
X38150000Y6950000D03*
%TO.P,U5,2*%
%TO.N,Net-(U4-Vo)*%
X38150000Y6000000D03*
%TO.P,U5,3,GND*%
%TO.N,GNDD*%
X38150000Y5050000D03*
%TO.P,U5,4*%
%TO.N,Net-(D2-K)*%
X40850000Y5050000D03*
%TO.P,U5,5,VCC*%
%TO.N,VCOM*%
X40850000Y6950000D03*
%TD*%
D13*
%TO.P,C6,1*%
%TO.N,VCC*%
X17800000Y10987500D03*
%TO.P,C6,2*%
%TO.N,GND*%
X17800000Y12812500D03*
%TD*%
D14*
%TO.P,C5,1*%
%TO.N,VCOM*%
X36000000Y6912500D03*
%TO.P,C5,2*%
%TO.N,GNDD*%
X36000000Y5087500D03*
%TD*%
D13*
%TO.P,C2,1*%
%TO.N,VCC*%
X19650000Y17037500D03*
%TO.P,C2,2*%
%TO.N,GND*%
X19650000Y18862500D03*
%TD*%
D15*
%TO.P,U1,1,A*%
%TO.N,Net-(U1-A)*%
X21750000Y25245000D03*
%TO.P,U1,2,C*%
%TO.N,/~{RESET_OUT}*%
X21750000Y22705000D03*
%TO.P,U1,3,GND*%
%TO.N,GNDD*%
X31250000Y22705000D03*
%TO.P,U1,4,Vo*%
%TO.N,Net-(D1-K)*%
X31250000Y23975000D03*
%TO.P,U1,5,Vdd*%
%TO.N,VCOM*%
X31250000Y25245000D03*
%TD*%
D14*
%TO.P,R7,1*%
%TO.N,VCC*%
X16000000Y18862500D03*
%TO.P,R7,2*%
%TO.N,/TOOL0*%
X16000000Y17037500D03*
%TD*%
D16*
%TO.P,D1,1,K*%
%TO.N,Net-(D1-K)*%
X36650000Y24000000D03*
%TO.P,D1,2,A*%
%TO.N,/~{RESET_IN_MCU}*%
X40650000Y24000000D03*
%TD*%
D17*
%TO.P,U2,1,A*%
%TO.N,Net-(U2-A)*%
X31250000Y16705000D03*
%TO.P,U2,2,C*%
%TO.N,Net-(Q1-E)*%
X31250000Y19245000D03*
%TO.P,U2,3,GND*%
%TO.N,GND*%
X21750000Y19245000D03*
%TO.P,U2,4,Vo*%
%TO.N,/~{RESET_IN}*%
X21750000Y17975000D03*
%TO.P,U2,5,Vdd*%
%TO.N,VCC*%
X21750000Y16705000D03*
%TD*%
D14*
%TO.P,R4,1*%
%TO.N,VCOM*%
X37650000Y18962500D03*
%TO.P,R4,2*%
%TO.N,Net-(Q1-E)*%
X37650000Y17137500D03*
%TD*%
D18*
%TO.P,J1,1,Pin_1*%
%TO.N,unconnected-(J1-Pin_1-Pad1)*%
X6940000Y7180000D03*
D19*
%TO.P,J1,2,Pin_2*%
%TO.N,GND*%
X4400000Y7180000D03*
%TO.P,J1,3,Pin_3*%
%TO.N,unconnected-(J1-Pin_3-Pad3)*%
X6940000Y9720000D03*
%TO.P,J1,4,Pin_4*%
%TO.N,unconnected-(J1-Pin_4-Pad4)*%
X4400000Y9720000D03*
%TO.P,J1,5,Pin_5*%
%TO.N,/TOOL0*%
X6940000Y12260000D03*
%TO.P,J1,6,Pin_6*%
%TO.N,/~{RESET_IN}*%
X4400000Y12260000D03*
%TO.P,J1,7,Pin_7*%
%TO.N,unconnected-(J1-Pin_7-Pad7)*%
X6940000Y14800000D03*
%TO.P,J1,8,Pin_8*%
%TO.N,VCC*%
X4400000Y14800000D03*
%TO.P,J1,9,Pin_9*%
X6940000Y17340000D03*
%TO.P,J1,10,Pin_10*%
%TO.N,/~{RESET_OUT}*%
X4400000Y17340000D03*
%TO.P,J1,11,Pin_11*%
%TO.N,unconnected-(J1-Pin_11-Pad11)*%
X6940000Y19880000D03*
%TO.P,J1,12,Pin_12*%
%TO.N,GND*%
X4400000Y19880000D03*
%TO.P,J1,13,Pin_13*%
%TO.N,/~{RESET_OUT}*%
X6940000Y22420000D03*
%TO.P,J1,14,Pin_14*%
%TO.N,GND*%
X4400000Y22420000D03*
%TD*%
D14*
%TO.P,R6,1*%
%TO.N,VCOM*%
X41850000Y15350000D03*
%TO.P,R6,2*%
%TO.N,/TOOL0_MCU*%
X41850000Y13525000D03*
%TD*%
%TO.P,R3,1*%
%TO.N,VCOM*%
X36000000Y18962500D03*
%TO.P,R3,2*%
%TO.N,Net-(U2-A)*%
X36000000Y17137500D03*
%TD*%
%TO.P,C1,1*%
%TO.N,VCOM*%
X33250000Y24862500D03*
%TO.P,C1,2*%
%TO.N,GNDD*%
X33250000Y23037500D03*
%TD*%
D16*
%TO.P,D2,1,K*%
%TO.N,Net-(D2-K)*%
X36750000Y10150000D03*
%TO.P,D2,2,A*%
%TO.N,/TOOL0_MCU*%
X40750000Y10150000D03*
%TD*%
D15*
%TO.P,U4,1,A*%
%TO.N,Net-(D3-K)*%
X21750000Y7245000D03*
%TO.P,U4,2,C*%
%TO.N,/TOOL0*%
X21750000Y4705000D03*
%TO.P,U4,3,GND*%
%TO.N,GNDD*%
X31250000Y4705000D03*
%TO.P,U4,4,Vo*%
%TO.N,Net-(U4-Vo)*%
X31250000Y5975000D03*
%TO.P,U4,5,Vdd*%
%TO.N,VCOM*%
X31250000Y7245000D03*
%TD*%
D14*
%TO.P,R5,1*%
%TO.N,VCOM*%
X43500000Y15350000D03*
%TO.P,R5,2*%
%TO.N,Net-(D2-K)*%
X43500000Y13525000D03*
%TD*%
%TO.P,R1,1*%
%TO.N,/~{RESET_OUT}*%
X16000000Y22962500D03*
%TO.P,R1,2*%
%TO.N,VCC*%
X16000000Y21137500D03*
%TD*%
D20*
%TO.P,Q1,1,B*%
%TO.N,/~{RESET_OUT_MCU}*%
X36450000Y15300000D03*
%TO.P,Q1,2,E*%
%TO.N,Net-(Q1-E)*%
X36450000Y13400000D03*
%TO.P,Q1,3,C*%
%TO.N,GNDD*%
X39450000Y14350000D03*
%TD*%
D14*
%TO.P,C4,1*%
%TO.N,VCOM*%
X33350000Y6912500D03*
%TO.P,C4,2*%
%TO.N,GNDD*%
X33350000Y5087500D03*
%TD*%
%TO.P,R8,1*%
%TO.N,VCC*%
X17800000Y18862500D03*
%TO.P,R8,2*%
%TO.N,Net-(D3-K)*%
X17800000Y17037500D03*
%TD*%
D21*
%TO.P,D3,1,K*%
%TO.N,Net-(D3-K)*%
X13500000Y9000000D03*
%TO.P,D3,2,A*%
%TO.N,/TOOL0*%
X13500000Y5000000D03*
%TD*%
D17*
%TO.P,U3,1,A*%
%TO.N,Net-(D2-K)*%
X31250000Y10705000D03*
%TO.P,U3,2,C*%
%TO.N,/TOOL0_MCU*%
X31250000Y13245000D03*
%TO.P,U3,3,GND*%
%TO.N,GND*%
X21750000Y13245000D03*
%TO.P,U3,4,Vo*%
%TO.N,Net-(U3-Vo)*%
X21750000Y11975000D03*
%TO.P,U3,5,Vdd*%
%TO.N,VCC*%
X21750000Y10705000D03*
%TD*%
D13*
%TO.P,R2,1*%
%TO.N,VCC*%
X17800000Y21137500D03*
%TO.P,R2,2*%
%TO.N,Net-(U1-A)*%
X17800000Y22962500D03*
%TD*%
%TO.P,C3,1*%
%TO.N,VCC*%
X19650000Y11037500D03*
%TO.P,C3,2*%
%TO.N,GND*%
X19650000Y12862500D03*
%TD*%
D18*
%TO.P,J2,1,Pin_1*%
%TO.N,VCOM*%
X46500000Y20075000D03*
D19*
%TO.P,J2,2,Pin_2*%
%TO.N,/~{RESET_IN_MCU}*%
X46500000Y17535000D03*
%TO.P,J2,3,Pin_3*%
%TO.N,/~{RESET_OUT_MCU}*%
X46500000Y14995000D03*
%TO.P,J2,4,Pin_4*%
%TO.N,/TOOL0_MCU*%
X46500000Y12455000D03*
%TO.P,J2,5,Pin_5*%
%TO.N,GNDD*%
X46500000Y9915000D03*
%TD*%
D22*
%TO.N,GND*%
X19650000Y20300000D03*
X19650000Y14300000D03*
%TO.N,GNDD*%
X34700000Y5100000D03*
X39450000Y13050000D03*
X34550000Y23000000D03*
%TD*%
D23*
%TO.N,/TOOL0*%
X11717500Y17037500D02*
X6940000Y12260000D01*
X16000000Y17037500D02*
X11717500Y17037500D01*
D24*
%TO.N,GND*%
X3040000Y18520000D02*
X4400000Y19880000D01*
X3040000Y8540000D02*
X3040000Y18520000D01*
X4400000Y7180000D02*
X3040000Y8540000D01*
X4400000Y22420000D02*
X4400000Y19880000D01*
D23*
%TO.N,/TOOL0*%
X13500000Y5700000D02*
X13500000Y5000000D01*
X6940000Y12260000D02*
X13500000Y5700000D01*
%TO.N,/~{RESET_IN}*%
X7371897Y13491000D02*
X5631000Y13491000D01*
X11855897Y17975000D02*
X7371897Y13491000D01*
X21750000Y17975000D02*
X11855897Y17975000D01*
X5631000Y13491000D02*
X4400000Y12260000D01*
D24*
%TO.N,VCC*%
X6940000Y17340000D02*
X4400000Y14800000D01*
X8850000Y17340000D02*
X6940000Y17340000D01*
X12647500Y21137500D02*
X8850000Y17340000D01*
X16000000Y21137500D02*
X12647500Y21137500D01*
D23*
%TO.N,/~{RESET_OUT}*%
X7482500Y22962500D02*
X16000000Y22962500D01*
X6940000Y22420000D02*
X7482500Y22962500D01*
X5709000Y21189000D02*
X6940000Y22420000D01*
X5709000Y18649000D02*
X5709000Y21189000D01*
X4400000Y17340000D02*
X5709000Y18649000D01*
D24*
%TO.N,VCOM*%
X36000000Y6912500D02*
X33350000Y6912500D01*
D23*
%TO.N,Net-(D3-K)*%
X13556000Y15356000D02*
X16118500Y15356000D01*
X16118500Y15356000D02*
X17800000Y17037500D01*
X12850000Y14650000D02*
X13556000Y15356000D01*
X11689000Y10811000D02*
X13500000Y9000000D01*
X11689000Y13489000D02*
X11689000Y10811000D01*
X12850000Y14650000D02*
X11689000Y13489000D01*
%TO.N,Net-(U3-Vo)*%
X14400000Y13700000D02*
X15550000Y13700000D01*
X14200000Y13500000D02*
X14400000Y13700000D01*
X14200000Y12300854D02*
X14200000Y13500000D01*
X14594854Y11906000D02*
X14200000Y12300854D01*
X21750000Y11975000D02*
X21681000Y11906000D01*
X21681000Y11906000D02*
X14594854Y11906000D01*
D24*
%TO.N,VCC*%
X14612500Y10987500D02*
X12850000Y12750000D01*
X17800000Y10987500D02*
X14612500Y10987500D01*
D23*
%TO.N,Net-(D3-K)*%
X15255000Y7245000D02*
X13500000Y9000000D01*
X21750000Y7245000D02*
X15255000Y7245000D01*
%TO.N,/TOOL0*%
X13795000Y4705000D02*
X13500000Y5000000D01*
X21750000Y4705000D02*
X13795000Y4705000D01*
D24*
%TO.N,VCC*%
X17850000Y11037500D02*
X17800000Y10987500D01*
X19650000Y11037500D02*
X17850000Y11037500D01*
%TO.N,GND*%
X17800000Y13692000D02*
X16842000Y14650000D01*
X16842000Y14650000D02*
X15550000Y14650000D01*
X17800000Y12812500D02*
X17800000Y13692000D01*
X17850000Y12862500D02*
X17800000Y12812500D01*
X19650000Y12862500D02*
X17850000Y12862500D01*
X15425000Y14625000D02*
X15400000Y14650000D01*
X17800000Y12800000D02*
X17887500Y12800000D01*
D23*
%TO.N,Net-(D2-K)*%
X43375896Y5050000D02*
X43912948Y5587052D01*
X40850000Y5050000D02*
X43375896Y5050000D01*
X43912948Y5587052D02*
X43525897Y5200000D01*
X47731000Y9405103D02*
X43912948Y5587052D01*
X41230000Y8437000D02*
X42011000Y7656000D01*
X38463000Y8437000D02*
X41230000Y8437000D01*
X42011000Y7656000D02*
X42011000Y6211000D01*
X42011000Y6211000D02*
X40850000Y5050000D01*
X36750000Y10150000D02*
X38463000Y8437000D01*
D24*
%TO.N,GNDD*%
X34712500Y5087500D02*
X34700000Y5100000D01*
X36000000Y5087500D02*
X34712500Y5087500D01*
X36037500Y5050000D02*
X36000000Y5087500D01*
X38150000Y5050000D02*
X36037500Y5050000D01*
%TO.N,VCOM*%
X40000000Y7800000D02*
X40850000Y6950000D01*
X36887500Y7800000D02*
X40000000Y7800000D01*
X36000000Y6912500D02*
X36887500Y7800000D01*
D23*
%TO.N,Net-(U4-Vo)*%
X38125000Y5975000D02*
X38150000Y6000000D01*
X31250000Y5975000D02*
X38125000Y5975000D01*
D24*
%TO.N,GND*%
X21750000Y13245000D02*
X20032500Y13245000D01*
X21750000Y19245000D02*
X20032500Y19245000D01*
X20032500Y13245000D02*
X19650000Y12862500D01*
X19650000Y18862500D02*
X19650000Y20300000D01*
X20032500Y19245000D02*
X19650000Y18862500D01*
X19650000Y12862500D02*
X19650000Y14300000D01*
%TO.N,VCC*%
X16000000Y18862500D02*
X17800000Y18862500D01*
X16000000Y18862500D02*
X16000000Y21137500D01*
X22910000Y19744634D02*
X21444634Y21210000D01*
X21750000Y10705000D02*
X22400000Y10705000D01*
X22910000Y17215000D02*
X22910000Y19744634D01*
X16000000Y21137500D02*
X17800000Y21137500D01*
X21444634Y21210000D02*
X17872500Y21210000D01*
X19982500Y10705000D02*
X19650000Y11037500D01*
X21750000Y16705000D02*
X19982500Y16705000D01*
X17872500Y21210000D02*
X17800000Y21137500D01*
X19982500Y16705000D02*
X19650000Y17037500D01*
X22400000Y16705000D02*
X22910000Y17215000D01*
X21750000Y10705000D02*
X19982500Y10705000D01*
X22910000Y15545000D02*
X21750000Y16705000D01*
X22910000Y11215000D02*
X22910000Y15545000D01*
X22400000Y10705000D02*
X22910000Y11215000D01*
X21750000Y16705000D02*
X22400000Y16705000D01*
D23*
%TO.N,/~{RESET_OUT}*%
X21139000Y22094000D02*
X21750000Y22705000D01*
X16868500Y22094000D02*
X21139000Y22094000D01*
X16000000Y22962500D02*
X16868500Y22094000D01*
%TO.N,/TOOL0_MCU*%
X34250000Y11900000D02*
X32905000Y13245000D01*
X39300000Y10150000D02*
X37550000Y11900000D01*
X41850000Y13525000D02*
X41850000Y12700000D01*
X42095000Y12455000D02*
X41850000Y12700000D01*
X40750000Y10150000D02*
X39300000Y10150000D01*
X32905000Y13245000D02*
X31250000Y13245000D01*
X44195000Y10150000D02*
X46500000Y12455000D01*
X46500000Y12455000D02*
X42095000Y12455000D01*
X40750000Y10150000D02*
X44195000Y10150000D01*
X37550000Y11900000D02*
X34250000Y11900000D01*
D24*
%TO.N,VCOM*%
X30090000Y6735000D02*
X30090000Y4205366D01*
X33797500Y25410000D02*
X33250000Y24862500D01*
X42976751Y3750000D02*
X48400000Y9173249D01*
X38650000Y25410000D02*
X38650000Y19962500D01*
X46500000Y20075000D02*
X46500000Y21437000D01*
X30545366Y3750000D02*
X42976751Y3750000D01*
X31250000Y25245000D02*
X32867500Y25245000D01*
X31250000Y7245000D02*
X33017500Y7245000D01*
X48400000Y9173249D02*
X48400000Y18175000D01*
X32867500Y25245000D02*
X33250000Y24862500D01*
X38650000Y19962500D02*
X37650000Y18962500D01*
X37650000Y18962500D02*
X36000000Y18962500D01*
X46500000Y21437000D02*
X42527000Y25410000D01*
X43500000Y15350000D02*
X41850000Y15350000D01*
X38650000Y25410000D02*
X33797500Y25410000D01*
X33017500Y7245000D02*
X33350000Y6912500D01*
X41850000Y15350000D02*
X38237500Y18962500D01*
X30090000Y4205366D02*
X30545366Y3750000D01*
X30600000Y7245000D02*
X30090000Y6735000D01*
X38237500Y18962500D02*
X37650000Y18962500D01*
X42527000Y25410000D02*
X38650000Y25410000D01*
X48400000Y18175000D02*
X46500000Y20075000D01*
X31250000Y7245000D02*
X30600000Y7245000D01*
D23*
%TO.N,/~{RESET_IN_MCU}*%
X40650000Y23385000D02*
X46500000Y17535000D01*
X40650000Y24000000D02*
X40650000Y23385000D01*
%TO.N,/~{RESET_OUT_MCU}*%
X41268500Y14481500D02*
X45986500Y14481500D01*
X36450000Y15300000D02*
X40450000Y15300000D01*
X45986500Y14481500D02*
X46500000Y14995000D01*
X40450000Y15300000D02*
X41268500Y14481500D01*
D24*
%TO.N,GNDD*%
X33250000Y23037500D02*
X34512500Y23037500D01*
X39450000Y14350000D02*
X39450000Y13050000D01*
X34512500Y23037500D02*
X34550000Y23000000D01*
X34687500Y5087500D02*
X34700000Y5100000D01*
X33350000Y5087500D02*
X34687500Y5087500D01*
X31250000Y22705000D02*
X32917500Y22705000D01*
X32917500Y22705000D02*
X33250000Y23037500D01*
X32967500Y4705000D02*
X33350000Y5087500D01*
X31250000Y4705000D02*
X32967500Y4705000D01*
D23*
%TO.N,Net-(Q1-E)*%
X36781500Y18006000D02*
X37650000Y17137500D01*
X32489000Y18006000D02*
X36781500Y18006000D01*
X36450000Y13400000D02*
X34950000Y13400000D01*
X34947000Y16197000D02*
X36709500Y16197000D01*
X34650000Y13700000D02*
X34650000Y15900000D01*
X31250000Y19245000D02*
X32489000Y18006000D01*
X36709500Y16197000D02*
X37650000Y17137500D01*
X34650000Y15900000D02*
X34947000Y16197000D01*
X34950000Y13400000D02*
X34650000Y13700000D01*
%TO.N,Net-(U1-A)*%
X20082500Y25245000D02*
X17800000Y22962500D01*
X21750000Y25245000D02*
X20082500Y25245000D01*
%TO.N,Net-(U2-A)*%
X35567500Y16705000D02*
X36000000Y17137500D01*
X31250000Y16705000D02*
X35567500Y16705000D01*
%TO.N,Net-(D1-K)*%
X36625000Y23975000D02*
X36650000Y24000000D01*
X31250000Y23975000D02*
X36625000Y23975000D01*
%TO.N,Net-(D2-K)*%
X47014000Y13686000D02*
X47731000Y12969000D01*
X43500000Y13525000D02*
X43661000Y13686000D01*
X33555000Y10150000D02*
X33000000Y10705000D01*
X47731000Y12969000D02*
X47731000Y9405103D01*
X31250000Y10705000D02*
X33000000Y10705000D01*
X43661000Y13686000D02*
X47014000Y13686000D01*
X36750000Y10150000D02*
X33555000Y10150000D01*
%TD*%
M02*
