%TF.GenerationSoftware,KiCad,Pcbnew,7.0.10*%
%TF.CreationDate,2024-10-22T16:13:00+01:00*%
%TF.ProjectId,RL78I1C_PMOD_PROG_ADAPTOR_ISO,524c3738-4931-4435-9f50-4d4f445f5052,0*%
%TF.SameCoordinates,PX58b5f60PY7997ee0*%
%TF.FileFunction,Legend,Bot*%
%TF.FilePolarity,Positive*%
%FSLAX46Y46*%
G04 Gerber Fmt 4.6, Leading zero omitted, Abs format (unit mm)*
G04 Created by KiCad (PCBNEW 7.0.10) date 2024-10-22 16:13:00*
%MOMM*%
%LPD*%
G01*
G04 APERTURE LIST*
%ADD10C,0.150000*%
%ADD11C,0.500000*%
%ADD12C,0.120000*%
G04 APERTURE END LIST*
D10*
X60995160Y8321800D02*
X61138017Y8274181D01*
X61138017Y8274181D02*
X61376112Y8274181D01*
X61376112Y8274181D02*
X61471350Y8321800D01*
X61471350Y8321800D02*
X61518969Y8369420D01*
X61518969Y8369420D02*
X61566588Y8464658D01*
X61566588Y8464658D02*
X61566588Y8559896D01*
X61566588Y8559896D02*
X61518969Y8655134D01*
X61518969Y8655134D02*
X61471350Y8702753D01*
X61471350Y8702753D02*
X61376112Y8750372D01*
X61376112Y8750372D02*
X61185636Y8797991D01*
X61185636Y8797991D02*
X61090398Y8845610D01*
X61090398Y8845610D02*
X61042779Y8893229D01*
X61042779Y8893229D02*
X60995160Y8988467D01*
X60995160Y8988467D02*
X60995160Y9083705D01*
X60995160Y9083705D02*
X61042779Y9178943D01*
X61042779Y9178943D02*
X61090398Y9226562D01*
X61090398Y9226562D02*
X61185636Y9274181D01*
X61185636Y9274181D02*
X61423731Y9274181D01*
X61423731Y9274181D02*
X61566588Y9226562D01*
X61995160Y8274181D02*
X61995160Y8940848D01*
X61995160Y9274181D02*
X61947541Y9226562D01*
X61947541Y9226562D02*
X61995160Y9178943D01*
X61995160Y9178943D02*
X62042779Y9226562D01*
X62042779Y9226562D02*
X61995160Y9274181D01*
X61995160Y9274181D02*
X61995160Y9178943D01*
X62614207Y8274181D02*
X62518969Y8321800D01*
X62518969Y8321800D02*
X62471350Y8417039D01*
X62471350Y8417039D02*
X62471350Y9274181D01*
X62995160Y8274181D02*
X62995160Y9274181D01*
X63090398Y8655134D02*
X63376112Y8274181D01*
X63376112Y8940848D02*
X62995160Y8559896D01*
X63757065Y8321800D02*
X63852303Y8274181D01*
X63852303Y8274181D02*
X64042779Y8274181D01*
X64042779Y8274181D02*
X64138017Y8321800D01*
X64138017Y8321800D02*
X64185636Y8417039D01*
X64185636Y8417039D02*
X64185636Y8464658D01*
X64185636Y8464658D02*
X64138017Y8559896D01*
X64138017Y8559896D02*
X64042779Y8607515D01*
X64042779Y8607515D02*
X63899922Y8607515D01*
X63899922Y8607515D02*
X63804684Y8655134D01*
X63804684Y8655134D02*
X63757065Y8750372D01*
X63757065Y8750372D02*
X63757065Y8797991D01*
X63757065Y8797991D02*
X63804684Y8893229D01*
X63804684Y8893229D02*
X63899922Y8940848D01*
X63899922Y8940848D02*
X64042779Y8940848D01*
X64042779Y8940848D02*
X64138017Y8893229D01*
X65042779Y8321800D02*
X64947541Y8274181D01*
X64947541Y8274181D02*
X64757065Y8274181D01*
X64757065Y8274181D02*
X64661827Y8321800D01*
X64661827Y8321800D02*
X64614208Y8369420D01*
X64614208Y8369420D02*
X64566589Y8464658D01*
X64566589Y8464658D02*
X64566589Y8750372D01*
X64566589Y8750372D02*
X64614208Y8845610D01*
X64614208Y8845610D02*
X64661827Y8893229D01*
X64661827Y8893229D02*
X64757065Y8940848D01*
X64757065Y8940848D02*
X64947541Y8940848D01*
X64947541Y8940848D02*
X65042779Y8893229D01*
X65471351Y8274181D02*
X65471351Y8940848D01*
X65471351Y8750372D02*
X65518970Y8845610D01*
X65518970Y8845610D02*
X65566589Y8893229D01*
X65566589Y8893229D02*
X65661827Y8940848D01*
X65661827Y8940848D02*
X65757065Y8940848D01*
X66471351Y8321800D02*
X66376113Y8274181D01*
X66376113Y8274181D02*
X66185637Y8274181D01*
X66185637Y8274181D02*
X66090399Y8321800D01*
X66090399Y8321800D02*
X66042780Y8417039D01*
X66042780Y8417039D02*
X66042780Y8797991D01*
X66042780Y8797991D02*
X66090399Y8893229D01*
X66090399Y8893229D02*
X66185637Y8940848D01*
X66185637Y8940848D02*
X66376113Y8940848D01*
X66376113Y8940848D02*
X66471351Y8893229D01*
X66471351Y8893229D02*
X66518970Y8797991D01*
X66518970Y8797991D02*
X66518970Y8702753D01*
X66518970Y8702753D02*
X66042780Y8607515D01*
X67328494Y8321800D02*
X67233256Y8274181D01*
X67233256Y8274181D02*
X67042780Y8274181D01*
X67042780Y8274181D02*
X66947542Y8321800D01*
X66947542Y8321800D02*
X66899923Y8417039D01*
X66899923Y8417039D02*
X66899923Y8797991D01*
X66899923Y8797991D02*
X66947542Y8893229D01*
X66947542Y8893229D02*
X67042780Y8940848D01*
X67042780Y8940848D02*
X67233256Y8940848D01*
X67233256Y8940848D02*
X67328494Y8893229D01*
X67328494Y8893229D02*
X67376113Y8797991D01*
X67376113Y8797991D02*
X67376113Y8702753D01*
X67376113Y8702753D02*
X66899923Y8607515D01*
X67804685Y8940848D02*
X67804685Y8274181D01*
X67804685Y8845610D02*
X67852304Y8893229D01*
X67852304Y8893229D02*
X67947542Y8940848D01*
X67947542Y8940848D02*
X68090399Y8940848D01*
X68090399Y8940848D02*
X68185637Y8893229D01*
X68185637Y8893229D02*
X68233256Y8797991D01*
X68233256Y8797991D02*
X68233256Y8274181D01*
D11*
X44986005Y13986762D02*
X45652672Y14939143D01*
X46128862Y13986762D02*
X46128862Y15986762D01*
X46128862Y15986762D02*
X45366957Y15986762D01*
X45366957Y15986762D02*
X45176481Y15891524D01*
X45176481Y15891524D02*
X45081243Y15796286D01*
X45081243Y15796286D02*
X44986005Y15605810D01*
X44986005Y15605810D02*
X44986005Y15320096D01*
X44986005Y15320096D02*
X45081243Y15129620D01*
X45081243Y15129620D02*
X45176481Y15034381D01*
X45176481Y15034381D02*
X45366957Y14939143D01*
X45366957Y14939143D02*
X46128862Y14939143D01*
X43176481Y13986762D02*
X44128862Y13986762D01*
X44128862Y13986762D02*
X44128862Y15986762D01*
X42700290Y15986762D02*
X41366957Y15986762D01*
X41366957Y15986762D02*
X42224100Y13986762D01*
X40319338Y15129620D02*
X40509814Y15224858D01*
X40509814Y15224858D02*
X40605052Y15320096D01*
X40605052Y15320096D02*
X40700290Y15510572D01*
X40700290Y15510572D02*
X40700290Y15605810D01*
X40700290Y15605810D02*
X40605052Y15796286D01*
X40605052Y15796286D02*
X40509814Y15891524D01*
X40509814Y15891524D02*
X40319338Y15986762D01*
X40319338Y15986762D02*
X39938385Y15986762D01*
X39938385Y15986762D02*
X39747909Y15891524D01*
X39747909Y15891524D02*
X39652671Y15796286D01*
X39652671Y15796286D02*
X39557433Y15605810D01*
X39557433Y15605810D02*
X39557433Y15510572D01*
X39557433Y15510572D02*
X39652671Y15320096D01*
X39652671Y15320096D02*
X39747909Y15224858D01*
X39747909Y15224858D02*
X39938385Y15129620D01*
X39938385Y15129620D02*
X40319338Y15129620D01*
X40319338Y15129620D02*
X40509814Y15034381D01*
X40509814Y15034381D02*
X40605052Y14939143D01*
X40605052Y14939143D02*
X40700290Y14748667D01*
X40700290Y14748667D02*
X40700290Y14367715D01*
X40700290Y14367715D02*
X40605052Y14177239D01*
X40605052Y14177239D02*
X40509814Y14082000D01*
X40509814Y14082000D02*
X40319338Y13986762D01*
X40319338Y13986762D02*
X39938385Y13986762D01*
X39938385Y13986762D02*
X39747909Y14082000D01*
X39747909Y14082000D02*
X39652671Y14177239D01*
X39652671Y14177239D02*
X39557433Y14367715D01*
X39557433Y14367715D02*
X39557433Y14748667D01*
X39557433Y14748667D02*
X39652671Y14939143D01*
X39652671Y14939143D02*
X39747909Y15034381D01*
X39747909Y15034381D02*
X39938385Y15129620D01*
X37271719Y16082000D02*
X38986004Y13510572D01*
X36605052Y13986762D02*
X36605052Y15986762D01*
X34605052Y13986762D02*
X35747909Y13986762D01*
X35176481Y13986762D02*
X35176481Y15986762D01*
X35176481Y15986762D02*
X35366957Y15701048D01*
X35366957Y15701048D02*
X35557433Y15510572D01*
X35557433Y15510572D02*
X35747909Y15415334D01*
X32605052Y14177239D02*
X32700290Y14082000D01*
X32700290Y14082000D02*
X32986004Y13986762D01*
X32986004Y13986762D02*
X33176480Y13986762D01*
X33176480Y13986762D02*
X33462195Y14082000D01*
X33462195Y14082000D02*
X33652671Y14272477D01*
X33652671Y14272477D02*
X33747909Y14462953D01*
X33747909Y14462953D02*
X33843147Y14843905D01*
X33843147Y14843905D02*
X33843147Y15129620D01*
X33843147Y15129620D02*
X33747909Y15510572D01*
X33747909Y15510572D02*
X33652671Y15701048D01*
X33652671Y15701048D02*
X33462195Y15891524D01*
X33462195Y15891524D02*
X33176480Y15986762D01*
X33176480Y15986762D02*
X32986004Y15986762D01*
X32986004Y15986762D02*
X32700290Y15891524D01*
X32700290Y15891524D02*
X32605052Y15796286D01*
X30224099Y13986762D02*
X30224099Y15986762D01*
X30224099Y15986762D02*
X29462194Y15986762D01*
X29462194Y15986762D02*
X29271718Y15891524D01*
X29271718Y15891524D02*
X29176480Y15796286D01*
X29176480Y15796286D02*
X29081242Y15605810D01*
X29081242Y15605810D02*
X29081242Y15320096D01*
X29081242Y15320096D02*
X29176480Y15129620D01*
X29176480Y15129620D02*
X29271718Y15034381D01*
X29271718Y15034381D02*
X29462194Y14939143D01*
X29462194Y14939143D02*
X30224099Y14939143D01*
X28224099Y13986762D02*
X28224099Y15986762D01*
X28224099Y15986762D02*
X27557432Y14558191D01*
X27557432Y14558191D02*
X26890766Y15986762D01*
X26890766Y15986762D02*
X26890766Y13986762D01*
X25557433Y15986762D02*
X25176480Y15986762D01*
X25176480Y15986762D02*
X24986004Y15891524D01*
X24986004Y15891524D02*
X24795528Y15701048D01*
X24795528Y15701048D02*
X24700290Y15320096D01*
X24700290Y15320096D02*
X24700290Y14653429D01*
X24700290Y14653429D02*
X24795528Y14272477D01*
X24795528Y14272477D02*
X24986004Y14082000D01*
X24986004Y14082000D02*
X25176480Y13986762D01*
X25176480Y13986762D02*
X25557433Y13986762D01*
X25557433Y13986762D02*
X25747909Y14082000D01*
X25747909Y14082000D02*
X25938385Y14272477D01*
X25938385Y14272477D02*
X26033623Y14653429D01*
X26033623Y14653429D02*
X26033623Y15320096D01*
X26033623Y15320096D02*
X25938385Y15701048D01*
X25938385Y15701048D02*
X25747909Y15891524D01*
X25747909Y15891524D02*
X25557433Y15986762D01*
X23843147Y13986762D02*
X23843147Y15986762D01*
X23843147Y15986762D02*
X23366957Y15986762D01*
X23366957Y15986762D02*
X23081242Y15891524D01*
X23081242Y15891524D02*
X22890766Y15701048D01*
X22890766Y15701048D02*
X22795528Y15510572D01*
X22795528Y15510572D02*
X22700290Y15129620D01*
X22700290Y15129620D02*
X22700290Y14843905D01*
X22700290Y14843905D02*
X22795528Y14462953D01*
X22795528Y14462953D02*
X22890766Y14272477D01*
X22890766Y14272477D02*
X23081242Y14082000D01*
X23081242Y14082000D02*
X23366957Y13986762D01*
X23366957Y13986762D02*
X23843147Y13986762D01*
X46128862Y10766762D02*
X46128862Y12766762D01*
X46128862Y12766762D02*
X45366957Y12766762D01*
X45366957Y12766762D02*
X45176481Y12671524D01*
X45176481Y12671524D02*
X45081243Y12576286D01*
X45081243Y12576286D02*
X44986005Y12385810D01*
X44986005Y12385810D02*
X44986005Y12100096D01*
X44986005Y12100096D02*
X45081243Y11909620D01*
X45081243Y11909620D02*
X45176481Y11814381D01*
X45176481Y11814381D02*
X45366957Y11719143D01*
X45366957Y11719143D02*
X46128862Y11719143D01*
X44128862Y10766762D02*
X44128862Y12100096D01*
X44128862Y11719143D02*
X44033624Y11909620D01*
X44033624Y11909620D02*
X43938386Y12004858D01*
X43938386Y12004858D02*
X43747910Y12100096D01*
X43747910Y12100096D02*
X43557433Y12100096D01*
X42605053Y10766762D02*
X42795529Y10862000D01*
X42795529Y10862000D02*
X42890767Y10957239D01*
X42890767Y10957239D02*
X42986005Y11147715D01*
X42986005Y11147715D02*
X42986005Y11719143D01*
X42986005Y11719143D02*
X42890767Y11909620D01*
X42890767Y11909620D02*
X42795529Y12004858D01*
X42795529Y12004858D02*
X42605053Y12100096D01*
X42605053Y12100096D02*
X42319338Y12100096D01*
X42319338Y12100096D02*
X42128862Y12004858D01*
X42128862Y12004858D02*
X42033624Y11909620D01*
X42033624Y11909620D02*
X41938386Y11719143D01*
X41938386Y11719143D02*
X41938386Y11147715D01*
X41938386Y11147715D02*
X42033624Y10957239D01*
X42033624Y10957239D02*
X42128862Y10862000D01*
X42128862Y10862000D02*
X42319338Y10766762D01*
X42319338Y10766762D02*
X42605053Y10766762D01*
X40224100Y12100096D02*
X40224100Y10481048D01*
X40224100Y10481048D02*
X40319338Y10290572D01*
X40319338Y10290572D02*
X40414576Y10195334D01*
X40414576Y10195334D02*
X40605053Y10100096D01*
X40605053Y10100096D02*
X40890767Y10100096D01*
X40890767Y10100096D02*
X41081243Y10195334D01*
X40224100Y10862000D02*
X40414576Y10766762D01*
X40414576Y10766762D02*
X40795529Y10766762D01*
X40795529Y10766762D02*
X40986005Y10862000D01*
X40986005Y10862000D02*
X41081243Y10957239D01*
X41081243Y10957239D02*
X41176481Y11147715D01*
X41176481Y11147715D02*
X41176481Y11719143D01*
X41176481Y11719143D02*
X41081243Y11909620D01*
X41081243Y11909620D02*
X40986005Y12004858D01*
X40986005Y12004858D02*
X40795529Y12100096D01*
X40795529Y12100096D02*
X40414576Y12100096D01*
X40414576Y12100096D02*
X40224100Y12004858D01*
X39271719Y10766762D02*
X39271719Y12100096D01*
X39271719Y11719143D02*
X39176481Y11909620D01*
X39176481Y11909620D02*
X39081243Y12004858D01*
X39081243Y12004858D02*
X38890767Y12100096D01*
X38890767Y12100096D02*
X38700290Y12100096D01*
X37176481Y10766762D02*
X37176481Y11814381D01*
X37176481Y11814381D02*
X37271719Y12004858D01*
X37271719Y12004858D02*
X37462195Y12100096D01*
X37462195Y12100096D02*
X37843148Y12100096D01*
X37843148Y12100096D02*
X38033624Y12004858D01*
X37176481Y10862000D02*
X37366957Y10766762D01*
X37366957Y10766762D02*
X37843148Y10766762D01*
X37843148Y10766762D02*
X38033624Y10862000D01*
X38033624Y10862000D02*
X38128862Y11052477D01*
X38128862Y11052477D02*
X38128862Y11242953D01*
X38128862Y11242953D02*
X38033624Y11433429D01*
X38033624Y11433429D02*
X37843148Y11528667D01*
X37843148Y11528667D02*
X37366957Y11528667D01*
X37366957Y11528667D02*
X37176481Y11623905D01*
X36224100Y10766762D02*
X36224100Y12100096D01*
X36224100Y11909620D02*
X36128862Y12004858D01*
X36128862Y12004858D02*
X35938386Y12100096D01*
X35938386Y12100096D02*
X35652671Y12100096D01*
X35652671Y12100096D02*
X35462195Y12004858D01*
X35462195Y12004858D02*
X35366957Y11814381D01*
X35366957Y11814381D02*
X35366957Y10766762D01*
X35366957Y11814381D02*
X35271719Y12004858D01*
X35271719Y12004858D02*
X35081243Y12100096D01*
X35081243Y12100096D02*
X34795529Y12100096D01*
X34795529Y12100096D02*
X34605052Y12004858D01*
X34605052Y12004858D02*
X34509814Y11814381D01*
X34509814Y11814381D02*
X34509814Y10766762D01*
X33557433Y10766762D02*
X33557433Y12100096D01*
X33557433Y11909620D02*
X33462195Y12004858D01*
X33462195Y12004858D02*
X33271719Y12100096D01*
X33271719Y12100096D02*
X32986004Y12100096D01*
X32986004Y12100096D02*
X32795528Y12004858D01*
X32795528Y12004858D02*
X32700290Y11814381D01*
X32700290Y11814381D02*
X32700290Y10766762D01*
X32700290Y11814381D02*
X32605052Y12004858D01*
X32605052Y12004858D02*
X32414576Y12100096D01*
X32414576Y12100096D02*
X32128862Y12100096D01*
X32128862Y12100096D02*
X31938385Y12004858D01*
X31938385Y12004858D02*
X31843147Y11814381D01*
X31843147Y11814381D02*
X31843147Y10766762D01*
X30890766Y10766762D02*
X30890766Y12100096D01*
X30890766Y12766762D02*
X30986004Y12671524D01*
X30986004Y12671524D02*
X30890766Y12576286D01*
X30890766Y12576286D02*
X30795528Y12671524D01*
X30795528Y12671524D02*
X30890766Y12766762D01*
X30890766Y12766762D02*
X30890766Y12576286D01*
X29938385Y12100096D02*
X29938385Y10766762D01*
X29938385Y11909620D02*
X29843147Y12004858D01*
X29843147Y12004858D02*
X29652671Y12100096D01*
X29652671Y12100096D02*
X29366956Y12100096D01*
X29366956Y12100096D02*
X29176480Y12004858D01*
X29176480Y12004858D02*
X29081242Y11814381D01*
X29081242Y11814381D02*
X29081242Y10766762D01*
X27271718Y12100096D02*
X27271718Y10481048D01*
X27271718Y10481048D02*
X27366956Y10290572D01*
X27366956Y10290572D02*
X27462194Y10195334D01*
X27462194Y10195334D02*
X27652671Y10100096D01*
X27652671Y10100096D02*
X27938385Y10100096D01*
X27938385Y10100096D02*
X28128861Y10195334D01*
X27271718Y10862000D02*
X27462194Y10766762D01*
X27462194Y10766762D02*
X27843147Y10766762D01*
X27843147Y10766762D02*
X28033623Y10862000D01*
X28033623Y10862000D02*
X28128861Y10957239D01*
X28128861Y10957239D02*
X28224099Y11147715D01*
X28224099Y11147715D02*
X28224099Y11719143D01*
X28224099Y11719143D02*
X28128861Y11909620D01*
X28128861Y11909620D02*
X28033623Y12004858D01*
X28033623Y12004858D02*
X27843147Y12100096D01*
X27843147Y12100096D02*
X27462194Y12100096D01*
X27462194Y12100096D02*
X27271718Y12004858D01*
X24890765Y11338191D02*
X23938384Y11338191D01*
X25081241Y10766762D02*
X24414575Y12766762D01*
X24414575Y12766762D02*
X23747908Y10766762D01*
X22224098Y10766762D02*
X22224098Y12766762D01*
X22224098Y10862000D02*
X22414574Y10766762D01*
X22414574Y10766762D02*
X22795527Y10766762D01*
X22795527Y10766762D02*
X22986003Y10862000D01*
X22986003Y10862000D02*
X23081241Y10957239D01*
X23081241Y10957239D02*
X23176479Y11147715D01*
X23176479Y11147715D02*
X23176479Y11719143D01*
X23176479Y11719143D02*
X23081241Y11909620D01*
X23081241Y11909620D02*
X22986003Y12004858D01*
X22986003Y12004858D02*
X22795527Y12100096D01*
X22795527Y12100096D02*
X22414574Y12100096D01*
X22414574Y12100096D02*
X22224098Y12004858D01*
X20414574Y10766762D02*
X20414574Y11814381D01*
X20414574Y11814381D02*
X20509812Y12004858D01*
X20509812Y12004858D02*
X20700288Y12100096D01*
X20700288Y12100096D02*
X21081241Y12100096D01*
X21081241Y12100096D02*
X21271717Y12004858D01*
X20414574Y10862000D02*
X20605050Y10766762D01*
X20605050Y10766762D02*
X21081241Y10766762D01*
X21081241Y10766762D02*
X21271717Y10862000D01*
X21271717Y10862000D02*
X21366955Y11052477D01*
X21366955Y11052477D02*
X21366955Y11242953D01*
X21366955Y11242953D02*
X21271717Y11433429D01*
X21271717Y11433429D02*
X21081241Y11528667D01*
X21081241Y11528667D02*
X20605050Y11528667D01*
X20605050Y11528667D02*
X20414574Y11623905D01*
X19462193Y12100096D02*
X19462193Y10100096D01*
X19462193Y12004858D02*
X19271717Y12100096D01*
X19271717Y12100096D02*
X18890764Y12100096D01*
X18890764Y12100096D02*
X18700288Y12004858D01*
X18700288Y12004858D02*
X18605050Y11909620D01*
X18605050Y11909620D02*
X18509812Y11719143D01*
X18509812Y11719143D02*
X18509812Y11147715D01*
X18509812Y11147715D02*
X18605050Y10957239D01*
X18605050Y10957239D02*
X18700288Y10862000D01*
X18700288Y10862000D02*
X18890764Y10766762D01*
X18890764Y10766762D02*
X19271717Y10766762D01*
X19271717Y10766762D02*
X19462193Y10862000D01*
X17938383Y12100096D02*
X17176479Y12100096D01*
X17652669Y12766762D02*
X17652669Y11052477D01*
X17652669Y11052477D02*
X17557431Y10862000D01*
X17557431Y10862000D02*
X17366955Y10766762D01*
X17366955Y10766762D02*
X17176479Y10766762D01*
X16224098Y10766762D02*
X16414574Y10862000D01*
X16414574Y10862000D02*
X16509812Y10957239D01*
X16509812Y10957239D02*
X16605050Y11147715D01*
X16605050Y11147715D02*
X16605050Y11719143D01*
X16605050Y11719143D02*
X16509812Y11909620D01*
X16509812Y11909620D02*
X16414574Y12004858D01*
X16414574Y12004858D02*
X16224098Y12100096D01*
X16224098Y12100096D02*
X15938383Y12100096D01*
X15938383Y12100096D02*
X15747907Y12004858D01*
X15747907Y12004858D02*
X15652669Y11909620D01*
X15652669Y11909620D02*
X15557431Y11719143D01*
X15557431Y11719143D02*
X15557431Y11147715D01*
X15557431Y11147715D02*
X15652669Y10957239D01*
X15652669Y10957239D02*
X15747907Y10862000D01*
X15747907Y10862000D02*
X15938383Y10766762D01*
X15938383Y10766762D02*
X16224098Y10766762D01*
X14700288Y10766762D02*
X14700288Y12100096D01*
X14700288Y11719143D02*
X14605050Y11909620D01*
X14605050Y11909620D02*
X14509812Y12004858D01*
X14509812Y12004858D02*
X14319336Y12100096D01*
X14319336Y12100096D02*
X14128859Y12100096D01*
X46414576Y9546762D02*
X45747910Y7546762D01*
X45747910Y7546762D02*
X45081243Y9546762D01*
X43366957Y7546762D02*
X44509814Y7546762D01*
X43938386Y7546762D02*
X43938386Y9546762D01*
X43938386Y9546762D02*
X44128862Y9261048D01*
X44128862Y9261048D02*
X44319338Y9070572D01*
X44319338Y9070572D02*
X44509814Y8975334D01*
X42509814Y7737239D02*
X42414576Y7642000D01*
X42414576Y7642000D02*
X42509814Y7546762D01*
X42509814Y7546762D02*
X42605052Y7642000D01*
X42605052Y7642000D02*
X42509814Y7737239D01*
X42509814Y7737239D02*
X42509814Y7546762D01*
X41176481Y9546762D02*
X40986004Y9546762D01*
X40986004Y9546762D02*
X40795528Y9451524D01*
X40795528Y9451524D02*
X40700290Y9356286D01*
X40700290Y9356286D02*
X40605052Y9165810D01*
X40605052Y9165810D02*
X40509814Y8784858D01*
X40509814Y8784858D02*
X40509814Y8308667D01*
X40509814Y8308667D02*
X40605052Y7927715D01*
X40605052Y7927715D02*
X40700290Y7737239D01*
X40700290Y7737239D02*
X40795528Y7642000D01*
X40795528Y7642000D02*
X40986004Y7546762D01*
X40986004Y7546762D02*
X41176481Y7546762D01*
X41176481Y7546762D02*
X41366957Y7642000D01*
X41366957Y7642000D02*
X41462195Y7737239D01*
X41462195Y7737239D02*
X41557433Y7927715D01*
X41557433Y7927715D02*
X41652671Y8308667D01*
X41652671Y8308667D02*
X41652671Y8784858D01*
X41652671Y8784858D02*
X41557433Y9165810D01*
X41557433Y9165810D02*
X41462195Y9356286D01*
X41462195Y9356286D02*
X41366957Y9451524D01*
X41366957Y9451524D02*
X41176481Y9546762D01*
X39271719Y9546762D02*
X39081242Y9546762D01*
X39081242Y9546762D02*
X38890766Y9451524D01*
X38890766Y9451524D02*
X38795528Y9356286D01*
X38795528Y9356286D02*
X38700290Y9165810D01*
X38700290Y9165810D02*
X38605052Y8784858D01*
X38605052Y8784858D02*
X38605052Y8308667D01*
X38605052Y8308667D02*
X38700290Y7927715D01*
X38700290Y7927715D02*
X38795528Y7737239D01*
X38795528Y7737239D02*
X38890766Y7642000D01*
X38890766Y7642000D02*
X39081242Y7546762D01*
X39081242Y7546762D02*
X39271719Y7546762D01*
X39271719Y7546762D02*
X39462195Y7642000D01*
X39462195Y7642000D02*
X39557433Y7737239D01*
X39557433Y7737239D02*
X39652671Y7927715D01*
X39652671Y7927715D02*
X39747909Y8308667D01*
X39747909Y8308667D02*
X39747909Y8784858D01*
X39747909Y8784858D02*
X39652671Y9165810D01*
X39652671Y9165810D02*
X39557433Y9356286D01*
X39557433Y9356286D02*
X39462195Y9451524D01*
X39462195Y9451524D02*
X39271719Y9546762D01*
X45176481Y6326762D02*
X46128862Y6326762D01*
X46128862Y6326762D02*
X46224100Y5374381D01*
X46224100Y5374381D02*
X46128862Y5469620D01*
X46128862Y5469620D02*
X45938386Y5564858D01*
X45938386Y5564858D02*
X45462195Y5564858D01*
X45462195Y5564858D02*
X45271719Y5469620D01*
X45271719Y5469620D02*
X45176481Y5374381D01*
X45176481Y5374381D02*
X45081243Y5183905D01*
X45081243Y5183905D02*
X45081243Y4707715D01*
X45081243Y4707715D02*
X45176481Y4517239D01*
X45176481Y4517239D02*
X45271719Y4422000D01*
X45271719Y4422000D02*
X45462195Y4326762D01*
X45462195Y4326762D02*
X45938386Y4326762D01*
X45938386Y4326762D02*
X46128862Y4422000D01*
X46128862Y4422000D02*
X46224100Y4517239D01*
X44224100Y4326762D02*
X44224100Y6326762D01*
X44033624Y5088667D02*
X43462195Y4326762D01*
X43462195Y5660096D02*
X44224100Y4898191D01*
X42795528Y5660096D02*
X42319338Y4326762D01*
X42319338Y4326762D02*
X41843147Y5660096D01*
X38509813Y4326762D02*
X39652670Y4326762D01*
X39081242Y4326762D02*
X39081242Y6326762D01*
X39081242Y6326762D02*
X39271718Y6041048D01*
X39271718Y6041048D02*
X39462194Y5850572D01*
X39462194Y5850572D02*
X39652670Y5755334D01*
X36700289Y6326762D02*
X37652670Y6326762D01*
X37652670Y6326762D02*
X37747908Y5374381D01*
X37747908Y5374381D02*
X37652670Y5469620D01*
X37652670Y5469620D02*
X37462194Y5564858D01*
X37462194Y5564858D02*
X36986003Y5564858D01*
X36986003Y5564858D02*
X36795527Y5469620D01*
X36795527Y5469620D02*
X36700289Y5374381D01*
X36700289Y5374381D02*
X36605051Y5183905D01*
X36605051Y5183905D02*
X36605051Y4707715D01*
X36605051Y4707715D02*
X36700289Y4517239D01*
X36700289Y4517239D02*
X36795527Y4422000D01*
X36795527Y4422000D02*
X36986003Y4326762D01*
X36986003Y4326762D02*
X37462194Y4326762D01*
X37462194Y4326762D02*
X37652670Y4422000D01*
X37652670Y4422000D02*
X37747908Y4517239D01*
X35747908Y4326762D02*
X35747908Y6326762D01*
X35747908Y6326762D02*
X35081241Y4898191D01*
X35081241Y4898191D02*
X34414575Y6326762D01*
X34414575Y6326762D02*
X34414575Y4326762D01*
X33462194Y4326762D02*
X33462194Y6326762D01*
X33462194Y5564858D02*
X33271718Y5660096D01*
X33271718Y5660096D02*
X32890765Y5660096D01*
X32890765Y5660096D02*
X32700289Y5564858D01*
X32700289Y5564858D02*
X32605051Y5469620D01*
X32605051Y5469620D02*
X32509813Y5279143D01*
X32509813Y5279143D02*
X32509813Y4707715D01*
X32509813Y4707715D02*
X32605051Y4517239D01*
X32605051Y4517239D02*
X32700289Y4422000D01*
X32700289Y4422000D02*
X32890765Y4326762D01*
X32890765Y4326762D02*
X33271718Y4326762D01*
X33271718Y4326762D02*
X33462194Y4422000D01*
X31652670Y5660096D02*
X31652670Y3660096D01*
X31652670Y5564858D02*
X31462194Y5660096D01*
X31462194Y5660096D02*
X31081241Y5660096D01*
X31081241Y5660096D02*
X30890765Y5564858D01*
X30890765Y5564858D02*
X30795527Y5469620D01*
X30795527Y5469620D02*
X30700289Y5279143D01*
X30700289Y5279143D02*
X30700289Y4707715D01*
X30700289Y4707715D02*
X30795527Y4517239D01*
X30795527Y4517239D02*
X30890765Y4422000D01*
X30890765Y4422000D02*
X31081241Y4326762D01*
X31081241Y4326762D02*
X31462194Y4326762D01*
X31462194Y4326762D02*
X31652670Y4422000D01*
X29938384Y4422000D02*
X29747908Y4326762D01*
X29747908Y4326762D02*
X29366956Y4326762D01*
X29366956Y4326762D02*
X29176479Y4422000D01*
X29176479Y4422000D02*
X29081241Y4612477D01*
X29081241Y4612477D02*
X29081241Y4707715D01*
X29081241Y4707715D02*
X29176479Y4898191D01*
X29176479Y4898191D02*
X29366956Y4993429D01*
X29366956Y4993429D02*
X29652670Y4993429D01*
X29652670Y4993429D02*
X29843146Y5088667D01*
X29843146Y5088667D02*
X29938384Y5279143D01*
X29938384Y5279143D02*
X29938384Y5374381D01*
X29938384Y5374381D02*
X29843146Y5564858D01*
X29843146Y5564858D02*
X29652670Y5660096D01*
X29652670Y5660096D02*
X29366956Y5660096D01*
X29366956Y5660096D02*
X29176479Y5564858D01*
X26700288Y4326762D02*
X26700288Y6326762D01*
X25843145Y4422000D02*
X25652669Y4326762D01*
X25652669Y4326762D02*
X25271717Y4326762D01*
X25271717Y4326762D02*
X25081240Y4422000D01*
X25081240Y4422000D02*
X24986002Y4612477D01*
X24986002Y4612477D02*
X24986002Y4707715D01*
X24986002Y4707715D02*
X25081240Y4898191D01*
X25081240Y4898191D02*
X25271717Y4993429D01*
X25271717Y4993429D02*
X25557431Y4993429D01*
X25557431Y4993429D02*
X25747907Y5088667D01*
X25747907Y5088667D02*
X25843145Y5279143D01*
X25843145Y5279143D02*
X25843145Y5374381D01*
X25843145Y5374381D02*
X25747907Y5564858D01*
X25747907Y5564858D02*
X25557431Y5660096D01*
X25557431Y5660096D02*
X25271717Y5660096D01*
X25271717Y5660096D02*
X25081240Y5564858D01*
X23843145Y4326762D02*
X24033621Y4422000D01*
X24033621Y4422000D02*
X24128859Y4517239D01*
X24128859Y4517239D02*
X24224097Y4707715D01*
X24224097Y4707715D02*
X24224097Y5279143D01*
X24224097Y5279143D02*
X24128859Y5469620D01*
X24128859Y5469620D02*
X24033621Y5564858D01*
X24033621Y5564858D02*
X23843145Y5660096D01*
X23843145Y5660096D02*
X23557430Y5660096D01*
X23557430Y5660096D02*
X23366954Y5564858D01*
X23366954Y5564858D02*
X23271716Y5469620D01*
X23271716Y5469620D02*
X23176478Y5279143D01*
X23176478Y5279143D02*
X23176478Y4707715D01*
X23176478Y4707715D02*
X23271716Y4517239D01*
X23271716Y4517239D02*
X23366954Y4422000D01*
X23366954Y4422000D02*
X23557430Y4326762D01*
X23557430Y4326762D02*
X23843145Y4326762D01*
X22033621Y4326762D02*
X22224097Y4422000D01*
X22224097Y4422000D02*
X22319335Y4612477D01*
X22319335Y4612477D02*
X22319335Y6326762D01*
X20414573Y4326762D02*
X20414573Y5374381D01*
X20414573Y5374381D02*
X20509811Y5564858D01*
X20509811Y5564858D02*
X20700287Y5660096D01*
X20700287Y5660096D02*
X21081240Y5660096D01*
X21081240Y5660096D02*
X21271716Y5564858D01*
X20414573Y4422000D02*
X20605049Y4326762D01*
X20605049Y4326762D02*
X21081240Y4326762D01*
X21081240Y4326762D02*
X21271716Y4422000D01*
X21271716Y4422000D02*
X21366954Y4612477D01*
X21366954Y4612477D02*
X21366954Y4802953D01*
X21366954Y4802953D02*
X21271716Y4993429D01*
X21271716Y4993429D02*
X21081240Y5088667D01*
X21081240Y5088667D02*
X20605049Y5088667D01*
X20605049Y5088667D02*
X20414573Y5183905D01*
X19747906Y5660096D02*
X18986002Y5660096D01*
X19462192Y6326762D02*
X19462192Y4612477D01*
X19462192Y4612477D02*
X19366954Y4422000D01*
X19366954Y4422000D02*
X19176478Y4326762D01*
X19176478Y4326762D02*
X18986002Y4326762D01*
X18319335Y4326762D02*
X18319335Y5660096D01*
X18319335Y6326762D02*
X18414573Y6231524D01*
X18414573Y6231524D02*
X18319335Y6136286D01*
X18319335Y6136286D02*
X18224097Y6231524D01*
X18224097Y6231524D02*
X18319335Y6326762D01*
X18319335Y6326762D02*
X18319335Y6136286D01*
X17081240Y4326762D02*
X17271716Y4422000D01*
X17271716Y4422000D02*
X17366954Y4517239D01*
X17366954Y4517239D02*
X17462192Y4707715D01*
X17462192Y4707715D02*
X17462192Y5279143D01*
X17462192Y5279143D02*
X17366954Y5469620D01*
X17366954Y5469620D02*
X17271716Y5564858D01*
X17271716Y5564858D02*
X17081240Y5660096D01*
X17081240Y5660096D02*
X16795525Y5660096D01*
X16795525Y5660096D02*
X16605049Y5564858D01*
X16605049Y5564858D02*
X16509811Y5469620D01*
X16509811Y5469620D02*
X16414573Y5279143D01*
X16414573Y5279143D02*
X16414573Y4707715D01*
X16414573Y4707715D02*
X16509811Y4517239D01*
X16509811Y4517239D02*
X16605049Y4422000D01*
X16605049Y4422000D02*
X16795525Y4326762D01*
X16795525Y4326762D02*
X17081240Y4326762D01*
X15557430Y5660096D02*
X15557430Y4326762D01*
X15557430Y5469620D02*
X15462192Y5564858D01*
X15462192Y5564858D02*
X15271716Y5660096D01*
X15271716Y5660096D02*
X14986001Y5660096D01*
X14986001Y5660096D02*
X14795525Y5564858D01*
X14795525Y5564858D02*
X14700287Y5374381D01*
X14700287Y5374381D02*
X14700287Y4326762D01*
D10*
X50685069Y22805834D02*
X51399354Y22805834D01*
X51399354Y22805834D02*
X51542211Y22853453D01*
X51542211Y22853453D02*
X51637450Y22948691D01*
X51637450Y22948691D02*
X51685069Y23091548D01*
X51685069Y23091548D02*
X51685069Y23186786D01*
X50780307Y22377262D02*
X50732688Y22329643D01*
X50732688Y22329643D02*
X50685069Y22234405D01*
X50685069Y22234405D02*
X50685069Y21996310D01*
X50685069Y21996310D02*
X50732688Y21901072D01*
X50732688Y21901072D02*
X50780307Y21853453D01*
X50780307Y21853453D02*
X50875545Y21805834D01*
X50875545Y21805834D02*
X50970783Y21805834D01*
X50970783Y21805834D02*
X51113640Y21853453D01*
X51113640Y21853453D02*
X51685069Y22424881D01*
X51685069Y22424881D02*
X51685069Y21805834D01*
D12*
%TO.C,J2*%
X51671250Y8427500D02*
X49011250Y8427500D01*
X51671250Y18647500D02*
X51671250Y8427500D01*
X51671250Y18647500D02*
X49011250Y18647500D01*
X51671250Y19917500D02*
X51671250Y21247500D01*
X51671250Y21247500D02*
X50341250Y21247500D01*
X49011250Y18647500D02*
X49011250Y8427500D01*
%TD*%
M02*
