%TF.GenerationSoftware,KiCad,Pcbnew,7.0.10*%
%TF.CreationDate,2024-10-22T16:13:00+01:00*%
%TF.ProjectId,RL78I1C_PMOD_PROG_ADAPTOR_ISO,524c3738-4931-4435-9f50-4d4f445f5052,0*%
%TF.SameCoordinates,PX58b5f60PY7997ee0*%
%TF.FileFunction,Soldermask,Top*%
%TF.FilePolarity,Negative*%
%FSLAX46Y46*%
G04 Gerber Fmt 4.6, Leading zero omitted, Abs format (unit mm)*
G04 Created by KiCad (PCBNEW 7.0.10) date 2024-10-22 16:13:00*
%MOMM*%
%LPD*%
G01*
G04 APERTURE LIST*
G04 Aperture macros list*
%AMRoundRect*
0 Rectangle with rounded corners*
0 $1 Rounding radius*
0 $2 $3 $4 $5 $6 $7 $8 $9 X,Y pos of 4 corners*
0 Add a 4 corners polygon primitive as box body*
4,1,4,$2,$3,$4,$5,$6,$7,$8,$9,$2,$3,0*
0 Add four circle primitives for the rounded corners*
1,1,$1+$1,$2,$3*
1,1,$1+$1,$4,$5*
1,1,$1+$1,$6,$7*
1,1,$1+$1,$8,$9*
0 Add four rect primitives between the rounded corners*
20,1,$1+$1,$2,$3,$4,$5,0*
20,1,$1+$1,$4,$5,$6,$7,0*
20,1,$1+$1,$6,$7,$8,$9,0*
20,1,$1+$1,$8,$9,$2,$3,0*%
G04 Aperture macros list end*
%ADD10C,0.150000*%
%ADD11R,1.700000X1.700000*%
%ADD12O,1.700000X1.700000*%
%ADD13RoundRect,0.237500X-0.237500X0.250000X-0.237500X-0.250000X0.237500X-0.250000X0.237500X0.250000X0*%
%ADD14RoundRect,0.237500X0.237500X-0.250000X0.237500X0.250000X-0.237500X0.250000X-0.237500X-0.250000X0*%
%ADD15RoundRect,0.200000X-0.450000X-0.200000X0.450000X-0.200000X0.450000X0.200000X-0.450000X0.200000X0*%
%ADD16RoundRect,0.225000X0.375000X-0.225000X0.375000X0.225000X-0.375000X0.225000X-0.375000X-0.225000X0*%
%ADD17RoundRect,0.200000X0.450000X0.200000X-0.450000X0.200000X-0.450000X-0.200000X0.450000X-0.200000X0*%
%ADD18RoundRect,0.150000X-0.587500X-0.150000X0.587500X-0.150000X0.587500X0.150000X-0.587500X0.150000X0*%
%ADD19RoundRect,0.150000X0.587500X0.150000X-0.587500X0.150000X-0.587500X-0.150000X0.587500X-0.150000X0*%
%ADD20RoundRect,0.225000X-0.375000X0.225000X-0.375000X-0.225000X0.375000X-0.225000X0.375000X0.225000X0*%
%ADD21RoundRect,0.237500X-0.250000X-0.237500X0.250000X-0.237500X0.250000X0.237500X-0.250000X0.237500X0*%
G04 APERTURE END LIST*
D10*
X60942779Y16174181D02*
X60942779Y17174181D01*
X60942779Y17174181D02*
X61276112Y16459896D01*
X61276112Y16459896D02*
X61609445Y17174181D01*
X61609445Y17174181D02*
X61609445Y16174181D01*
X62514207Y16174181D02*
X62514207Y16697991D01*
X62514207Y16697991D02*
X62466588Y16793229D01*
X62466588Y16793229D02*
X62371350Y16840848D01*
X62371350Y16840848D02*
X62180874Y16840848D01*
X62180874Y16840848D02*
X62085636Y16793229D01*
X62514207Y16221800D02*
X62418969Y16174181D01*
X62418969Y16174181D02*
X62180874Y16174181D01*
X62180874Y16174181D02*
X62085636Y16221800D01*
X62085636Y16221800D02*
X62038017Y16317039D01*
X62038017Y16317039D02*
X62038017Y16412277D01*
X62038017Y16412277D02*
X62085636Y16507515D01*
X62085636Y16507515D02*
X62180874Y16555134D01*
X62180874Y16555134D02*
X62418969Y16555134D01*
X62418969Y16555134D02*
X62514207Y16602753D01*
X62942779Y16221800D02*
X63038017Y16174181D01*
X63038017Y16174181D02*
X63228493Y16174181D01*
X63228493Y16174181D02*
X63323731Y16221800D01*
X63323731Y16221800D02*
X63371350Y16317039D01*
X63371350Y16317039D02*
X63371350Y16364658D01*
X63371350Y16364658D02*
X63323731Y16459896D01*
X63323731Y16459896D02*
X63228493Y16507515D01*
X63228493Y16507515D02*
X63085636Y16507515D01*
X63085636Y16507515D02*
X62990398Y16555134D01*
X62990398Y16555134D02*
X62942779Y16650372D01*
X62942779Y16650372D02*
X62942779Y16697991D01*
X62942779Y16697991D02*
X62990398Y16793229D01*
X62990398Y16793229D02*
X63085636Y16840848D01*
X63085636Y16840848D02*
X63228493Y16840848D01*
X63228493Y16840848D02*
X63323731Y16793229D01*
X63799922Y16174181D02*
X63799922Y17174181D01*
X63895160Y16555134D02*
X64180874Y16174181D01*
X64180874Y16840848D02*
X63799922Y16459896D01*
D11*
%TO.C,J1*%
X7960000Y7060000D03*
D12*
X5420000Y7060000D03*
X7960000Y9600000D03*
X5420000Y9600000D03*
X7960000Y12140000D03*
X5420000Y12140000D03*
X7960000Y14680000D03*
X5420000Y14680000D03*
X7960000Y17220000D03*
X5420000Y17220000D03*
X7960000Y19760000D03*
X5420000Y19760000D03*
X7960000Y22300000D03*
X5420000Y22300000D03*
%TD*%
D13*
%TO.C,R11*%
X45441250Y6955000D03*
X45441250Y5130000D03*
%TD*%
D14*
%TO.C,C2*%
X23491250Y16880000D03*
X23491250Y18705000D03*
%TD*%
D15*
%TO.C,U1*%
X25591250Y25087500D03*
X25591250Y22547500D03*
X35091250Y22547500D03*
X35091250Y23817500D03*
X35091250Y25087500D03*
%TD*%
D13*
%TO.C,R7*%
X44441250Y15055000D03*
X44441250Y13230000D03*
%TD*%
D16*
%TO.C,D1*%
X38041250Y10092500D03*
X38041250Y13392500D03*
%TD*%
D17*
%TO.C,U2*%
X35091250Y16547500D03*
X35091250Y19087500D03*
X25591250Y19087500D03*
X25591250Y17817500D03*
X25591250Y16547500D03*
%TD*%
D18*
%TO.C,Q3*%
X18266250Y8492500D03*
X18266250Y6592500D03*
X20141250Y7542500D03*
%TD*%
D13*
%TO.C,R4*%
X46241250Y19155000D03*
X46241250Y17330000D03*
%TD*%
%TO.C,R10*%
X16190000Y8482500D03*
X16190000Y6657500D03*
%TD*%
D18*
%TO.C,Q4*%
X41103750Y6992500D03*
X41103750Y5092500D03*
X42978750Y6042500D03*
%TD*%
D13*
%TO.C,R6*%
X45450000Y10862500D03*
X45450000Y9037500D03*
%TD*%
D19*
%TO.C,Q5*%
X42978750Y9092500D03*
X42978750Y10992500D03*
X41103750Y10042500D03*
%TD*%
D13*
%TO.C,R9*%
X21690000Y18702500D03*
X21690000Y16877500D03*
%TD*%
%TO.C,R3*%
X39941250Y19155000D03*
X39941250Y17330000D03*
%TD*%
%TO.C,C1*%
X37091250Y24705000D03*
X37091250Y22880000D03*
%TD*%
D20*
%TO.C,D2*%
X22941250Y7492500D03*
X22941250Y4192500D03*
%TD*%
D15*
%TO.C,U4*%
X25591250Y7087500D03*
X25591250Y4547500D03*
X35091250Y4547500D03*
X35091250Y5817500D03*
X35091250Y7087500D03*
%TD*%
D21*
%TO.C,R5*%
X15828750Y3842500D03*
X17653750Y3842500D03*
%TD*%
D13*
%TO.C,R1*%
X19841250Y22805000D03*
X19841250Y20980000D03*
%TD*%
D19*
%TO.C,Q1*%
X44016250Y17292500D03*
X44016250Y19192500D03*
X42141250Y18242500D03*
%TD*%
D13*
%TO.C,C4*%
X37191250Y6755000D03*
X37191250Y4930000D03*
%TD*%
D14*
%TO.C,R8*%
X16241250Y10930000D03*
X16241250Y12755000D03*
%TD*%
D17*
%TO.C,U3*%
X35091250Y10547500D03*
X35091250Y13087500D03*
X25591250Y13087500D03*
X25591250Y11817500D03*
X25591250Y10547500D03*
%TD*%
D19*
%TO.C,Q2*%
X20141250Y10842500D03*
X20141250Y12742500D03*
X18266250Y11792500D03*
%TD*%
D14*
%TO.C,R2*%
X21641250Y20980000D03*
X21641250Y22805000D03*
%TD*%
%TO.C,C3*%
X23491250Y10880000D03*
X23491250Y12705000D03*
%TD*%
D11*
%TO.C,J2*%
X50341250Y19917500D03*
D12*
X50341250Y17377500D03*
X50341250Y14837500D03*
X50341250Y12297500D03*
X50341250Y9757500D03*
%TD*%
M02*
