M48
; DRILL file {KiCad 7.0.10} date Tue Oct 22 16:12:59 2024
; FORMAT={-:-/ absolute / metric / decimal}
; #@! TF.CreationDate,2024-10-22T16:12:59+01:00
; #@! TF.GenerationSoftware,Kicad,Pcbnew,7.0.10
; #@! TF.FileFunction,Plated,1,2,PTH
FMAT,2
METRIC
; #@! TA.AperFunction,Plated,PTH,ViaDrill
T1C0.400
; #@! TA.AperFunction,Plated,PTH,ComponentDrill
T2C1.000
%
G90
G05
T1
X16.241Y14.032
X18.561Y5.427
X23.491Y20.07
X23.491Y13.992
X36.741Y19.142
X37.041Y21.543
X38.741Y4.942
X42.97Y12.26
X46.941Y5.143
T2
X5.42Y22.3
X5.42Y19.76
X5.42Y17.22
X5.42Y14.68
X5.42Y12.14
X5.42Y9.6
X5.42Y7.06
X7.96Y22.3
X7.96Y19.76
X7.96Y17.22
X7.96Y14.68
X7.96Y12.14
X7.96Y9.6
X7.96Y7.06
X50.341Y19.918
X50.341Y17.377
X50.341Y14.837
X50.341Y12.297
X50.341Y9.758
M30
