%TF.GenerationSoftware,KiCad,Pcbnew,7.0.10*%
%TF.CreationDate,2024-10-22T16:13:00+01:00*%
%TF.ProjectId,RL78I1C_PMOD_PROG_ADAPTOR_ISO,524c3738-4931-4435-9f50-4d4f445f5052,0*%
%TF.SameCoordinates,PX58b5f60PY7997ee0*%
%TF.FileFunction,Copper,L2,Bot*%
%TF.FilePolarity,Positive*%
%FSLAX46Y46*%
G04 Gerber Fmt 4.6, Leading zero omitted, Abs format (unit mm)*
G04 Created by KiCad (PCBNEW 7.0.10) date 2024-10-22 16:13:00*
%MOMM*%
%LPD*%
G01*
G04 APERTURE LIST*
%ADD10C,0.150000*%
%TA.AperFunction,NonConductor*%
%ADD11C,0.150000*%
%TD*%
%TA.AperFunction,ComponentPad*%
%ADD12R,1.700000X1.700000*%
%TD*%
%TA.AperFunction,ComponentPad*%
%ADD13O,1.700000X1.700000*%
%TD*%
%TA.AperFunction,ViaPad*%
%ADD14C,0.800000*%
%TD*%
G04 APERTURE END LIST*
D10*
D11*
X61614207Y11869420D02*
X61566588Y11821800D01*
X61566588Y11821800D02*
X61423731Y11774181D01*
X61423731Y11774181D02*
X61328493Y11774181D01*
X61328493Y11774181D02*
X61185636Y11821800D01*
X61185636Y11821800D02*
X61090398Y11917039D01*
X61090398Y11917039D02*
X61042779Y12012277D01*
X61042779Y12012277D02*
X60995160Y12202753D01*
X60995160Y12202753D02*
X60995160Y12345610D01*
X60995160Y12345610D02*
X61042779Y12536086D01*
X61042779Y12536086D02*
X61090398Y12631324D01*
X61090398Y12631324D02*
X61185636Y12726562D01*
X61185636Y12726562D02*
X61328493Y12774181D01*
X61328493Y12774181D02*
X61423731Y12774181D01*
X61423731Y12774181D02*
X61566588Y12726562D01*
X61566588Y12726562D02*
X61614207Y12678943D01*
X62185636Y11774181D02*
X62090398Y11821800D01*
X62090398Y11821800D02*
X62042779Y11869420D01*
X62042779Y11869420D02*
X61995160Y11964658D01*
X61995160Y11964658D02*
X61995160Y12250372D01*
X61995160Y12250372D02*
X62042779Y12345610D01*
X62042779Y12345610D02*
X62090398Y12393229D01*
X62090398Y12393229D02*
X62185636Y12440848D01*
X62185636Y12440848D02*
X62328493Y12440848D01*
X62328493Y12440848D02*
X62423731Y12393229D01*
X62423731Y12393229D02*
X62471350Y12345610D01*
X62471350Y12345610D02*
X62518969Y12250372D01*
X62518969Y12250372D02*
X62518969Y11964658D01*
X62518969Y11964658D02*
X62471350Y11869420D01*
X62471350Y11869420D02*
X62423731Y11821800D01*
X62423731Y11821800D02*
X62328493Y11774181D01*
X62328493Y11774181D02*
X62185636Y11774181D01*
X62947541Y12440848D02*
X62947541Y11440848D01*
X62947541Y12393229D02*
X63042779Y12440848D01*
X63042779Y12440848D02*
X63233255Y12440848D01*
X63233255Y12440848D02*
X63328493Y12393229D01*
X63328493Y12393229D02*
X63376112Y12345610D01*
X63376112Y12345610D02*
X63423731Y12250372D01*
X63423731Y12250372D02*
X63423731Y11964658D01*
X63423731Y11964658D02*
X63376112Y11869420D01*
X63376112Y11869420D02*
X63328493Y11821800D01*
X63328493Y11821800D02*
X63233255Y11774181D01*
X63233255Y11774181D02*
X63042779Y11774181D01*
X63042779Y11774181D02*
X62947541Y11821800D01*
X63852303Y12440848D02*
X63852303Y11440848D01*
X63852303Y12393229D02*
X63947541Y12440848D01*
X63947541Y12440848D02*
X64138017Y12440848D01*
X64138017Y12440848D02*
X64233255Y12393229D01*
X64233255Y12393229D02*
X64280874Y12345610D01*
X64280874Y12345610D02*
X64328493Y12250372D01*
X64328493Y12250372D02*
X64328493Y11964658D01*
X64328493Y11964658D02*
X64280874Y11869420D01*
X64280874Y11869420D02*
X64233255Y11821800D01*
X64233255Y11821800D02*
X64138017Y11774181D01*
X64138017Y11774181D02*
X63947541Y11774181D01*
X63947541Y11774181D02*
X63852303Y11821800D01*
X65138017Y11821800D02*
X65042779Y11774181D01*
X65042779Y11774181D02*
X64852303Y11774181D01*
X64852303Y11774181D02*
X64757065Y11821800D01*
X64757065Y11821800D02*
X64709446Y11917039D01*
X64709446Y11917039D02*
X64709446Y12297991D01*
X64709446Y12297991D02*
X64757065Y12393229D01*
X64757065Y12393229D02*
X64852303Y12440848D01*
X64852303Y12440848D02*
X65042779Y12440848D01*
X65042779Y12440848D02*
X65138017Y12393229D01*
X65138017Y12393229D02*
X65185636Y12297991D01*
X65185636Y12297991D02*
X65185636Y12202753D01*
X65185636Y12202753D02*
X64709446Y12107515D01*
X65614208Y11774181D02*
X65614208Y12440848D01*
X65614208Y12250372D02*
X65661827Y12345610D01*
X65661827Y12345610D02*
X65709446Y12393229D01*
X65709446Y12393229D02*
X65804684Y12440848D01*
X65804684Y12440848D02*
X65899922Y12440848D01*
D12*
%TO.P,J1,1,Pin_1*%
%TO.N,unconnected-(J1-Pin_1-Pad1)*%
X7960000Y7060000D03*
D13*
%TO.P,J1,2,Pin_2*%
%TO.N,GND*%
X5420000Y7060000D03*
%TO.P,J1,3,Pin_3*%
%TO.N,unconnected-(J1-Pin_3-Pad3)*%
X7960000Y9600000D03*
%TO.P,J1,4,Pin_4*%
%TO.N,Net-(J1-Pin_4)*%
X5420000Y9600000D03*
%TO.P,J1,5,Pin_5*%
%TO.N,/TOOL0*%
X7960000Y12140000D03*
%TO.P,J1,6,Pin_6*%
%TO.N,/~{RESET_IN}*%
X5420000Y12140000D03*
%TO.P,J1,7,Pin_7*%
%TO.N,unconnected-(J1-Pin_7-Pad7)*%
X7960000Y14680000D03*
%TO.P,J1,8,Pin_8*%
%TO.N,VCC*%
X5420000Y14680000D03*
%TO.P,J1,9,Pin_9*%
X7960000Y17220000D03*
%TO.P,J1,10,Pin_10*%
%TO.N,/~{RESET_OUT}*%
X5420000Y17220000D03*
%TO.P,J1,11,Pin_11*%
%TO.N,unconnected-(J1-Pin_11-Pad11)*%
X7960000Y19760000D03*
%TO.P,J1,12,Pin_12*%
%TO.N,GND*%
X5420000Y19760000D03*
%TO.P,J1,13,Pin_13*%
%TO.N,/~{RESET_OUT}*%
X7960000Y22300000D03*
%TO.P,J1,14,Pin_14*%
%TO.N,GND*%
X5420000Y22300000D03*
%TD*%
D12*
%TO.P,J2,1,Pin_1*%
%TO.N,VCOM*%
X50341250Y19917500D03*
D13*
%TO.P,J2,2,Pin_2*%
%TO.N,/~{RESET_IN_MCU}*%
X50341250Y17377500D03*
%TO.P,J2,3,Pin_3*%
%TO.N,/~{RESET_OUT_MCU}*%
X50341250Y14837500D03*
%TO.P,J2,4,Pin_4*%
%TO.N,/TOOL0_MCU*%
X50341250Y12297500D03*
%TO.P,J2,5,Pin_5*%
%TO.N,GNDD*%
X50341250Y9757500D03*
%TD*%
D14*
%TO.N,GNDD*%
X42970000Y12260000D03*
%TO.N,GND*%
X18560937Y5427314D03*
X16241250Y14032500D03*
%TO.N,GNDD*%
X46941250Y5142500D03*
%TO.N,GND*%
X23491250Y20070000D03*
X23491250Y13992500D03*
%TO.N,GNDD*%
X37041250Y21542500D03*
X36741250Y19142500D03*
X38741250Y4942500D03*
%TD*%
%TA.AperFunction,Conductor*%
%TO.N,GND*%
G36*
X5670000Y20195502D02*
G01*
X5562315Y20244680D01*
X5455763Y20260000D01*
X5384237Y20260000D01*
X5277685Y20244680D01*
X5170000Y20195502D01*
X5170000Y21864499D01*
X5277685Y21815320D01*
X5384237Y21800000D01*
X5455763Y21800000D01*
X5562315Y21815320D01*
X5670000Y21864499D01*
X5670000Y20195502D01*
G37*
%TD.AperFunction*%
%TA.AperFunction,Conductor*%
G36*
X13911788Y26222815D02*
G01*
X13957543Y26170011D01*
X13968567Y26125213D01*
X13976625Y25976578D01*
X13976627Y25976561D01*
X14035910Y25614953D01*
X14035912Y25614943D01*
X14036730Y25611999D01*
X14041250Y25578823D01*
X14041250Y23192500D01*
X16085749Y23192500D01*
X16125340Y23186010D01*
X16435810Y23081400D01*
X16793705Y23002621D01*
X17158019Y22963000D01*
X17158025Y22963000D01*
X17524475Y22963000D01*
X17524481Y22963000D01*
X17888795Y23002621D01*
X18246690Y23081400D01*
X18557159Y23186010D01*
X18596751Y23192500D01*
X20591250Y23192500D01*
X20591250Y25398741D01*
X20595770Y25431915D01*
X20630600Y25557361D01*
X20646587Y25614940D01*
X20705874Y25976575D01*
X20708511Y26025214D01*
X20731796Y26091089D01*
X20787000Y26133918D01*
X20832329Y26142500D01*
X26917250Y26142500D01*
X26984289Y26122815D01*
X27030044Y26070011D01*
X27041250Y26018500D01*
X27041250Y2616500D01*
X27021565Y2549461D01*
X26968761Y2503706D01*
X26917250Y2492500D01*
X3195250Y2492500D01*
X3128211Y2512185D01*
X3082456Y2564989D01*
X3071250Y2616500D01*
X3071250Y9600000D01*
X4064341Y9600000D01*
X4084936Y9364597D01*
X4084938Y9364587D01*
X4146094Y9136345D01*
X4146096Y9136341D01*
X4146097Y9136337D01*
X4150000Y9127968D01*
X4245965Y8922170D01*
X4245967Y8922166D01*
X4354281Y8767479D01*
X4381505Y8728599D01*
X4548599Y8561505D01*
X4715439Y8444682D01*
X4734594Y8431270D01*
X4778219Y8376693D01*
X4785413Y8307195D01*
X4753890Y8244840D01*
X4734595Y8228120D01*
X4548922Y8098110D01*
X4548920Y8098109D01*
X4381891Y7931080D01*
X4381886Y7931074D01*
X4246400Y7737580D01*
X4246399Y7737578D01*
X4146570Y7523493D01*
X4146567Y7523487D01*
X4089364Y7310001D01*
X4089364Y7310000D01*
X4986314Y7310000D01*
X4960507Y7269844D01*
X4920000Y7131889D01*
X4920000Y6988111D01*
X4960507Y6850156D01*
X4986314Y6810000D01*
X4089364Y6810000D01*
X4146567Y6596514D01*
X4146570Y6596508D01*
X4246399Y6382422D01*
X4381894Y6188918D01*
X4548917Y6021895D01*
X4742421Y5886400D01*
X4956507Y5786571D01*
X4956516Y5786567D01*
X5170000Y5729366D01*
X5170000Y6624499D01*
X5277685Y6575320D01*
X5384237Y6560000D01*
X5455763Y6560000D01*
X5562315Y6575320D01*
X5670000Y6624499D01*
X5670000Y5729367D01*
X5883483Y5786567D01*
X5883492Y5786571D01*
X6097578Y5886400D01*
X6291078Y6021892D01*
X6413133Y6143947D01*
X6474456Y6177432D01*
X6544148Y6172448D01*
X6600082Y6130577D01*
X6616997Y6099599D01*
X6666202Y5967672D01*
X6666206Y5967665D01*
X6752452Y5852456D01*
X6752455Y5852453D01*
X6867664Y5766207D01*
X6867671Y5766203D01*
X7002517Y5715909D01*
X7002516Y5715909D01*
X7009444Y5715165D01*
X7062127Y5709500D01*
X8857872Y5709501D01*
X8917483Y5715909D01*
X9052331Y5766204D01*
X9167546Y5852454D01*
X9253796Y5967669D01*
X9304091Y6102517D01*
X9310500Y6162127D01*
X9310499Y7957872D01*
X9304091Y8017483D01*
X9303002Y8020402D01*
X9253797Y8152329D01*
X9253793Y8152336D01*
X9167547Y8267545D01*
X9167544Y8267548D01*
X9052335Y8353794D01*
X9052328Y8353798D01*
X8920917Y8402811D01*
X8864983Y8444682D01*
X8840566Y8510147D01*
X8855418Y8578420D01*
X8876563Y8606668D01*
X8998495Y8728599D01*
X9134035Y8922170D01*
X9233903Y9136337D01*
X9295063Y9364592D01*
X9315659Y9600000D01*
X9295063Y9835408D01*
X9233903Y10063663D01*
X9134035Y10277829D01*
X9128425Y10285842D01*
X8998494Y10471403D01*
X8831402Y10638494D01*
X8831396Y10638499D01*
X8645842Y10768425D01*
X8602217Y10823002D01*
X8595023Y10892500D01*
X8626546Y10954855D01*
X8645842Y10971575D01*
X8668026Y10987109D01*
X8831401Y11101505D01*
X8998495Y11268599D01*
X9134035Y11462170D01*
X9233903Y11676337D01*
X9295063Y11904592D01*
X9315659Y12140000D01*
X9295063Y12375408D01*
X9233903Y12603663D01*
X9134035Y12817829D01*
X9128425Y12825842D01*
X8998494Y13011403D01*
X8831402Y13178494D01*
X8831396Y13178499D01*
X8645842Y13308425D01*
X8602217Y13363002D01*
X8595023Y13432500D01*
X8626546Y13494855D01*
X8645842Y13511575D01*
X8668026Y13527109D01*
X8831401Y13641505D01*
X8998495Y13808599D01*
X9134035Y14002170D01*
X9233903Y14216337D01*
X9295063Y14444592D01*
X9315659Y14680000D01*
X9295063Y14915408D01*
X9233903Y15143663D01*
X9134035Y15357829D01*
X9128425Y15365842D01*
X8998494Y15551403D01*
X8831402Y15718494D01*
X8831396Y15718499D01*
X8645842Y15848425D01*
X8602217Y15903002D01*
X8595023Y15972500D01*
X8626546Y16034855D01*
X8645842Y16051575D01*
X8668026Y16067109D01*
X8831401Y16181505D01*
X8998495Y16348599D01*
X9134035Y16542170D01*
X9233903Y16756337D01*
X9295063Y16984592D01*
X9315659Y17220000D01*
X9295063Y17455408D01*
X9233903Y17683663D01*
X9134035Y17897829D01*
X9128425Y17905842D01*
X8998494Y18091403D01*
X8831402Y18258494D01*
X8831396Y18258499D01*
X8645842Y18388425D01*
X8602217Y18443002D01*
X8595023Y18512500D01*
X8626546Y18574855D01*
X8645842Y18591575D01*
X8668026Y18607109D01*
X8831401Y18721505D01*
X8998495Y18888599D01*
X9134035Y19082170D01*
X9233903Y19296337D01*
X9295063Y19524592D01*
X9315659Y19760000D01*
X9295063Y19995408D01*
X9233903Y20223663D01*
X9134035Y20437829D01*
X9128731Y20445405D01*
X8998494Y20631403D01*
X8831402Y20798494D01*
X8831396Y20798499D01*
X8645842Y20928425D01*
X8602217Y20983002D01*
X8595023Y21052500D01*
X8626546Y21114855D01*
X8645842Y21131575D01*
X8668026Y21147109D01*
X8831401Y21261505D01*
X8998495Y21428599D01*
X9134035Y21622170D01*
X9233903Y21836337D01*
X9295063Y22064592D01*
X9315659Y22300000D01*
X9295063Y22535408D01*
X9233903Y22763663D01*
X9134035Y22977829D01*
X9128731Y22985405D01*
X8998494Y23171403D01*
X8831402Y23338494D01*
X8831395Y23338499D01*
X8637834Y23474033D01*
X8637830Y23474035D01*
X8493760Y23541216D01*
X8423663Y23573903D01*
X8423659Y23573904D01*
X8423655Y23573906D01*
X8195413Y23635062D01*
X8195403Y23635064D01*
X7960001Y23655659D01*
X7959999Y23655659D01*
X7724596Y23635064D01*
X7724586Y23635062D01*
X7496344Y23573906D01*
X7496335Y23573902D01*
X7282171Y23474036D01*
X7282169Y23474035D01*
X7088597Y23338495D01*
X6921508Y23171406D01*
X6791269Y22985405D01*
X6736692Y22941781D01*
X6667193Y22934588D01*
X6604839Y22966110D01*
X6588119Y22985406D01*
X6458113Y23171074D01*
X6458108Y23171080D01*
X6291082Y23338106D01*
X6097578Y23473601D01*
X5883492Y23573430D01*
X5883486Y23573433D01*
X5670000Y23630636D01*
X5670000Y22735502D01*
X5562315Y22784680D01*
X5455763Y22800000D01*
X5384237Y22800000D01*
X5277685Y22784680D01*
X5170000Y22735502D01*
X5170000Y23630636D01*
X5169999Y23630636D01*
X4956513Y23573433D01*
X4956507Y23573430D01*
X4742422Y23473601D01*
X4742420Y23473600D01*
X4548926Y23338114D01*
X4548920Y23338109D01*
X4381891Y23171080D01*
X4381886Y23171074D01*
X4246400Y22977580D01*
X4246399Y22977578D01*
X4146570Y22763493D01*
X4146567Y22763487D01*
X4089364Y22550001D01*
X4089364Y22550000D01*
X4986314Y22550000D01*
X4960507Y22509844D01*
X4920000Y22371889D01*
X4920000Y22228111D01*
X4960507Y22090156D01*
X4986314Y22050000D01*
X4089364Y22050000D01*
X4146567Y21836514D01*
X4146570Y21836508D01*
X4246399Y21622422D01*
X4381894Y21428918D01*
X4548917Y21261895D01*
X4735031Y21131575D01*
X4778656Y21076997D01*
X4785848Y21007499D01*
X4754326Y20945144D01*
X4735031Y20928425D01*
X4548922Y20798110D01*
X4548920Y20798109D01*
X4381891Y20631080D01*
X4381886Y20631074D01*
X4246400Y20437580D01*
X4246399Y20437578D01*
X4146570Y20223493D01*
X4146567Y20223487D01*
X4089364Y20010001D01*
X4089364Y20010000D01*
X4986314Y20010000D01*
X4960507Y19969844D01*
X4920000Y19831889D01*
X4920000Y19688111D01*
X4960507Y19550156D01*
X4986314Y19510000D01*
X4089364Y19510000D01*
X4146567Y19296514D01*
X4146570Y19296508D01*
X4246399Y19082422D01*
X4381894Y18888918D01*
X4548917Y18721895D01*
X4734595Y18591881D01*
X4778219Y18537304D01*
X4785412Y18467805D01*
X4753890Y18405451D01*
X4734595Y18388731D01*
X4548594Y18258492D01*
X4381505Y18091403D01*
X4245965Y17897831D01*
X4245964Y17897829D01*
X4146098Y17683665D01*
X4146094Y17683656D01*
X4084938Y17455414D01*
X4084936Y17455404D01*
X4064341Y17220001D01*
X4064341Y17220000D01*
X4084936Y16984597D01*
X4084938Y16984587D01*
X4146094Y16756345D01*
X4146096Y16756341D01*
X4146097Y16756337D01*
X4150000Y16747968D01*
X4245965Y16542170D01*
X4245967Y16542166D01*
X4354281Y16387479D01*
X4381501Y16348604D01*
X4381506Y16348598D01*
X4548597Y16181507D01*
X4548603Y16181502D01*
X4734158Y16051575D01*
X4777783Y15996998D01*
X4784977Y15927500D01*
X4753454Y15865145D01*
X4734158Y15848425D01*
X4548597Y15718495D01*
X4381505Y15551403D01*
X4245965Y15357831D01*
X4245964Y15357829D01*
X4146098Y15143665D01*
X4146094Y15143656D01*
X4084938Y14915414D01*
X4084936Y14915404D01*
X4064341Y14680001D01*
X4064341Y14680000D01*
X4084936Y14444597D01*
X4084938Y14444587D01*
X4146094Y14216345D01*
X4146096Y14216341D01*
X4146097Y14216337D01*
X4150000Y14207968D01*
X4245965Y14002170D01*
X4245967Y14002166D01*
X4354281Y13847479D01*
X4381501Y13808604D01*
X4381506Y13808598D01*
X4548597Y13641507D01*
X4548603Y13641502D01*
X4734158Y13511575D01*
X4777783Y13456998D01*
X4784977Y13387500D01*
X4753454Y13325145D01*
X4734158Y13308425D01*
X4548597Y13178495D01*
X4381505Y13011403D01*
X4245965Y12817831D01*
X4245964Y12817829D01*
X4146098Y12603665D01*
X4146094Y12603656D01*
X4084938Y12375414D01*
X4084936Y12375404D01*
X4064341Y12140001D01*
X4064341Y12140000D01*
X4084936Y11904597D01*
X4084938Y11904587D01*
X4146094Y11676345D01*
X4146096Y11676341D01*
X4146097Y11676337D01*
X4150000Y11667968D01*
X4245965Y11462170D01*
X4245967Y11462166D01*
X4354281Y11307479D01*
X4381501Y11268604D01*
X4381506Y11268598D01*
X4548597Y11101507D01*
X4548603Y11101502D01*
X4734158Y10971575D01*
X4777783Y10916998D01*
X4784977Y10847500D01*
X4753454Y10785145D01*
X4734158Y10768425D01*
X4548597Y10638495D01*
X4381505Y10471403D01*
X4245965Y10277831D01*
X4245964Y10277829D01*
X4146098Y10063665D01*
X4146094Y10063656D01*
X4084938Y9835414D01*
X4084936Y9835404D01*
X4064341Y9600001D01*
X4064341Y9600000D01*
X3071250Y9600000D01*
X3071250Y26118500D01*
X3090935Y26185539D01*
X3143739Y26231294D01*
X3195250Y26242500D01*
X13844749Y26242500D01*
X13911788Y26222815D01*
G37*
%TD.AperFunction*%
%TD*%
%TA.AperFunction,Conductor*%
%TO.N,GNDD*%
G36*
X52234236Y26072815D02*
G01*
X52279991Y26020011D01*
X52291197Y25968447D01*
X52281302Y2606447D01*
X52261589Y2539416D01*
X52208766Y2493684D01*
X52157302Y2482500D01*
X33705303Y2482500D01*
X33638264Y2502185D01*
X33592509Y2554989D01*
X33581303Y2606553D01*
X33585408Y12297500D01*
X48985591Y12297500D01*
X49006186Y12062097D01*
X49006188Y12062087D01*
X49067344Y11833845D01*
X49067346Y11833841D01*
X49067347Y11833837D01*
X49167215Y11619670D01*
X49167217Y11619666D01*
X49302751Y11426105D01*
X49302756Y11426098D01*
X49469847Y11259007D01*
X49469853Y11259002D01*
X49655844Y11128770D01*
X49699469Y11074193D01*
X49706663Y11004695D01*
X49675140Y10942340D01*
X49655845Y10925620D01*
X49470172Y10795610D01*
X49470170Y10795609D01*
X49303141Y10628580D01*
X49303136Y10628574D01*
X49167650Y10435080D01*
X49167649Y10435078D01*
X49067820Y10220993D01*
X49067817Y10220987D01*
X49010614Y10007501D01*
X49010614Y10007500D01*
X49907564Y10007500D01*
X49881757Y9967344D01*
X49841250Y9829389D01*
X49841250Y9685611D01*
X49881757Y9547656D01*
X49907564Y9507500D01*
X49010614Y9507500D01*
X49067817Y9294014D01*
X49067820Y9294008D01*
X49167649Y9079922D01*
X49303144Y8886418D01*
X49470167Y8719395D01*
X49663671Y8583900D01*
X49877757Y8484071D01*
X49877766Y8484067D01*
X50091250Y8426866D01*
X50091250Y9321999D01*
X50198935Y9272820D01*
X50305487Y9257500D01*
X50377013Y9257500D01*
X50483565Y9272820D01*
X50591250Y9321999D01*
X50591250Y8426867D01*
X50804733Y8484067D01*
X50804742Y8484071D01*
X51018828Y8583900D01*
X51212332Y8719395D01*
X51379355Y8886418D01*
X51514850Y9079922D01*
X51614679Y9294008D01*
X51614682Y9294014D01*
X51671886Y9507500D01*
X50774936Y9507500D01*
X50800743Y9547656D01*
X50841250Y9685611D01*
X50841250Y9829389D01*
X50800743Y9967344D01*
X50774936Y10007500D01*
X51671886Y10007500D01*
X51671885Y10007501D01*
X51614682Y10220987D01*
X51614679Y10220993D01*
X51514850Y10435078D01*
X51514849Y10435080D01*
X51379363Y10628574D01*
X51379358Y10628580D01*
X51212328Y10795610D01*
X51026655Y10925621D01*
X50983030Y10980198D01*
X50975838Y11049696D01*
X51007360Y11112051D01*
X51026656Y11128770D01*
X51212651Y11259005D01*
X51379745Y11426099D01*
X51515285Y11619670D01*
X51615153Y11833837D01*
X51676313Y12062092D01*
X51696909Y12297500D01*
X51676313Y12532908D01*
X51615153Y12761163D01*
X51515285Y12975329D01*
X51379745Y13168901D01*
X51379744Y13168903D01*
X51212652Y13335994D01*
X51212646Y13335999D01*
X51027092Y13465925D01*
X50983467Y13520502D01*
X50976273Y13590000D01*
X51007796Y13652355D01*
X51027092Y13669075D01*
X51049276Y13684609D01*
X51212651Y13799005D01*
X51379745Y13966099D01*
X51515285Y14159670D01*
X51615153Y14373837D01*
X51676313Y14602092D01*
X51696909Y14837500D01*
X51676313Y15072908D01*
X51615153Y15301163D01*
X51515285Y15515329D01*
X51379745Y15708901D01*
X51379744Y15708903D01*
X51212652Y15875994D01*
X51212646Y15875999D01*
X51027092Y16005925D01*
X50983467Y16060502D01*
X50976273Y16130000D01*
X51007796Y16192355D01*
X51027092Y16209075D01*
X51049276Y16224609D01*
X51212651Y16339005D01*
X51379745Y16506099D01*
X51515285Y16699670D01*
X51615153Y16913837D01*
X51676313Y17142092D01*
X51696909Y17377500D01*
X51676313Y17612908D01*
X51615153Y17841163D01*
X51515285Y18055329D01*
X51379745Y18248901D01*
X51257817Y18370829D01*
X51224334Y18432149D01*
X51229318Y18501841D01*
X51271189Y18557775D01*
X51302165Y18574690D01*
X51433581Y18623704D01*
X51548796Y18709954D01*
X51635046Y18825169D01*
X51685341Y18960017D01*
X51691750Y19019627D01*
X51691749Y20815372D01*
X51685341Y20874983D01*
X51635046Y21009831D01*
X51635045Y21009832D01*
X51635043Y21009836D01*
X51548797Y21125045D01*
X51548794Y21125048D01*
X51433585Y21211294D01*
X51433578Y21211298D01*
X51298732Y21261592D01*
X51298733Y21261592D01*
X51239133Y21267999D01*
X51239131Y21268000D01*
X51239123Y21268000D01*
X51239114Y21268000D01*
X49443379Y21268000D01*
X49443373Y21267999D01*
X49383766Y21261592D01*
X49248921Y21211298D01*
X49248914Y21211294D01*
X49133705Y21125048D01*
X49133702Y21125045D01*
X49047456Y21009836D01*
X49047452Y21009829D01*
X48997158Y20874983D01*
X48990751Y20815384D01*
X48990751Y20815377D01*
X48990750Y20815365D01*
X48990750Y19019630D01*
X48990751Y19019624D01*
X48997158Y18960017D01*
X49047452Y18825172D01*
X49047456Y18825165D01*
X49133702Y18709956D01*
X49133705Y18709953D01*
X49248914Y18623707D01*
X49248921Y18623703D01*
X49380331Y18574690D01*
X49436265Y18532819D01*
X49460682Y18467355D01*
X49445830Y18399082D01*
X49424680Y18370827D01*
X49302753Y18248900D01*
X49167215Y18055331D01*
X49167214Y18055329D01*
X49067348Y17841165D01*
X49067344Y17841156D01*
X49006188Y17612914D01*
X49006186Y17612904D01*
X48985591Y17377501D01*
X48985591Y17377500D01*
X49006186Y17142097D01*
X49006188Y17142087D01*
X49067344Y16913845D01*
X49067346Y16913841D01*
X49067347Y16913837D01*
X49167215Y16699670D01*
X49167217Y16699666D01*
X49302751Y16506105D01*
X49302756Y16506098D01*
X49469847Y16339007D01*
X49469853Y16339002D01*
X49655408Y16209075D01*
X49699033Y16154498D01*
X49706227Y16085000D01*
X49674704Y16022645D01*
X49655408Y16005925D01*
X49469847Y15875995D01*
X49302755Y15708903D01*
X49167215Y15515331D01*
X49167214Y15515329D01*
X49067348Y15301165D01*
X49067344Y15301156D01*
X49006188Y15072914D01*
X49006186Y15072904D01*
X48985591Y14837501D01*
X48985591Y14837500D01*
X49006186Y14602097D01*
X49006188Y14602087D01*
X49067344Y14373845D01*
X49067346Y14373841D01*
X49067347Y14373837D01*
X49167215Y14159670D01*
X49167217Y14159666D01*
X49302751Y13966105D01*
X49302756Y13966098D01*
X49469847Y13799007D01*
X49469853Y13799002D01*
X49655408Y13669075D01*
X49699033Y13614498D01*
X49706227Y13545000D01*
X49674704Y13482645D01*
X49655408Y13465925D01*
X49469847Y13335995D01*
X49302755Y13168903D01*
X49167215Y12975331D01*
X49167214Y12975329D01*
X49067348Y12761165D01*
X49067344Y12761156D01*
X49006188Y12532914D01*
X49006186Y12532904D01*
X48985591Y12297501D01*
X48985591Y12297500D01*
X33585408Y12297500D01*
X33591198Y25968553D01*
X33610911Y26035584D01*
X33663734Y26081316D01*
X33715198Y26092500D01*
X52167197Y26092500D01*
X52234236Y26072815D01*
G37*
%TD.AperFunction*%
%TD*%
M02*
