%TF.GenerationSoftware,KiCad,Pcbnew,7.0.10*%
%TF.CreationDate,2024-07-25T14:24:15+01:00*%
%TF.ProjectId,RL78I1C_PMOD_PROG_ADAPTOR_ISO,524c3738-4931-4435-9f50-4d4f445f5052,0*%
%TF.SameCoordinates,PX5b8d800PY7997ee0*%
%TF.FileFunction,Soldermask,Bot*%
%TF.FilePolarity,Negative*%
%FSLAX46Y46*%
G04 Gerber Fmt 4.6, Leading zero omitted, Abs format (unit mm)*
G04 Created by KiCad (PCBNEW 7.0.10) date 2024-07-25 14:24:15*
%MOMM*%
%LPD*%
G01*
G04 APERTURE LIST*
%ADD10C,0.150000*%
%ADD11R,1.700000X1.700000*%
%ADD12O,1.700000X1.700000*%
G04 APERTURE END LIST*
D10*
X58062779Y6574181D02*
X58062779Y7574181D01*
X58062779Y7574181D02*
X58396112Y6859896D01*
X58396112Y6859896D02*
X58729445Y7574181D01*
X58729445Y7574181D02*
X58729445Y6574181D01*
X59634207Y6574181D02*
X59634207Y7097991D01*
X59634207Y7097991D02*
X59586588Y7193229D01*
X59586588Y7193229D02*
X59491350Y7240848D01*
X59491350Y7240848D02*
X59300874Y7240848D01*
X59300874Y7240848D02*
X59205636Y7193229D01*
X59634207Y6621800D02*
X59538969Y6574181D01*
X59538969Y6574181D02*
X59300874Y6574181D01*
X59300874Y6574181D02*
X59205636Y6621800D01*
X59205636Y6621800D02*
X59158017Y6717039D01*
X59158017Y6717039D02*
X59158017Y6812277D01*
X59158017Y6812277D02*
X59205636Y6907515D01*
X59205636Y6907515D02*
X59300874Y6955134D01*
X59300874Y6955134D02*
X59538969Y6955134D01*
X59538969Y6955134D02*
X59634207Y7002753D01*
X60062779Y6621800D02*
X60158017Y6574181D01*
X60158017Y6574181D02*
X60348493Y6574181D01*
X60348493Y6574181D02*
X60443731Y6621800D01*
X60443731Y6621800D02*
X60491350Y6717039D01*
X60491350Y6717039D02*
X60491350Y6764658D01*
X60491350Y6764658D02*
X60443731Y6859896D01*
X60443731Y6859896D02*
X60348493Y6907515D01*
X60348493Y6907515D02*
X60205636Y6907515D01*
X60205636Y6907515D02*
X60110398Y6955134D01*
X60110398Y6955134D02*
X60062779Y7050372D01*
X60062779Y7050372D02*
X60062779Y7097991D01*
X60062779Y7097991D02*
X60110398Y7193229D01*
X60110398Y7193229D02*
X60205636Y7240848D01*
X60205636Y7240848D02*
X60348493Y7240848D01*
X60348493Y7240848D02*
X60443731Y7193229D01*
X60919922Y6574181D02*
X60919922Y7574181D01*
X61015160Y6955134D02*
X61300874Y6574181D01*
X61300874Y7240848D02*
X60919922Y6859896D01*
D11*
%TO.C,J1*%
X6940000Y7180000D03*
D12*
X4400000Y7180000D03*
X6940000Y9720000D03*
X4400000Y9720000D03*
X6940000Y12260000D03*
X4400000Y12260000D03*
X6940000Y14800000D03*
X4400000Y14800000D03*
X6940000Y17340000D03*
X4400000Y17340000D03*
X6940000Y19880000D03*
X4400000Y19880000D03*
X6940000Y22420000D03*
X4400000Y22420000D03*
%TD*%
D11*
%TO.C,J2*%
X46500000Y20075000D03*
D12*
X46500000Y17535000D03*
X46500000Y14995000D03*
X46500000Y12455000D03*
X46500000Y9915000D03*
%TD*%
M02*
