%TF.GenerationSoftware,KiCad,Pcbnew,7.0.10*%
%TF.CreationDate,2024-07-25T14:24:15+01:00*%
%TF.ProjectId,RL78I1C_PMOD_PROG_ADAPTOR_ISO,524c3738-4931-4435-9f50-4d4f445f5052,0*%
%TF.SameCoordinates,PX5b8d800PY7997ee0*%
%TF.FileFunction,Copper,L2,Bot*%
%TF.FilePolarity,Positive*%
%FSLAX46Y46*%
G04 Gerber Fmt 4.6, Leading zero omitted, Abs format (unit mm)*
G04 Created by KiCad (PCBNEW 7.0.10) date 2024-07-25 14:24:15*
%MOMM*%
%LPD*%
G01*
G04 APERTURE LIST*
%ADD10C,0.150000*%
%TA.AperFunction,NonConductor*%
%ADD11C,0.150000*%
%TD*%
%TA.AperFunction,ComponentPad*%
%ADD12R,1.700000X1.700000*%
%TD*%
%TA.AperFunction,ComponentPad*%
%ADD13O,1.700000X1.700000*%
%TD*%
%TA.AperFunction,ViaPad*%
%ADD14C,0.800000*%
%TD*%
G04 APERTURE END LIST*
D10*
D11*
X58634207Y11869420D02*
X58586588Y11821800D01*
X58586588Y11821800D02*
X58443731Y11774181D01*
X58443731Y11774181D02*
X58348493Y11774181D01*
X58348493Y11774181D02*
X58205636Y11821800D01*
X58205636Y11821800D02*
X58110398Y11917039D01*
X58110398Y11917039D02*
X58062779Y12012277D01*
X58062779Y12012277D02*
X58015160Y12202753D01*
X58015160Y12202753D02*
X58015160Y12345610D01*
X58015160Y12345610D02*
X58062779Y12536086D01*
X58062779Y12536086D02*
X58110398Y12631324D01*
X58110398Y12631324D02*
X58205636Y12726562D01*
X58205636Y12726562D02*
X58348493Y12774181D01*
X58348493Y12774181D02*
X58443731Y12774181D01*
X58443731Y12774181D02*
X58586588Y12726562D01*
X58586588Y12726562D02*
X58634207Y12678943D01*
X59205636Y11774181D02*
X59110398Y11821800D01*
X59110398Y11821800D02*
X59062779Y11869420D01*
X59062779Y11869420D02*
X59015160Y11964658D01*
X59015160Y11964658D02*
X59015160Y12250372D01*
X59015160Y12250372D02*
X59062779Y12345610D01*
X59062779Y12345610D02*
X59110398Y12393229D01*
X59110398Y12393229D02*
X59205636Y12440848D01*
X59205636Y12440848D02*
X59348493Y12440848D01*
X59348493Y12440848D02*
X59443731Y12393229D01*
X59443731Y12393229D02*
X59491350Y12345610D01*
X59491350Y12345610D02*
X59538969Y12250372D01*
X59538969Y12250372D02*
X59538969Y11964658D01*
X59538969Y11964658D02*
X59491350Y11869420D01*
X59491350Y11869420D02*
X59443731Y11821800D01*
X59443731Y11821800D02*
X59348493Y11774181D01*
X59348493Y11774181D02*
X59205636Y11774181D01*
X59967541Y12440848D02*
X59967541Y11440848D01*
X59967541Y12393229D02*
X60062779Y12440848D01*
X60062779Y12440848D02*
X60253255Y12440848D01*
X60253255Y12440848D02*
X60348493Y12393229D01*
X60348493Y12393229D02*
X60396112Y12345610D01*
X60396112Y12345610D02*
X60443731Y12250372D01*
X60443731Y12250372D02*
X60443731Y11964658D01*
X60443731Y11964658D02*
X60396112Y11869420D01*
X60396112Y11869420D02*
X60348493Y11821800D01*
X60348493Y11821800D02*
X60253255Y11774181D01*
X60253255Y11774181D02*
X60062779Y11774181D01*
X60062779Y11774181D02*
X59967541Y11821800D01*
X60872303Y12440848D02*
X60872303Y11440848D01*
X60872303Y12393229D02*
X60967541Y12440848D01*
X60967541Y12440848D02*
X61158017Y12440848D01*
X61158017Y12440848D02*
X61253255Y12393229D01*
X61253255Y12393229D02*
X61300874Y12345610D01*
X61300874Y12345610D02*
X61348493Y12250372D01*
X61348493Y12250372D02*
X61348493Y11964658D01*
X61348493Y11964658D02*
X61300874Y11869420D01*
X61300874Y11869420D02*
X61253255Y11821800D01*
X61253255Y11821800D02*
X61158017Y11774181D01*
X61158017Y11774181D02*
X60967541Y11774181D01*
X60967541Y11774181D02*
X60872303Y11821800D01*
X62158017Y11821800D02*
X62062779Y11774181D01*
X62062779Y11774181D02*
X61872303Y11774181D01*
X61872303Y11774181D02*
X61777065Y11821800D01*
X61777065Y11821800D02*
X61729446Y11917039D01*
X61729446Y11917039D02*
X61729446Y12297991D01*
X61729446Y12297991D02*
X61777065Y12393229D01*
X61777065Y12393229D02*
X61872303Y12440848D01*
X61872303Y12440848D02*
X62062779Y12440848D01*
X62062779Y12440848D02*
X62158017Y12393229D01*
X62158017Y12393229D02*
X62205636Y12297991D01*
X62205636Y12297991D02*
X62205636Y12202753D01*
X62205636Y12202753D02*
X61729446Y12107515D01*
X62634208Y11774181D02*
X62634208Y12440848D01*
X62634208Y12250372D02*
X62681827Y12345610D01*
X62681827Y12345610D02*
X62729446Y12393229D01*
X62729446Y12393229D02*
X62824684Y12440848D01*
X62824684Y12440848D02*
X62919922Y12440848D01*
D12*
%TO.P,J1,1,Pin_1*%
%TO.N,unconnected-(J1-Pin_1-Pad1)*%
X6940000Y7180000D03*
D13*
%TO.P,J1,2,Pin_2*%
%TO.N,GND*%
X4400000Y7180000D03*
%TO.P,J1,3,Pin_3*%
%TO.N,unconnected-(J1-Pin_3-Pad3)*%
X6940000Y9720000D03*
%TO.P,J1,4,Pin_4*%
%TO.N,unconnected-(J1-Pin_4-Pad4)*%
X4400000Y9720000D03*
%TO.P,J1,5,Pin_5*%
%TO.N,/TOOL0*%
X6940000Y12260000D03*
%TO.P,J1,6,Pin_6*%
%TO.N,/~{RESET_IN}*%
X4400000Y12260000D03*
%TO.P,J1,7,Pin_7*%
%TO.N,unconnected-(J1-Pin_7-Pad7)*%
X6940000Y14800000D03*
%TO.P,J1,8,Pin_8*%
%TO.N,VCC*%
X4400000Y14800000D03*
%TO.P,J1,9,Pin_9*%
X6940000Y17340000D03*
%TO.P,J1,10,Pin_10*%
%TO.N,/~{RESET_OUT}*%
X4400000Y17340000D03*
%TO.P,J1,11,Pin_11*%
%TO.N,unconnected-(J1-Pin_11-Pad11)*%
X6940000Y19880000D03*
%TO.P,J1,12,Pin_12*%
%TO.N,GND*%
X4400000Y19880000D03*
%TO.P,J1,13,Pin_13*%
%TO.N,/~{RESET_OUT}*%
X6940000Y22420000D03*
%TO.P,J1,14,Pin_14*%
%TO.N,GND*%
X4400000Y22420000D03*
%TD*%
D12*
%TO.P,J2,1,Pin_1*%
%TO.N,VCOM*%
X46500000Y20075000D03*
D13*
%TO.P,J2,2,Pin_2*%
%TO.N,/~{RESET_IN_MCU}*%
X46500000Y17535000D03*
%TO.P,J2,3,Pin_3*%
%TO.N,/~{RESET_OUT_MCU}*%
X46500000Y14995000D03*
%TO.P,J2,4,Pin_4*%
%TO.N,/TOOL0_MCU*%
X46500000Y12455000D03*
%TO.P,J2,5,Pin_5*%
%TO.N,GNDD*%
X46500000Y9915000D03*
%TD*%
D14*
%TO.N,GND*%
X19650000Y20300000D03*
X19650000Y14300000D03*
%TO.N,GNDD*%
X34700000Y5100000D03*
X39450000Y13050000D03*
X34550000Y23000000D03*
%TD*%
%TA.AperFunction,Conductor*%
%TO.N,GND*%
G36*
X4650000Y20315502D02*
G01*
X4542315Y20364680D01*
X4435763Y20380000D01*
X4364237Y20380000D01*
X4257685Y20364680D01*
X4150000Y20315502D01*
X4150000Y21984499D01*
X4257685Y21935320D01*
X4364237Y21920000D01*
X4435763Y21920000D01*
X4542315Y21935320D01*
X4650000Y21984499D01*
X4650000Y20315502D01*
G37*
%TD.AperFunction*%
%TA.AperFunction,Conductor*%
G36*
X9425677Y25880315D02*
G01*
X9446319Y25863681D01*
X10686684Y24623316D01*
X10701636Y24605222D01*
X10805651Y24451812D01*
X10805658Y24451802D01*
X11042886Y24172515D01*
X11042894Y24172506D01*
X11308944Y23920490D01*
X11600683Y23698716D01*
X11614281Y23690534D01*
X11638036Y23671964D01*
X11950000Y23360000D01*
X12214820Y23360000D01*
X12254411Y23353510D01*
X12594560Y23238900D01*
X12952455Y23160121D01*
X13316769Y23120500D01*
X13316775Y23120500D01*
X13683225Y23120500D01*
X13683231Y23120500D01*
X14047545Y23160121D01*
X14405440Y23238900D01*
X14745588Y23353510D01*
X14785180Y23360000D01*
X17792000Y23360000D01*
X20041681Y25609681D01*
X20103004Y25643166D01*
X20129362Y25646000D01*
X22240000Y25646000D01*
X22307039Y25626315D01*
X22352794Y25573511D01*
X22364000Y25522000D01*
X22364000Y20820000D01*
X23069000Y19880000D01*
X23101200Y19837067D01*
X23125676Y19771625D01*
X23126000Y19762667D01*
X23126000Y11209334D01*
X23106315Y11142295D01*
X23101200Y11134934D01*
X22364000Y10152000D01*
X22364000Y3418000D01*
X22344315Y3350961D01*
X22291511Y3305206D01*
X22240000Y3294000D01*
X1962000Y3294000D01*
X1894961Y3313685D01*
X1849206Y3366489D01*
X1838000Y3418000D01*
X1838000Y9720000D01*
X3044341Y9720000D01*
X3064936Y9484597D01*
X3064938Y9484587D01*
X3126094Y9256345D01*
X3126096Y9256341D01*
X3126097Y9256337D01*
X3130000Y9247968D01*
X3225965Y9042170D01*
X3225967Y9042166D01*
X3334281Y8887479D01*
X3361505Y8848599D01*
X3528599Y8681505D01*
X3695439Y8564682D01*
X3714594Y8551270D01*
X3758219Y8496693D01*
X3765413Y8427195D01*
X3733890Y8364840D01*
X3714595Y8348120D01*
X3528922Y8218110D01*
X3528920Y8218109D01*
X3361891Y8051080D01*
X3361886Y8051074D01*
X3226400Y7857580D01*
X3226399Y7857578D01*
X3126570Y7643493D01*
X3126567Y7643487D01*
X3069364Y7430001D01*
X3069364Y7430000D01*
X3966314Y7430000D01*
X3940507Y7389844D01*
X3900000Y7251889D01*
X3900000Y7108111D01*
X3940507Y6970156D01*
X3966314Y6930000D01*
X3069364Y6930000D01*
X3126567Y6716514D01*
X3126570Y6716508D01*
X3226399Y6502422D01*
X3361894Y6308918D01*
X3528917Y6141895D01*
X3722421Y6006400D01*
X3936507Y5906571D01*
X3936516Y5906567D01*
X4150000Y5849366D01*
X4150000Y6744499D01*
X4257685Y6695320D01*
X4364237Y6680000D01*
X4435763Y6680000D01*
X4542315Y6695320D01*
X4650000Y6744499D01*
X4650000Y5849367D01*
X4863483Y5906567D01*
X4863492Y5906571D01*
X5077578Y6006400D01*
X5271078Y6141892D01*
X5393133Y6263947D01*
X5454456Y6297432D01*
X5524148Y6292448D01*
X5580082Y6250577D01*
X5596997Y6219599D01*
X5646202Y6087672D01*
X5646206Y6087665D01*
X5732452Y5972456D01*
X5732455Y5972453D01*
X5847664Y5886207D01*
X5847671Y5886203D01*
X5982517Y5835909D01*
X5982516Y5835909D01*
X5989444Y5835165D01*
X6042127Y5829500D01*
X7837872Y5829501D01*
X7897483Y5835909D01*
X8032331Y5886204D01*
X8147546Y5972454D01*
X8233796Y6087669D01*
X8284091Y6222517D01*
X8290500Y6282127D01*
X8290499Y8077872D01*
X8284091Y8137483D01*
X8283002Y8140402D01*
X8233797Y8272329D01*
X8233793Y8272336D01*
X8147547Y8387545D01*
X8147544Y8387548D01*
X8032335Y8473794D01*
X8032328Y8473798D01*
X7900917Y8522811D01*
X7844983Y8564682D01*
X7820566Y8630147D01*
X7835418Y8698420D01*
X7856563Y8726668D01*
X7978495Y8848599D01*
X8114035Y9042170D01*
X8213903Y9256337D01*
X8275063Y9484592D01*
X8295659Y9720000D01*
X8275063Y9955408D01*
X8213903Y10183663D01*
X8114035Y10397829D01*
X8108425Y10405842D01*
X7978494Y10591403D01*
X7811402Y10758494D01*
X7811396Y10758499D01*
X7625842Y10888425D01*
X7582217Y10943002D01*
X7575023Y11012500D01*
X7606546Y11074855D01*
X7625842Y11091575D01*
X7687765Y11134934D01*
X7811401Y11221505D01*
X7978495Y11388599D01*
X8114035Y11582170D01*
X8213903Y11796337D01*
X8275063Y12024592D01*
X8295659Y12260000D01*
X8275063Y12495408D01*
X8213903Y12723663D01*
X8114035Y12937829D01*
X8108425Y12945842D01*
X7978494Y13131403D01*
X7811402Y13298494D01*
X7811396Y13298499D01*
X7625842Y13428425D01*
X7582217Y13483002D01*
X7575023Y13552500D01*
X7606546Y13614855D01*
X7625842Y13631575D01*
X7648026Y13647109D01*
X7811401Y13761505D01*
X7978495Y13928599D01*
X8114035Y14122170D01*
X8213903Y14336337D01*
X8275063Y14564592D01*
X8295659Y14800000D01*
X8275063Y15035408D01*
X8213903Y15263663D01*
X8114035Y15477829D01*
X8108425Y15485842D01*
X7978494Y15671403D01*
X7811402Y15838494D01*
X7811396Y15838499D01*
X7625842Y15968425D01*
X7582217Y16023002D01*
X7575023Y16092500D01*
X7606546Y16154855D01*
X7625842Y16171575D01*
X7648026Y16187109D01*
X7811401Y16301505D01*
X7978495Y16468599D01*
X8114035Y16662170D01*
X8213903Y16876337D01*
X8275063Y17104592D01*
X8295659Y17340000D01*
X8275063Y17575408D01*
X8213903Y17803663D01*
X8114035Y18017829D01*
X8108425Y18025842D01*
X7978494Y18211403D01*
X7811402Y18378494D01*
X7811396Y18378499D01*
X7625842Y18508425D01*
X7582217Y18563002D01*
X7575023Y18632500D01*
X7606546Y18694855D01*
X7625842Y18711575D01*
X7648026Y18727109D01*
X7811401Y18841505D01*
X7978495Y19008599D01*
X8114035Y19202170D01*
X8213903Y19416337D01*
X8275063Y19644592D01*
X8295659Y19880000D01*
X8275063Y20115408D01*
X8213903Y20343663D01*
X8114035Y20557829D01*
X8108731Y20565405D01*
X7978494Y20751403D01*
X7811402Y20918494D01*
X7811396Y20918499D01*
X7625842Y21048425D01*
X7582217Y21103002D01*
X7575023Y21172500D01*
X7606546Y21234855D01*
X7625842Y21251575D01*
X7648026Y21267109D01*
X7811401Y21381505D01*
X7978495Y21548599D01*
X8114035Y21742170D01*
X8213903Y21956337D01*
X8275063Y22184592D01*
X8295659Y22420000D01*
X8275063Y22655408D01*
X8213903Y22883663D01*
X8114035Y23097829D01*
X8108731Y23105405D01*
X7978494Y23291403D01*
X7811402Y23458494D01*
X7811395Y23458499D01*
X7617834Y23594033D01*
X7617830Y23594035D01*
X7617828Y23594036D01*
X7403663Y23693903D01*
X7403659Y23693904D01*
X7403655Y23693906D01*
X7175413Y23755062D01*
X7175403Y23755064D01*
X6940001Y23775659D01*
X6939999Y23775659D01*
X6704596Y23755064D01*
X6704586Y23755062D01*
X6476344Y23693906D01*
X6476337Y23693904D01*
X6476337Y23693903D01*
X6462816Y23687599D01*
X6262171Y23594036D01*
X6262169Y23594035D01*
X6068597Y23458495D01*
X5901508Y23291406D01*
X5771269Y23105405D01*
X5716692Y23061781D01*
X5647193Y23054588D01*
X5584839Y23086110D01*
X5568119Y23105406D01*
X5438113Y23291074D01*
X5438108Y23291080D01*
X5271082Y23458106D01*
X5077578Y23593601D01*
X4863492Y23693430D01*
X4863486Y23693433D01*
X4650000Y23750636D01*
X4650000Y22855502D01*
X4542315Y22904680D01*
X4435763Y22920000D01*
X4364237Y22920000D01*
X4257685Y22904680D01*
X4150000Y22855502D01*
X4150000Y23750636D01*
X4149999Y23750636D01*
X3936513Y23693433D01*
X3936507Y23693430D01*
X3722422Y23593601D01*
X3722420Y23593600D01*
X3528926Y23458114D01*
X3528920Y23458109D01*
X3361891Y23291080D01*
X3361886Y23291074D01*
X3226400Y23097580D01*
X3226399Y23097578D01*
X3126570Y22883493D01*
X3126567Y22883487D01*
X3069364Y22670001D01*
X3069364Y22670000D01*
X3966314Y22670000D01*
X3940507Y22629844D01*
X3900000Y22491889D01*
X3900000Y22348111D01*
X3940507Y22210156D01*
X3966314Y22170000D01*
X3069364Y22170000D01*
X3126567Y21956514D01*
X3126570Y21956508D01*
X3226399Y21742422D01*
X3361894Y21548918D01*
X3528917Y21381895D01*
X3715031Y21251575D01*
X3758656Y21196997D01*
X3765848Y21127499D01*
X3734326Y21065144D01*
X3715031Y21048425D01*
X3528922Y20918110D01*
X3528920Y20918109D01*
X3361891Y20751080D01*
X3361886Y20751074D01*
X3226400Y20557580D01*
X3226399Y20557578D01*
X3126570Y20343493D01*
X3126567Y20343487D01*
X3069364Y20130001D01*
X3069364Y20130000D01*
X3966314Y20130000D01*
X3940507Y20089844D01*
X3900000Y19951889D01*
X3900000Y19808111D01*
X3940507Y19670156D01*
X3966314Y19630000D01*
X3069364Y19630000D01*
X3126567Y19416514D01*
X3126570Y19416508D01*
X3226399Y19202422D01*
X3361894Y19008918D01*
X3528917Y18841895D01*
X3714595Y18711881D01*
X3758219Y18657304D01*
X3765412Y18587805D01*
X3733890Y18525451D01*
X3714595Y18508731D01*
X3528594Y18378492D01*
X3361505Y18211403D01*
X3225965Y18017831D01*
X3225964Y18017829D01*
X3126098Y17803665D01*
X3126094Y17803656D01*
X3064938Y17575414D01*
X3064936Y17575404D01*
X3044341Y17340001D01*
X3044341Y17340000D01*
X3064936Y17104597D01*
X3064938Y17104587D01*
X3126094Y16876345D01*
X3126096Y16876341D01*
X3126097Y16876337D01*
X3130000Y16867968D01*
X3225965Y16662170D01*
X3225967Y16662166D01*
X3334281Y16507479D01*
X3361501Y16468604D01*
X3361506Y16468598D01*
X3528597Y16301507D01*
X3528603Y16301502D01*
X3714158Y16171575D01*
X3757783Y16116998D01*
X3764977Y16047500D01*
X3733454Y15985145D01*
X3714158Y15968425D01*
X3528597Y15838495D01*
X3361505Y15671403D01*
X3225965Y15477831D01*
X3225964Y15477829D01*
X3126098Y15263665D01*
X3126094Y15263656D01*
X3064938Y15035414D01*
X3064936Y15035404D01*
X3044341Y14800001D01*
X3044341Y14800000D01*
X3064936Y14564597D01*
X3064938Y14564587D01*
X3126094Y14336345D01*
X3126096Y14336341D01*
X3126097Y14336337D01*
X3130000Y14327968D01*
X3225965Y14122170D01*
X3225967Y14122166D01*
X3334281Y13967479D01*
X3361501Y13928604D01*
X3361506Y13928598D01*
X3528597Y13761507D01*
X3528603Y13761502D01*
X3714158Y13631575D01*
X3757783Y13576998D01*
X3764977Y13507500D01*
X3733454Y13445145D01*
X3714158Y13428425D01*
X3528597Y13298495D01*
X3361505Y13131403D01*
X3225965Y12937831D01*
X3225964Y12937829D01*
X3126098Y12723665D01*
X3126094Y12723656D01*
X3064938Y12495414D01*
X3064936Y12495404D01*
X3044341Y12260001D01*
X3044341Y12260000D01*
X3064936Y12024597D01*
X3064938Y12024587D01*
X3126094Y11796345D01*
X3126096Y11796341D01*
X3126097Y11796337D01*
X3130000Y11787968D01*
X3225965Y11582170D01*
X3225967Y11582166D01*
X3334281Y11427479D01*
X3361501Y11388604D01*
X3361506Y11388598D01*
X3528597Y11221507D01*
X3528603Y11221502D01*
X3714158Y11091575D01*
X3757783Y11036998D01*
X3764977Y10967500D01*
X3733454Y10905145D01*
X3714158Y10888425D01*
X3528597Y10758495D01*
X3361505Y10591403D01*
X3225965Y10397831D01*
X3225964Y10397829D01*
X3126098Y10183665D01*
X3126094Y10183656D01*
X3064938Y9955414D01*
X3064936Y9955404D01*
X3044341Y9720001D01*
X3044341Y9720000D01*
X1838000Y9720000D01*
X1838000Y25776000D01*
X1857685Y25843039D01*
X1910489Y25888794D01*
X1962000Y25900000D01*
X9358638Y25900000D01*
X9425677Y25880315D01*
G37*
%TD.AperFunction*%
%TD*%
%TA.AperFunction,Conductor*%
%TO.N,GNDD*%
G36*
X49122473Y25726004D02*
G01*
X49168513Y25673449D01*
X49180000Y25621326D01*
X49180000Y3517339D01*
X49160315Y3450300D01*
X49107511Y3404545D01*
X49056664Y3393341D01*
X30537361Y3294243D01*
X30470217Y3313568D01*
X30457191Y3323084D01*
X29928494Y3764825D01*
X29889670Y3822915D01*
X29884000Y3859982D01*
X29884000Y6811893D01*
X29903685Y6878932D01*
X29905401Y6881531D01*
X30746000Y8120000D01*
X30746000Y12455000D01*
X45144341Y12455000D01*
X45164936Y12219597D01*
X45164938Y12219587D01*
X45226094Y11991345D01*
X45226096Y11991341D01*
X45226097Y11991337D01*
X45325965Y11777170D01*
X45325967Y11777166D01*
X45461501Y11583605D01*
X45461506Y11583598D01*
X45628597Y11416507D01*
X45628603Y11416502D01*
X45814594Y11286270D01*
X45858219Y11231693D01*
X45865413Y11162195D01*
X45833890Y11099840D01*
X45814595Y11083120D01*
X45628922Y10953110D01*
X45628920Y10953109D01*
X45461891Y10786080D01*
X45461886Y10786074D01*
X45326400Y10592580D01*
X45326399Y10592578D01*
X45226570Y10378493D01*
X45226567Y10378487D01*
X45169364Y10165001D01*
X45169364Y10165000D01*
X46066314Y10165000D01*
X46040507Y10124844D01*
X46000000Y9986889D01*
X46000000Y9843111D01*
X46040507Y9705156D01*
X46066314Y9665000D01*
X45169364Y9665000D01*
X45226567Y9451514D01*
X45226570Y9451508D01*
X45326399Y9237422D01*
X45461894Y9043918D01*
X45628917Y8876895D01*
X45822421Y8741400D01*
X46036507Y8641571D01*
X46036516Y8641567D01*
X46250000Y8584366D01*
X46250000Y9479499D01*
X46357685Y9430320D01*
X46464237Y9415000D01*
X46535763Y9415000D01*
X46642315Y9430320D01*
X46750000Y9479499D01*
X46750000Y8584367D01*
X46963483Y8641567D01*
X46963492Y8641571D01*
X47177578Y8741400D01*
X47371082Y8876895D01*
X47538105Y9043918D01*
X47673600Y9237422D01*
X47773429Y9451508D01*
X47773432Y9451514D01*
X47830636Y9665000D01*
X46933686Y9665000D01*
X46959493Y9705156D01*
X47000000Y9843111D01*
X47000000Y9986889D01*
X46959493Y10124844D01*
X46933686Y10165000D01*
X47830636Y10165000D01*
X47830635Y10165001D01*
X47773432Y10378487D01*
X47773429Y10378493D01*
X47673600Y10592578D01*
X47673599Y10592580D01*
X47538113Y10786074D01*
X47538108Y10786080D01*
X47371078Y10953110D01*
X47185405Y11083121D01*
X47141780Y11137698D01*
X47134588Y11207196D01*
X47166110Y11269551D01*
X47185406Y11286270D01*
X47371401Y11416505D01*
X47538495Y11583599D01*
X47674035Y11777170D01*
X47773903Y11991337D01*
X47835063Y12219592D01*
X47855659Y12455000D01*
X47835063Y12690408D01*
X47773903Y12918663D01*
X47674035Y13132829D01*
X47538495Y13326401D01*
X47538494Y13326403D01*
X47371402Y13493494D01*
X47371396Y13493499D01*
X47185842Y13623425D01*
X47142217Y13678002D01*
X47135023Y13747500D01*
X47166546Y13809855D01*
X47185842Y13826575D01*
X47208026Y13842109D01*
X47371401Y13956505D01*
X47538495Y14123599D01*
X47674035Y14317170D01*
X47773903Y14531337D01*
X47835063Y14759592D01*
X47855659Y14995000D01*
X47835063Y15230408D01*
X47773903Y15458663D01*
X47674035Y15672829D01*
X47538495Y15866401D01*
X47538494Y15866403D01*
X47371402Y16033494D01*
X47371396Y16033499D01*
X47185842Y16163425D01*
X47142217Y16218002D01*
X47135023Y16287500D01*
X47166546Y16349855D01*
X47185842Y16366575D01*
X47208026Y16382109D01*
X47371401Y16496505D01*
X47538495Y16663599D01*
X47674035Y16857170D01*
X47773903Y17071337D01*
X47835063Y17299592D01*
X47855659Y17535000D01*
X47835063Y17770408D01*
X47773903Y17998663D01*
X47674035Y18212829D01*
X47538495Y18406401D01*
X47416567Y18528329D01*
X47383084Y18589649D01*
X47388068Y18659341D01*
X47429939Y18715275D01*
X47460915Y18732190D01*
X47592331Y18781204D01*
X47707546Y18867454D01*
X47793796Y18982669D01*
X47844091Y19117517D01*
X47850500Y19177127D01*
X47850499Y20972872D01*
X47844091Y21032483D01*
X47793796Y21167331D01*
X47793795Y21167332D01*
X47793793Y21167336D01*
X47707547Y21282545D01*
X47707544Y21282548D01*
X47592335Y21368794D01*
X47592328Y21368798D01*
X47457482Y21419092D01*
X47457483Y21419092D01*
X47397883Y21425499D01*
X47397881Y21425500D01*
X47397873Y21425500D01*
X47397864Y21425500D01*
X45602129Y21425500D01*
X45602123Y21425499D01*
X45542516Y21419092D01*
X45407671Y21368798D01*
X45407664Y21368794D01*
X45292455Y21282548D01*
X45292452Y21282545D01*
X45206206Y21167336D01*
X45206202Y21167329D01*
X45155908Y21032483D01*
X45149501Y20972884D01*
X45149501Y20972877D01*
X45149500Y20972865D01*
X45149500Y19177130D01*
X45149501Y19177124D01*
X45155908Y19117517D01*
X45206202Y18982672D01*
X45206206Y18982665D01*
X45292452Y18867456D01*
X45292455Y18867453D01*
X45407664Y18781207D01*
X45407671Y18781203D01*
X45539081Y18732190D01*
X45595015Y18690319D01*
X45619432Y18624855D01*
X45604580Y18556582D01*
X45583430Y18528327D01*
X45461503Y18406400D01*
X45325965Y18212831D01*
X45325964Y18212829D01*
X45226098Y17998665D01*
X45226094Y17998656D01*
X45164938Y17770414D01*
X45164936Y17770404D01*
X45144341Y17535001D01*
X45144341Y17535000D01*
X45164936Y17299597D01*
X45164938Y17299587D01*
X45226094Y17071345D01*
X45226096Y17071341D01*
X45226097Y17071337D01*
X45325965Y16857170D01*
X45325967Y16857166D01*
X45461501Y16663605D01*
X45461506Y16663598D01*
X45628597Y16496507D01*
X45628603Y16496502D01*
X45814158Y16366575D01*
X45857783Y16311998D01*
X45864977Y16242500D01*
X45833454Y16180145D01*
X45814158Y16163425D01*
X45628597Y16033495D01*
X45461505Y15866403D01*
X45325965Y15672831D01*
X45325964Y15672829D01*
X45226098Y15458665D01*
X45226094Y15458656D01*
X45164938Y15230414D01*
X45164936Y15230404D01*
X45144341Y14995001D01*
X45144341Y14995000D01*
X45164936Y14759597D01*
X45164938Y14759587D01*
X45226094Y14531345D01*
X45226096Y14531341D01*
X45226097Y14531337D01*
X45325965Y14317170D01*
X45325967Y14317166D01*
X45461501Y14123605D01*
X45461506Y14123598D01*
X45628597Y13956507D01*
X45628603Y13956502D01*
X45814158Y13826575D01*
X45857783Y13771998D01*
X45864977Y13702500D01*
X45833454Y13640145D01*
X45814158Y13623425D01*
X45628597Y13493495D01*
X45461505Y13326403D01*
X45325965Y13132831D01*
X45325964Y13132829D01*
X45226098Y12918665D01*
X45226094Y12918656D01*
X45164938Y12690414D01*
X45164936Y12690404D01*
X45144341Y12455001D01*
X45144341Y12455000D01*
X30746000Y12455000D01*
X30746000Y25522672D01*
X30765685Y25589711D01*
X30818489Y25635466D01*
X30869322Y25646669D01*
X49055328Y25745324D01*
X49122473Y25726004D01*
G37*
%TD.AperFunction*%
%TD*%
M02*
