%TF.GenerationSoftware,KiCad,Pcbnew,7.0.10*%
%TF.CreationDate,2024-07-25T14:24:15+01:00*%
%TF.ProjectId,RL78I1C_PMOD_PROG_ADAPTOR_ISO,524c3738-4931-4435-9f50-4d4f445f5052,0*%
%TF.SameCoordinates,PX5b8d800PY7997ee0*%
%TF.FileFunction,Soldermask,Top*%
%TF.FilePolarity,Negative*%
%FSLAX46Y46*%
G04 Gerber Fmt 4.6, Leading zero omitted, Abs format (unit mm)*
G04 Created by KiCad (PCBNEW 7.0.10) date 2024-07-25 14:24:15*
%MOMM*%
%LPD*%
G01*
G04 APERTURE LIST*
G04 Aperture macros list*
%AMRoundRect*
0 Rectangle with rounded corners*
0 $1 Rounding radius*
0 $2 $3 $4 $5 $6 $7 $8 $9 X,Y pos of 4 corners*
0 Add a 4 corners polygon primitive as box body*
4,1,4,$2,$3,$4,$5,$6,$7,$8,$9,$2,$3,0*
0 Add four circle primitives for the rounded corners*
1,1,$1+$1,$2,$3*
1,1,$1+$1,$4,$5*
1,1,$1+$1,$6,$7*
1,1,$1+$1,$8,$9*
0 Add four rect primitives between the rounded corners*
20,1,$1+$1,$2,$3,$4,$5,0*
20,1,$1+$1,$4,$5,$6,$7,0*
20,1,$1+$1,$6,$7,$8,$9,0*
20,1,$1+$1,$8,$9,$2,$3,0*%
G04 Aperture macros list end*
%ADD10C,0.150000*%
%ADD11R,1.560000X0.650000*%
%ADD12RoundRect,0.237500X0.237500X-0.250000X0.237500X0.250000X-0.237500X0.250000X-0.237500X-0.250000X0*%
%ADD13RoundRect,0.237500X-0.237500X0.250000X-0.237500X-0.250000X0.237500X-0.250000X0.237500X0.250000X0*%
%ADD14RoundRect,0.200000X-0.450000X-0.200000X0.450000X-0.200000X0.450000X0.200000X-0.450000X0.200000X0*%
%ADD15RoundRect,0.250000X-1.000000X-0.650000X1.000000X-0.650000X1.000000X0.650000X-1.000000X0.650000X0*%
%ADD16RoundRect,0.200000X0.450000X0.200000X-0.450000X0.200000X-0.450000X-0.200000X0.450000X-0.200000X0*%
%ADD17R,1.700000X1.700000*%
%ADD18O,1.700000X1.700000*%
%ADD19R,1.900000X0.800000*%
%ADD20RoundRect,0.250000X-0.650000X1.000000X-0.650000X-1.000000X0.650000X-1.000000X0.650000X1.000000X0*%
G04 APERTURE END LIST*
D10*
X57962779Y16174181D02*
X57962779Y17174181D01*
X57962779Y17174181D02*
X58296112Y16459896D01*
X58296112Y16459896D02*
X58629445Y17174181D01*
X58629445Y17174181D02*
X58629445Y16174181D01*
X59534207Y16174181D02*
X59534207Y16697991D01*
X59534207Y16697991D02*
X59486588Y16793229D01*
X59486588Y16793229D02*
X59391350Y16840848D01*
X59391350Y16840848D02*
X59200874Y16840848D01*
X59200874Y16840848D02*
X59105636Y16793229D01*
X59534207Y16221800D02*
X59438969Y16174181D01*
X59438969Y16174181D02*
X59200874Y16174181D01*
X59200874Y16174181D02*
X59105636Y16221800D01*
X59105636Y16221800D02*
X59058017Y16317039D01*
X59058017Y16317039D02*
X59058017Y16412277D01*
X59058017Y16412277D02*
X59105636Y16507515D01*
X59105636Y16507515D02*
X59200874Y16555134D01*
X59200874Y16555134D02*
X59438969Y16555134D01*
X59438969Y16555134D02*
X59534207Y16602753D01*
X59962779Y16221800D02*
X60058017Y16174181D01*
X60058017Y16174181D02*
X60248493Y16174181D01*
X60248493Y16174181D02*
X60343731Y16221800D01*
X60343731Y16221800D02*
X60391350Y16317039D01*
X60391350Y16317039D02*
X60391350Y16364658D01*
X60391350Y16364658D02*
X60343731Y16459896D01*
X60343731Y16459896D02*
X60248493Y16507515D01*
X60248493Y16507515D02*
X60105636Y16507515D01*
X60105636Y16507515D02*
X60010398Y16555134D01*
X60010398Y16555134D02*
X59962779Y16650372D01*
X59962779Y16650372D02*
X59962779Y16697991D01*
X59962779Y16697991D02*
X60010398Y16793229D01*
X60010398Y16793229D02*
X60105636Y16840848D01*
X60105636Y16840848D02*
X60248493Y16840848D01*
X60248493Y16840848D02*
X60343731Y16793229D01*
X60819922Y16174181D02*
X60819922Y17174181D01*
X60915160Y16555134D02*
X61200874Y16174181D01*
X61200874Y16840848D02*
X60819922Y16459896D01*
D11*
%TO.C,U6*%
X15550000Y12750000D03*
X15550000Y13700000D03*
X15550000Y14650000D03*
X12850000Y14650000D03*
X12850000Y12750000D03*
%TD*%
%TO.C,U5*%
X38150000Y6950000D03*
X38150000Y6000000D03*
X38150000Y5050000D03*
X40850000Y5050000D03*
X40850000Y6950000D03*
%TD*%
D12*
%TO.C,C6*%
X17800000Y10987500D03*
X17800000Y12812500D03*
%TD*%
D13*
%TO.C,C5*%
X36000000Y6912500D03*
X36000000Y5087500D03*
%TD*%
D12*
%TO.C,C2*%
X19650000Y17037500D03*
X19650000Y18862500D03*
%TD*%
D14*
%TO.C,U1*%
X21750000Y25245000D03*
X21750000Y22705000D03*
X31250000Y22705000D03*
X31250000Y23975000D03*
X31250000Y25245000D03*
%TD*%
D13*
%TO.C,R7*%
X16000000Y18862500D03*
X16000000Y17037500D03*
%TD*%
D15*
%TO.C,D1*%
X36650000Y24000000D03*
X40650000Y24000000D03*
%TD*%
D16*
%TO.C,U2*%
X31250000Y16705000D03*
X31250000Y19245000D03*
X21750000Y19245000D03*
X21750000Y17975000D03*
X21750000Y16705000D03*
%TD*%
D13*
%TO.C,R4*%
X37650000Y18962500D03*
X37650000Y17137500D03*
%TD*%
D17*
%TO.C,J1*%
X6940000Y7180000D03*
D18*
X4400000Y7180000D03*
X6940000Y9720000D03*
X4400000Y9720000D03*
X6940000Y12260000D03*
X4400000Y12260000D03*
X6940000Y14800000D03*
X4400000Y14800000D03*
X6940000Y17340000D03*
X4400000Y17340000D03*
X6940000Y19880000D03*
X4400000Y19880000D03*
X6940000Y22420000D03*
X4400000Y22420000D03*
%TD*%
D13*
%TO.C,R6*%
X41850000Y15350000D03*
X41850000Y13525000D03*
%TD*%
%TO.C,R3*%
X36000000Y18962500D03*
X36000000Y17137500D03*
%TD*%
%TO.C,C1*%
X33250000Y24862500D03*
X33250000Y23037500D03*
%TD*%
D15*
%TO.C,D2*%
X36750000Y10150000D03*
X40750000Y10150000D03*
%TD*%
D14*
%TO.C,U4*%
X21750000Y7245000D03*
X21750000Y4705000D03*
X31250000Y4705000D03*
X31250000Y5975000D03*
X31250000Y7245000D03*
%TD*%
D13*
%TO.C,R5*%
X43500000Y15350000D03*
X43500000Y13525000D03*
%TD*%
%TO.C,R1*%
X16000000Y22962500D03*
X16000000Y21137500D03*
%TD*%
D19*
%TO.C,Q1*%
X36450000Y15300000D03*
X36450000Y13400000D03*
X39450000Y14350000D03*
%TD*%
D13*
%TO.C,C4*%
X33350000Y6912500D03*
X33350000Y5087500D03*
%TD*%
%TO.C,R8*%
X17800000Y18862500D03*
X17800000Y17037500D03*
%TD*%
D20*
%TO.C,D3*%
X13500000Y9000000D03*
X13500000Y5000000D03*
%TD*%
D16*
%TO.C,U3*%
X31250000Y10705000D03*
X31250000Y13245000D03*
X21750000Y13245000D03*
X21750000Y11975000D03*
X21750000Y10705000D03*
%TD*%
D12*
%TO.C,R2*%
X17800000Y21137500D03*
X17800000Y22962500D03*
%TD*%
%TO.C,C3*%
X19650000Y11037500D03*
X19650000Y12862500D03*
%TD*%
D17*
%TO.C,J2*%
X46500000Y20075000D03*
D18*
X46500000Y17535000D03*
X46500000Y14995000D03*
X46500000Y12455000D03*
X46500000Y9915000D03*
%TD*%
M02*
