%TF.GenerationSoftware,KiCad,Pcbnew,7.0.10*%
%TF.CreationDate,2024-08-02T12:55:58+01:00*%
%TF.ProjectId,RL78I1C_PMOD_PROG_ADAPTOR_ISO,524c3738-4931-4435-9f50-4d4f445f5052,0*%
%TF.SameCoordinates,PX5b8d800PY7997ee0*%
%TF.FileFunction,Paste,Top*%
%TF.FilePolarity,Positive*%
%FSLAX46Y46*%
G04 Gerber Fmt 4.6, Leading zero omitted, Abs format (unit mm)*
G04 Created by KiCad (PCBNEW 7.0.10) date 2024-08-02 12:55:58*
%MOMM*%
%LPD*%
G01*
G04 APERTURE LIST*
G04 Aperture macros list*
%AMRoundRect*
0 Rectangle with rounded corners*
0 $1 Rounding radius*
0 $2 $3 $4 $5 $6 $7 $8 $9 X,Y pos of 4 corners*
0 Add a 4 corners polygon primitive as box body*
4,1,4,$2,$3,$4,$5,$6,$7,$8,$9,$2,$3,0*
0 Add four circle primitives for the rounded corners*
1,1,$1+$1,$2,$3*
1,1,$1+$1,$4,$5*
1,1,$1+$1,$6,$7*
1,1,$1+$1,$8,$9*
0 Add four rect primitives between the rounded corners*
20,1,$1+$1,$2,$3,$4,$5,0*
20,1,$1+$1,$4,$5,$6,$7,0*
20,1,$1+$1,$6,$7,$8,$9,0*
20,1,$1+$1,$8,$9,$2,$3,0*%
G04 Aperture macros list end*
%ADD10C,0.150000*%
%ADD11RoundRect,0.150000X0.587500X0.150000X-0.587500X0.150000X-0.587500X-0.150000X0.587500X-0.150000X0*%
%ADD12RoundRect,0.150000X-0.587500X-0.150000X0.587500X-0.150000X0.587500X0.150000X-0.587500X0.150000X0*%
%ADD13RoundRect,0.237500X0.237500X-0.250000X0.237500X0.250000X-0.237500X0.250000X-0.237500X-0.250000X0*%
%ADD14RoundRect,0.200000X-0.450000X-0.200000X0.450000X-0.200000X0.450000X0.200000X-0.450000X0.200000X0*%
%ADD15RoundRect,0.225000X-0.225000X-0.375000X0.225000X-0.375000X0.225000X0.375000X-0.225000X0.375000X0*%
%ADD16RoundRect,0.200000X0.450000X0.200000X-0.450000X0.200000X-0.450000X-0.200000X0.450000X-0.200000X0*%
%ADD17RoundRect,0.237500X-0.237500X0.250000X-0.237500X-0.250000X0.237500X-0.250000X0.237500X0.250000X0*%
%ADD18RoundRect,0.225000X0.375000X-0.225000X0.375000X0.225000X-0.375000X0.225000X-0.375000X-0.225000X0*%
%ADD19RoundRect,0.225000X-0.375000X0.225000X-0.375000X-0.225000X0.375000X-0.225000X0.375000X0.225000X0*%
G04 APERTURE END LIST*
D10*
X57962779Y19774181D02*
X57962779Y20774181D01*
X57962779Y20774181D02*
X58343731Y20774181D01*
X58343731Y20774181D02*
X58438969Y20726562D01*
X58438969Y20726562D02*
X58486588Y20678943D01*
X58486588Y20678943D02*
X58534207Y20583705D01*
X58534207Y20583705D02*
X58534207Y20440848D01*
X58534207Y20440848D02*
X58486588Y20345610D01*
X58486588Y20345610D02*
X58438969Y20297991D01*
X58438969Y20297991D02*
X58343731Y20250372D01*
X58343731Y20250372D02*
X57962779Y20250372D01*
X59391350Y19774181D02*
X59391350Y20297991D01*
X59391350Y20297991D02*
X59343731Y20393229D01*
X59343731Y20393229D02*
X59248493Y20440848D01*
X59248493Y20440848D02*
X59058017Y20440848D01*
X59058017Y20440848D02*
X58962779Y20393229D01*
X59391350Y19821800D02*
X59296112Y19774181D01*
X59296112Y19774181D02*
X59058017Y19774181D01*
X59058017Y19774181D02*
X58962779Y19821800D01*
X58962779Y19821800D02*
X58915160Y19917039D01*
X58915160Y19917039D02*
X58915160Y20012277D01*
X58915160Y20012277D02*
X58962779Y20107515D01*
X58962779Y20107515D02*
X59058017Y20155134D01*
X59058017Y20155134D02*
X59296112Y20155134D01*
X59296112Y20155134D02*
X59391350Y20202753D01*
X59819922Y19821800D02*
X59915160Y19774181D01*
X59915160Y19774181D02*
X60105636Y19774181D01*
X60105636Y19774181D02*
X60200874Y19821800D01*
X60200874Y19821800D02*
X60248493Y19917039D01*
X60248493Y19917039D02*
X60248493Y19964658D01*
X60248493Y19964658D02*
X60200874Y20059896D01*
X60200874Y20059896D02*
X60105636Y20107515D01*
X60105636Y20107515D02*
X59962779Y20107515D01*
X59962779Y20107515D02*
X59867541Y20155134D01*
X59867541Y20155134D02*
X59819922Y20250372D01*
X59819922Y20250372D02*
X59819922Y20297991D01*
X59819922Y20297991D02*
X59867541Y20393229D01*
X59867541Y20393229D02*
X59962779Y20440848D01*
X59962779Y20440848D02*
X60105636Y20440848D01*
X60105636Y20440848D02*
X60200874Y20393229D01*
X60534208Y20440848D02*
X60915160Y20440848D01*
X60677065Y20774181D02*
X60677065Y19917039D01*
X60677065Y19917039D02*
X60724684Y19821800D01*
X60724684Y19821800D02*
X60819922Y19774181D01*
X60819922Y19774181D02*
X60915160Y19774181D01*
X61629446Y19821800D02*
X61534208Y19774181D01*
X61534208Y19774181D02*
X61343732Y19774181D01*
X61343732Y19774181D02*
X61248494Y19821800D01*
X61248494Y19821800D02*
X61200875Y19917039D01*
X61200875Y19917039D02*
X61200875Y20297991D01*
X61200875Y20297991D02*
X61248494Y20393229D01*
X61248494Y20393229D02*
X61343732Y20440848D01*
X61343732Y20440848D02*
X61534208Y20440848D01*
X61534208Y20440848D02*
X61629446Y20393229D01*
X61629446Y20393229D02*
X61677065Y20297991D01*
X61677065Y20297991D02*
X61677065Y20202753D01*
X61677065Y20202753D02*
X61200875Y20107515D01*
D11*
%TO.C,Q5*%
X39137500Y9250000D03*
X39137500Y11150000D03*
X37262500Y10200000D03*
%TD*%
D12*
%TO.C,Q4*%
X37262500Y7150000D03*
X37262500Y5250000D03*
X39137500Y6200000D03*
%TD*%
%TO.C,Q3*%
X13600000Y8600000D03*
X13600000Y6700000D03*
X15475000Y7650000D03*
%TD*%
%TO.C,Q2*%
X13562500Y12550000D03*
X13562500Y10650000D03*
X15437500Y11600000D03*
%TD*%
D11*
%TO.C,Q1*%
X42437500Y17450000D03*
X42437500Y19350000D03*
X40562500Y18400000D03*
%TD*%
D13*
%TO.C,C2*%
X19650000Y18862500D03*
X19650000Y17037500D03*
%TD*%
D14*
%TO.C,U1*%
X21750000Y25245000D03*
X21750000Y22705000D03*
X31250000Y22705000D03*
X31250000Y23975000D03*
X31250000Y25245000D03*
%TD*%
D13*
%TO.C,R7*%
X17700000Y11037500D03*
X17700000Y12862500D03*
%TD*%
D15*
%TO.C,D1*%
X35650000Y24000000D03*
X38950000Y24000000D03*
%TD*%
D16*
%TO.C,U2*%
X31250000Y16705000D03*
X31250000Y19245000D03*
X21750000Y19245000D03*
X21750000Y17975000D03*
X21750000Y16705000D03*
%TD*%
D17*
%TO.C,R4*%
X37900000Y19312500D03*
X37900000Y17487500D03*
%TD*%
%TO.C,R10*%
X41900000Y7012500D03*
X41900000Y5187500D03*
%TD*%
%TO.C,R6*%
X42500000Y15212500D03*
X42500000Y13387500D03*
%TD*%
%TO.C,R9*%
X17800000Y17075000D03*
X17800000Y18900000D03*
%TD*%
%TO.C,R3*%
X36100000Y19312500D03*
X36100000Y17487500D03*
%TD*%
%TO.C,C1*%
X33250000Y24862500D03*
X33250000Y23037500D03*
%TD*%
D18*
%TO.C,D2*%
X34400000Y10250000D03*
X34400000Y13550000D03*
%TD*%
D14*
%TO.C,U4*%
X21750000Y7245000D03*
X21750000Y4705000D03*
X31250000Y4705000D03*
X31250000Y5975000D03*
X31250000Y7245000D03*
%TD*%
D17*
%TO.C,R5*%
X40600000Y15212500D03*
X40600000Y13387500D03*
%TD*%
%TO.C,R1*%
X16000000Y22962500D03*
X16000000Y21137500D03*
%TD*%
%TO.C,C4*%
X33350000Y6912500D03*
X33350000Y5087500D03*
%TD*%
%TO.C,R8*%
X16000000Y17075000D03*
X16000000Y18900000D03*
%TD*%
D19*
%TO.C,D3*%
X18500000Y7650000D03*
X18500000Y4350000D03*
%TD*%
D16*
%TO.C,U3*%
X31250000Y10705000D03*
X31250000Y13245000D03*
X21750000Y13245000D03*
X21750000Y11975000D03*
X21750000Y10705000D03*
%TD*%
D13*
%TO.C,R2*%
X17800000Y21137500D03*
X17800000Y22962500D03*
%TD*%
%TO.C,C3*%
X19650000Y11037500D03*
X19650000Y12862500D03*
%TD*%
M02*
