%TF.GenerationSoftware,KiCad,Pcbnew,7.0.10*%
%TF.CreationDate,2024-08-02T12:55:58+01:00*%
%TF.ProjectId,RL78I1C_PMOD_PROG_ADAPTOR_ISO,524c3738-4931-4435-9f50-4d4f445f5052,0*%
%TF.SameCoordinates,PX5b8d800PY7997ee0*%
%TF.FileFunction,Paste,Bot*%
%TF.FilePolarity,Positive*%
%FSLAX46Y46*%
G04 Gerber Fmt 4.6, Leading zero omitted, Abs format (unit mm)*
G04 Created by KiCad (PCBNEW 7.0.10) date 2024-08-02 12:55:58*
%MOMM*%
%LPD*%
G01*
G04 APERTURE LIST*
%ADD10C,0.150000*%
G04 APERTURE END LIST*
D10*
X58062779Y9974181D02*
X58062779Y10974181D01*
X58062779Y10974181D02*
X58443731Y10974181D01*
X58443731Y10974181D02*
X58538969Y10926562D01*
X58538969Y10926562D02*
X58586588Y10878943D01*
X58586588Y10878943D02*
X58634207Y10783705D01*
X58634207Y10783705D02*
X58634207Y10640848D01*
X58634207Y10640848D02*
X58586588Y10545610D01*
X58586588Y10545610D02*
X58538969Y10497991D01*
X58538969Y10497991D02*
X58443731Y10450372D01*
X58443731Y10450372D02*
X58062779Y10450372D01*
X59491350Y9974181D02*
X59491350Y10497991D01*
X59491350Y10497991D02*
X59443731Y10593229D01*
X59443731Y10593229D02*
X59348493Y10640848D01*
X59348493Y10640848D02*
X59158017Y10640848D01*
X59158017Y10640848D02*
X59062779Y10593229D01*
X59491350Y10021800D02*
X59396112Y9974181D01*
X59396112Y9974181D02*
X59158017Y9974181D01*
X59158017Y9974181D02*
X59062779Y10021800D01*
X59062779Y10021800D02*
X59015160Y10117039D01*
X59015160Y10117039D02*
X59015160Y10212277D01*
X59015160Y10212277D02*
X59062779Y10307515D01*
X59062779Y10307515D02*
X59158017Y10355134D01*
X59158017Y10355134D02*
X59396112Y10355134D01*
X59396112Y10355134D02*
X59491350Y10402753D01*
X59919922Y10021800D02*
X60015160Y9974181D01*
X60015160Y9974181D02*
X60205636Y9974181D01*
X60205636Y9974181D02*
X60300874Y10021800D01*
X60300874Y10021800D02*
X60348493Y10117039D01*
X60348493Y10117039D02*
X60348493Y10164658D01*
X60348493Y10164658D02*
X60300874Y10259896D01*
X60300874Y10259896D02*
X60205636Y10307515D01*
X60205636Y10307515D02*
X60062779Y10307515D01*
X60062779Y10307515D02*
X59967541Y10355134D01*
X59967541Y10355134D02*
X59919922Y10450372D01*
X59919922Y10450372D02*
X59919922Y10497991D01*
X59919922Y10497991D02*
X59967541Y10593229D01*
X59967541Y10593229D02*
X60062779Y10640848D01*
X60062779Y10640848D02*
X60205636Y10640848D01*
X60205636Y10640848D02*
X60300874Y10593229D01*
X60634208Y10640848D02*
X61015160Y10640848D01*
X60777065Y10974181D02*
X60777065Y10117039D01*
X60777065Y10117039D02*
X60824684Y10021800D01*
X60824684Y10021800D02*
X60919922Y9974181D01*
X60919922Y9974181D02*
X61015160Y9974181D01*
X61729446Y10021800D02*
X61634208Y9974181D01*
X61634208Y9974181D02*
X61443732Y9974181D01*
X61443732Y9974181D02*
X61348494Y10021800D01*
X61348494Y10021800D02*
X61300875Y10117039D01*
X61300875Y10117039D02*
X61300875Y10497991D01*
X61300875Y10497991D02*
X61348494Y10593229D01*
X61348494Y10593229D02*
X61443732Y10640848D01*
X61443732Y10640848D02*
X61634208Y10640848D01*
X61634208Y10640848D02*
X61729446Y10593229D01*
X61729446Y10593229D02*
X61777065Y10497991D01*
X61777065Y10497991D02*
X61777065Y10402753D01*
X61777065Y10402753D02*
X61300875Y10307515D01*
M02*
